<svg width="40" height="40" viewBox="0 0 40 40" fill="none" xmlns="http://www.w3.org/2000/svg">
<path opacity="0.943" fill-rule="evenodd" clip-rule="evenodd" d="M23.5633 0.0330759C28.8023 -0.291879 32.7937 1.77756 35.5373 6.24155C37.3785 9.89775 37.5067 13.6163 35.922 17.3974C33.6188 21.8497 29.9641 24.1779 24.9578 24.3819C19.5846 24.1316 15.8016 21.5447 13.609 16.6213C11.8862 11.3655 12.9922 6.82223 16.9271 2.9918C18.8645 1.3678 21.0765 0.381623 23.5633 0.0330759ZM23.7556 2.07023C28.8847 1.86651 32.4593 4.13008 34.4793 8.86074C35.7642 13.4116 34.6261 17.2111 31.0651 20.2591C26.8521 23.0949 22.6844 23.0302 18.5621 20.0651C15.1946 17.0524 14.1206 13.35 15.3402 8.95775C16.8709 5.06863 19.6761 2.77285 23.7556 2.07023Z" fill="white"/>
<path opacity="0.94" fill-rule="evenodd" clip-rule="evenodd" d="M24.7174 6.14441C25.3577 6.19214 25.7424 6.53166 25.8716 7.16299C26.5956 7.32586 27.1887 7.69769 27.6508 8.27857C28.0119 9.56353 27.5469 10.0647 26.2563 9.78218C25.7465 9.18753 25.1054 8.99351 24.3327 9.20014C23.6178 9.53753 23.5217 9.99026 24.0442 10.5582C25.0726 10.9038 26.0664 11.3241 27.0257 11.8193C28.4973 13.0616 28.7697 14.5329 27.8432 16.2332C27.292 16.8588 26.6027 17.2145 25.7754 17.3003C25.6216 18.0415 25.1727 18.3163 24.4289 18.1248C24.0662 17.9432 23.8418 17.6522 23.7557 17.2517C22.8774 17.0757 22.1561 16.6391 21.5917 15.9422C21.2493 15.0481 21.5378 14.4985 22.4573 14.293C23.0685 14.7136 23.7257 15.0532 24.4289 15.3116C25.0431 15.4289 25.6201 15.3319 26.1601 15.0206C26.4923 14.3947 26.364 13.8773 25.7754 13.4685C24.7659 13.086 23.7721 12.6655 22.7939 12.2074C21.4943 11.0181 21.3179 9.67606 22.2649 8.18156C22.6733 7.72146 23.1702 7.39803 23.7557 7.21149C23.8495 6.63236 24.1701 6.27663 24.7174 6.14441Z" fill="white"/>
<path opacity="0.96" fill-rule="evenodd" clip-rule="evenodd" d="M27.7951 40C18.7224 40 9.6497 40 0.577062 40C0.355183 39.8567 0.178862 39.6627 0.0480907 39.4179C-0.0160302 36.443 -0.0160302 33.4682 0.0480907 30.4932C0.1603 30.2507 0.336621 30.0729 0.577062 29.9597C2.17968 29.9112 3.78263 29.895 5.3859 29.9112C5.71309 26.2984 7.63662 24.0834 11.1565 23.2662C14.0252 22.9027 16.3334 23.8728 18.0812 26.1764C20.8429 26.1796 23.6 26.2442 26.3524 26.3704C27.6665 26.8552 28.516 27.7768 28.9011 29.1351C30.3687 27.9341 31.8273 26.7215 33.2771 25.4974C35.1778 24.1439 37.0373 24.2086 38.8554 25.6914C40.1325 27.2143 40.3409 28.8795 39.4805 30.6873C39.2486 31.1156 38.9441 31.4875 38.5668 31.8028C35.8776 34.0948 33.2166 36.423 30.5842 38.7874C29.7164 39.3548 28.7867 39.759 27.7951 40ZM12.3106 25.1578C14.3079 25.3243 15.8146 26.2783 16.8309 28.0196C16.9836 28.1032 17.1439 28.1679 17.3118 28.2136C20.1009 28.2459 22.8901 28.2783 25.6792 28.3106C26.8263 28.8386 27.1629 29.6955 26.689 30.8813C26.4186 31.285 26.0499 31.5598 25.583 31.7058C22.4733 31.7381 19.3635 31.7705 16.2539 31.8028C15.7682 31.942 15.5438 32.2653 15.5806 32.7729C15.5451 33.2842 15.7695 33.6076 16.2539 33.743C19.4597 33.8077 22.6657 33.8077 25.8715 33.743C26.5438 33.5818 27.153 33.2907 27.6989 32.8699C30.0753 30.8285 32.4797 28.8237 34.9121 26.8555C36.1879 26.2821 37.1657 26.6216 37.8455 27.874C38.1084 28.6559 37.9802 29.3673 37.4608 30.0082C34.7249 32.3505 32.0159 34.7272 29.3339 37.1383C28.7812 37.5302 28.1721 37.7888 27.5065 37.9143C19.013 38.0576 10.5174 38.1061 2.01971 38.0598C2.01971 35.9904 2.01971 33.9208 2.01971 31.8513C3.62298 31.8676 5.22595 31.8513 6.82855 31.8028C7.00484 31.6896 7.1491 31.5441 7.26134 31.3663C7.06649 28.7344 8.10837 26.8105 10.3871 25.5944C11.0214 25.3542 11.6626 25.2087 12.3106 25.1578Z" fill="white"/>
</svg>
