<svg width="40" height="40" viewBox="0 0 40 40" fill="none" xmlns="http://www.w3.org/2000/svg">
<path opacity="0.928" fill-rule="evenodd" clip-rule="evenodd" d="M14.9997 0.0492008C16.3113 -0.11027 17.5479 0.11792 18.7094 0.73377C19.1283 1.0581 19.5584 1.36684 19.9997 1.65995C20.4411 1.36684 20.8712 1.0581 21.29 0.73377C23.7475 -0.431183 26.0055 -0.135878 28.0642 1.61968C29.8016 3.59892 30.1645 5.8137 29.153 8.26404C28.7278 9.09212 28.1498 9.80351 27.4191 10.3983C25.1072 12.4923 22.7954 14.5862 20.4836 16.6802C20.3256 16.7552 20.1643 16.8223 19.9997 16.8816C19.8351 16.8223 19.6738 16.7552 19.5159 16.6802C16.8411 14.2238 14.1664 11.7674 11.4917 9.31102C10.0465 7.18738 9.91206 4.98603 11.0884 2.70694C12.0175 1.26993 13.3213 0.38402 14.9997 0.0492008ZM15.161 1.41834C16.3359 1.26875 17.4112 1.52379 18.3868 2.18345C18.8559 2.67218 19.3935 3.06144 19.9997 3.35124C20.6059 3.06144 21.1435 2.67218 21.6126 2.18345C23.0318 1.29072 24.5104 1.18334 26.0481 1.8613C28.0964 3.19205 28.755 5.031 28.0239 7.37812C27.7595 8.01783 27.3697 8.56823 26.8546 9.02914C24.5817 11.0977 22.2967 13.1515 19.9997 15.1903C17.4458 12.9214 14.9324 10.6128 12.4594 8.26404C11.504 6.68506 11.4503 5.07431 12.2981 3.43178C12.9788 2.3613 13.9331 1.69015 15.161 1.41834Z" fill="white"/>
<path opacity="0.962" fill-rule="evenodd" clip-rule="evenodd" d="M5.48387 7.78074C6.8812 7.55846 7.83549 8.0954 8.34678 9.3915C8.36032 10.1982 8.40065 11.0036 8.46774 11.8076C9.95226 11.3477 10.9872 11.8309 11.5726 13.2573C11.5861 14.7077 11.6264 16.1574 11.6936 17.6063C13.0527 17.1512 14.0608 17.5539 14.7177 18.8144C14.8234 21.1719 14.8771 23.5343 14.879 25.9017C15.984 27.0318 17.0592 28.1862 18.1048 29.3648C18.3808 29.755 18.569 30.1845 18.6694 30.6534C18.7232 33.6601 18.7232 36.6669 18.6694 39.6736C18.629 39.8213 18.5349 39.9152 18.3871 39.9555C15.5308 40.0349 12.6813 40.0081 9.83871 39.875C9.78823 39.8146 9.74791 39.7474 9.71774 39.6736C9.69089 38.6266 9.66395 37.5797 9.6371 36.5327C9.61081 36.1585 9.50323 35.8095 9.31452 35.4857C7.54032 33.7138 5.76613 31.942 3.99194 30.1702C2.67473 27.7541 1.35752 25.3379 0.0403228 22.9218C-0.0134409 18.9486 -0.0134409 14.9754 0.0403228 11.0022C0.552855 9.47703 1.61468 8.84609 3.22581 9.10961C3.46869 9.17243 3.69719 9.26642 3.91129 9.3915C4.18157 8.5982 4.70576 8.06126 5.48387 7.78074ZM5.80645 9.14988C6.50346 9.05436 6.92012 9.3497 7.05645 10.0358C7.11022 13.5257 7.11022 17.0157 7.05645 20.5057C6.76659 20.7355 6.57842 21.0308 6.49194 21.3916C6.06183 20.8547 5.63172 20.3178 5.20161 19.7808C5.14785 16.5325 5.14785 13.2841 5.20161 10.0358C5.26322 9.63971 5.46483 9.34446 5.80645 9.14988ZM2.17742 10.4385C3.12964 10.3029 3.68072 10.7056 3.83065 11.6465C3.83165 14.6064 3.88541 17.5595 3.99194 20.5057C6.33438 23.4795 8.68653 26.446 11.0484 29.4051C11.1619 29.4305 11.2694 29.4036 11.371 29.3245C11.6536 29.1091 11.9225 28.8809 12.1774 28.64C10.7277 26.776 9.26266 24.9237 7.78226 23.0829C7.71363 22.6196 7.74057 22.1631 7.86291 21.7137C8.1425 21.3247 8.47855 21.2575 8.87097 21.5124C11.6264 24.4788 14.3817 27.4454 17.1371 30.4118C17.2844 30.7163 17.3651 31.0385 17.379 31.3783C17.4194 33.8211 17.4328 36.2641 17.4194 38.7072C15.2688 38.7072 13.1183 38.7072 10.9677 38.7072C10.9812 37.7403 10.9677 36.7739 10.9274 35.8078C10.8135 35.258 10.5715 34.7748 10.2016 34.3581C8.48121 32.64 6.76075 30.9219 5.04032 29.2037C3.80377 26.9487 2.5672 24.6936 1.33065 22.4386C1.27688 18.8412 1.27688 15.2439 1.33065 11.6465C1.38114 11.074 1.6634 10.6713 2.17742 10.4385ZM9.03226 13.0157C9.72928 12.9202 10.146 13.2155 10.2823 13.9016C10.3361 16.264 10.3361 18.6265 10.2823 20.9889C9.95476 20.5536 9.53807 20.2449 9.03226 20.0627C8.81887 20.0227 8.60379 20.0092 8.3871 20.0225C8.37363 17.982 8.3871 15.9417 8.42742 13.9016C8.48903 13.5055 8.69065 13.2103 9.03226 13.0157ZM12.2581 18.8144C12.9551 18.7189 13.3718 19.0142 13.5081 19.7003C13.5619 21.2842 13.5619 22.8681 13.5081 24.452C12.8898 23.7809 12.2715 23.1097 11.6532 22.4386C11.5994 21.5259 11.5994 20.613 11.6532 19.7003C11.7148 19.3042 11.9165 19.009 12.2581 18.8144Z" fill="white"/>
<path opacity="0.962" fill-rule="evenodd" clip-rule="evenodd" d="M33.2257 7.78074C34.623 7.55846 35.5773 8.0954 36.0886 9.3915C36.8882 9.01192 37.7081 8.97165 38.5483 9.27069C39.2757 9.63496 39.7462 10.2122 39.9595 11.0022C40.0133 14.9754 40.0133 18.9486 39.9595 22.9218C38.6424 25.3379 37.3251 27.7541 36.0079 30.1702C34.2337 31.942 32.4595 33.7138 30.6853 35.4857C30.4966 35.8095 30.3891 36.1585 30.3628 36.5327C30.3359 37.5797 30.309 38.6266 30.2821 39.6736C30.252 39.7474 30.2116 39.8146 30.1612 39.875C27.3186 40.0081 24.4691 40.0349 21.6128 39.9555C21.4649 39.9152 21.3708 39.8213 21.3305 39.6736C21.2767 36.64 21.2767 33.6065 21.3305 30.5729C21.4539 30.1386 21.642 29.7359 21.895 29.3648C22.9407 28.1862 24.0159 27.0318 25.1208 25.9017C25.1228 23.5343 25.1765 21.1719 25.2821 18.8144C25.9391 17.5539 26.9471 17.1512 28.3063 17.6063C28.3496 16.0716 28.4168 14.5414 28.5079 13.0157C29.1649 11.7552 30.1729 11.3525 31.5321 11.8076C31.5778 10.9173 31.645 10.0314 31.7337 9.14988C32.0428 8.47836 32.5402 8.02195 33.2257 7.78074ZM33.5482 9.14988C34.2453 9.05436 34.662 9.3497 34.7983 10.0358C34.852 13.2841 34.852 16.5325 34.7983 19.7808C34.3682 20.3178 33.938 20.8547 33.5079 21.3916C33.4215 21.0308 33.2332 20.7355 32.9434 20.5057C32.8896 17.0157 32.8896 13.5257 32.9434 10.0358C33.005 9.63971 33.2066 9.34446 33.5482 9.14988ZM37.016 10.4385C37.9683 10.3029 38.5193 10.7056 38.6692 11.6465C38.723 15.2439 38.723 18.8412 38.6692 22.4386C37.4327 24.6936 36.1961 26.9487 34.9595 29.2037C33.0462 31.0608 31.1913 32.9669 29.395 34.9219C29.2645 35.2093 29.157 35.5046 29.0724 35.8078C29.0321 36.7739 29.0187 37.7403 29.0321 38.7072C26.8816 38.7072 24.7311 38.7072 22.5805 38.7072C22.567 36.2641 22.5805 33.8211 22.6208 31.3783C22.6269 30.9305 22.7613 30.5279 23.0241 30.1702C25.7553 27.3085 28.4569 24.4226 31.1289 21.5124C31.5213 21.2575 31.8574 21.3247 32.137 21.7137C32.2593 22.1631 32.2862 22.6196 32.2176 23.0829C30.7372 24.9237 29.2721 26.776 27.8224 28.64C28.0794 28.8833 28.3482 29.1114 28.6289 29.3245C28.7304 29.4036 28.8379 29.4305 28.9515 29.4051C31.3133 26.446 33.6655 23.4795 36.0079 20.5057C36.1145 17.5595 36.1683 14.6064 36.1692 11.6465C36.2197 11.074 36.502 10.6713 37.016 10.4385ZM30.3224 13.0157C31.0195 12.9202 31.4362 13.2155 31.5724 13.9016C31.6128 15.9417 31.6262 17.982 31.6128 20.0225C31.1772 19.9794 30.774 20.0734 30.4031 20.3043C30.1746 20.5325 29.9461 20.7607 29.7176 20.9889C29.6638 18.6265 29.6638 16.264 29.7176 13.9016C29.7792 13.5055 29.9808 13.2103 30.3224 13.0157ZM27.0966 18.8144C27.6312 18.7122 28.0209 18.9001 28.266 19.3782C28.3939 20.3937 28.4208 21.4138 28.3466 22.4386C27.7283 23.1097 27.1101 23.7809 26.4918 24.452C26.438 22.8681 26.438 21.2842 26.4918 19.7003C26.5534 19.3042 26.755 19.009 27.0966 18.8144Z" fill="white"/>
</svg>
