<svg width="15" height="18" viewBox="0 0 15 18" fill="none" xmlns="http://www.w3.org/2000/svg">
<path d="M11.3828 0.541992C12.5099 0.31056 13.7696 1.06523 14.248 2.69141L14.333 3.02832C14.7871 5.16613 14.2706 7.65019 13.3057 10.2354C12.4226 12.6011 11.1924 14.982 10.0762 17.1836C6.11801 13.544 3.49175 10.9674 2 8.86133L1.70605 8.42969C0.172521 6.07386 0.316974 4.45223 0.959961 3.58008C1.61622 2.68998 2.96145 2.33535 4.35352 2.85156V2.85254C4.95096 3.07648 5.55482 3.55612 6.08984 4.17578C6.62116 4.79119 7.05647 5.51184 7.3291 6.16699L8.28809 6.02734C8.68234 2.28061 10.1608 0.793003 11.3828 0.541992Z" stroke="#FF5528"/>
</svg>
