<svg width="44" height="36" viewBox="0 0 44 36" fill="none" xmlns="http://www.w3.org/2000/svg">
<path d="M42.3245 8.17007L24.47 0.50501C22.9003 -0.16882 21.0989 -0.168292 19.5273 0.506329L1.67664 8.16963C0.64249 8.61349 0 9.58932 0 10.7162C0 11.8425 0.642051 12.8178 1.67558 13.2615L3.78567 14.1674C3.78347 14.1893 3.78233 14.2114 3.78233 14.2338V24.236C2.96671 24.512 2.3776 25.2852 2.3776 26.1942C2.3776 26.7212 2.57584 27.2025 2.90112 27.568C2.54134 27.9212 2.30244 28.4002 2.2531 28.9429L1.74758 34.5135C1.71307 34.894 1.84081 35.2739 2.09797 35.5561C2.35512 35.8382 2.72141 36 3.10279 36H5.77872C6.1601 36 6.52639 35.8382 6.78354 35.5561C7.04078 35.2739 7.16844 34.8939 7.13393 34.5135L6.62841 28.9429C6.57915 28.4003 6.34017 27.9213 5.98039 27.568C6.30567 27.2026 6.50391 26.7212 6.50391 26.1942C6.50391 25.2853 5.9148 24.5121 5.09918 24.236V14.7313L8.70214 16.2781C8.69995 16.2999 8.69881 16.322 8.69881 16.3443V21.3803C8.69881 23.4821 10.1355 25.4264 12.7443 26.8554C15.2274 28.2153 18.5145 28.9644 21.9999 28.9644C25.4853 28.9644 28.7723 28.2153 31.2554 26.8554C33.8642 25.4264 35.3009 23.4821 35.3009 21.3803V16.3443C35.3009 16.322 35.2998 16.2999 35.2976 16.2782L42.3234 13.2621C43.3575 12.8181 44 11.8422 44 10.7154C44.0001 9.58906 43.358 8.61375 42.3245 8.17007ZM5.81112 34.6665C5.79812 34.6808 5.78399 34.6808 5.77872 34.6808H3.10279C3.09744 34.6808 3.08339 34.6808 3.07039 34.6665C3.05731 34.6522 3.05863 34.6382 3.05907 34.6329L3.5646 29.0623C3.60612 28.6055 3.98277 28.2609 4.4408 28.2609C4.89874 28.2609 5.27539 28.6055 5.31691 29.0623L5.82244 34.6328C5.82297 34.6382 5.8242 34.6522 5.81112 34.6665ZM4.4408 26.9417C4.0293 26.9417 3.69453 26.6064 3.69453 26.1942C3.69453 25.782 4.0293 25.4467 4.4408 25.4467C4.8523 25.4467 5.18706 25.782 5.18706 26.1942C5.18706 26.6064 4.8523 26.9417 4.4408 26.9417ZM33.9841 18.5662C33.9841 20.2718 32.5827 21.937 30.1392 23.1349C29.8126 23.295 29.6774 23.6901 29.8373 24.0172C29.9515 24.2512 30.1857 24.387 30.4292 24.387C30.5264 24.387 30.625 24.3654 30.7183 24.3197C32.0736 23.6552 33.1594 22.8458 33.9336 21.9458C33.6867 23.3367 32.5337 24.6519 30.6238 25.698C28.3311 26.9538 25.2685 27.6453 22 27.6453C18.7316 27.6453 15.669 26.9538 13.3763 25.698C11.4733 24.6557 10.3214 23.3462 10.0689 21.9608C10.7345 22.7294 11.6326 23.4322 12.7444 24.0412C15.2275 25.4012 18.5146 26.1502 22 26.1502C22.975 26.1502 23.9475 26.0908 24.8905 25.9736C25.2514 25.9288 25.5077 25.5994 25.4629 25.2379C25.4181 24.8763 25.0898 24.6196 24.7284 24.6645C23.839 24.775 22.921 24.8311 22 24.8311C18.7315 24.8311 15.6689 24.1395 13.3762 22.8838C11.2092 21.6969 10.0158 20.1636 10.0158 18.5662V16.8421L19.5301 20.9267C20.3145 21.2634 21.1566 21.4317 21.9992 21.4317C22.8427 21.4317 23.6866 21.263 24.4728 20.9254L33.9841 16.8423V18.5662ZM41.8047 12.0496L23.9539 19.7128C22.7122 20.2459 21.2888 20.2463 20.0489 19.7141L6.40628 13.8573L18.9066 11.6796C19.4688 12.3461 20.6146 12.7826 22 12.7826C23.977 12.7826 25.4679 11.8941 25.4679 10.7159C25.4679 9.53769 23.977 8.64919 22 8.64919C20.2044 8.64919 18.81 9.38212 18.5692 10.3993L4.32798 12.8802C4.28619 12.8875 4.24624 12.8988 4.20796 12.9134L2.19446 12.0489C1.64494 11.8132 1.31694 11.3149 1.31694 10.7162C1.31694 10.117 1.64538 9.61817 2.19542 9.38203L20.0461 1.71873C20.6676 1.452 21.3344 1.31858 22.001 1.31858C22.6665 1.31858 23.3318 1.45156 23.9512 1.71741L41.8057 9.38247C42.3551 9.61834 42.6832 10.1166 42.6832 10.7153C42.6832 11.3147 42.3547 11.8134 41.8047 12.0496ZM19.849 10.716C19.849 10.5238 20.5886 9.96845 22 9.96845C23.4114 9.96845 24.151 10.5238 24.151 10.716C24.151 10.9081 23.4114 11.4635 22 11.4635C20.5886 11.4635 19.849 10.908 19.849 10.716Z" fill="#1A685B"/>
<path d="M26.9158 25.6074C26.9649 25.6074 27.0148 25.6018 27.0647 25.5903C27.5616 25.4753 28.0511 25.3418 28.5197 25.1932C28.8664 25.0834 29.0586 24.7128 28.9489 24.3655C28.8393 24.0182 28.4694 23.8255 28.1225 23.9354C27.687 24.0734 27.2314 24.1977 26.7683 24.3049C26.4139 24.3869 26.193 24.741 26.2748 25.096C26.3453 25.401 26.6162 25.6074 26.9158 25.6074Z" fill="#1A685B"/>
</svg>
