<svg width="36" height="36" viewBox="0 0 36 36" fill="none" xmlns="http://www.w3.org/2000/svg">
<path d="M0.347964 22.0163L4.16305 23.6606V29.7151C4.16305 29.9418 4.29976 30.1477 4.51049 30.2384L17.767 35.9525C17.7677 35.9532 17.7693 35.9532 17.77 35.9532C17.7776 35.9562 17.7851 35.9584 17.7927 35.9606C17.8168 35.9696 17.8418 35.977 17.8667 35.9829C17.8705 35.9837 17.8742 35.9859 17.878 35.9867C17.8795 35.9867 17.881 35.9882 17.8833 35.9882C17.8878 35.9889 17.8924 35.9889 17.8961 35.9896C17.9301 35.9956 17.9641 36 17.9989 36H18.0004H18.0019C18.0366 36 18.0706 35.9956 18.1046 35.9896C18.1091 35.9889 18.1137 35.9889 18.1175 35.9882C18.119 35.9874 18.1212 35.9867 18.1227 35.9867C18.1265 35.9859 18.1303 35.9844 18.1341 35.9829C18.159 35.977 18.1839 35.9696 18.2081 35.9606C18.2156 35.9577 18.2232 35.9562 18.2307 35.9525C18.2315 35.9517 18.2323 35.9517 18.2338 35.9517L31.4903 30.2377C31.7018 30.1462 31.8377 29.9411 31.8377 29.7144V23.6598L35.6528 22.0156C35.8069 21.9494 35.9239 21.8201 35.9738 21.6625C36.0237 21.5042 36.0017 21.3332 35.9134 21.1919L31.7508 14.5569C31.599 14.3146 31.2886 14.2194 31.0242 14.3339L18.0004 19.9483L4.97652 14.3346C4.71141 14.2202 4.40173 14.3153 4.24915 14.5576L0.0866258 21.1927C-0.00174577 21.3332 -0.0236499 21.5049 0.0262008 21.6632C0.0768067 21.8208 0.19388 21.9502 0.347964 22.0163ZM31.028 15.5805L34.575 21.2336L22.3925 26.4845L18.8456 20.8314L31.028 15.5805ZM18.5812 22.5857L21.6689 27.5081C21.7777 27.6813 21.9673 27.7794 22.1629 27.7794C22.2407 27.7794 22.32 27.7638 22.3955 27.7311L30.676 24.1616V29.3419L18.5805 34.5557V22.5857H18.5812ZM17.4195 34.5557L5.32472 29.3419V24.1616L13.6052 27.7311C13.6807 27.7638 13.7601 27.7794 13.8378 27.7794C14.0342 27.7794 14.2238 27.6813 14.3318 27.5081L17.4195 22.5857V34.5557ZM4.97274 15.5805L17.1552 20.8314L13.609 26.4845L1.42655 21.2336L4.97274 15.5805Z" fill="#1A685B"/>
<path d="M6.38748 13.5883C6.70848 13.5883 6.96831 13.3326 6.96831 13.0166V9.58835C6.96831 7.96416 7.58767 7.07884 8.18663 6.22325C8.63982 5.5758 9.10434 4.90977 9.24634 4.00066H11.078C11.22 4.90977 11.6845 5.5758 12.1377 6.22325C12.7366 7.07884 13.356 7.96341 13.356 9.58835V16.0012C13.356 16.3171 13.6158 16.5728 13.9368 16.5728C14.2578 16.5728 14.5177 16.3171 14.5177 16.0012V10.2536C14.6899 10.0775 14.8953 9.98084 15.1431 9.96151C15.8077 9.91097 16.6982 10.3845 17.591 11.2624C17.5925 11.2638 17.5948 11.2653 17.5971 11.2668C17.6144 11.2832 17.6333 11.2973 17.6522 11.3114C17.6635 11.3203 17.6741 11.33 17.6862 11.3374C17.7028 11.3478 17.7209 11.3553 17.7383 11.3642C17.7549 11.3724 17.7708 11.382 17.7882 11.3887C17.8018 11.3939 17.8169 11.3969 17.832 11.4014C17.8546 11.4081 17.8765 11.4155 17.8992 11.4192C17.9015 11.4199 17.9037 11.4207 17.9067 11.4214C17.9392 11.4266 17.971 11.4296 18.0027 11.4296C18.0389 11.4296 18.0744 11.4259 18.1099 11.4192C18.1197 11.4177 18.1296 11.414 18.1394 11.411C18.1643 11.4051 18.1885 11.3991 18.2119 11.3902C18.2247 11.385 18.2376 11.3783 18.2504 11.3724C18.2701 11.3635 18.2897 11.3538 18.3078 11.3426C18.3207 11.3352 18.332 11.3263 18.3441 11.3174C18.3622 11.304 18.3796 11.2906 18.3962 11.275C18.4015 11.2698 18.4075 11.2668 18.4128 11.2616C19.3079 10.3815 20.3608 10.0968 21.3019 10.4804C22.1191 10.8134 22.6471 11.585 22.6471 12.445C22.6471 14.232 21.9205 15.3329 21.4877 15.8294C21.2792 16.0688 21.3072 16.4301 21.5504 16.6352C21.6599 16.7274 21.7943 16.7727 21.928 16.7727C22.0919 16.7727 22.2543 16.7051 22.3691 16.5735C22.9069 15.9566 23.808 14.6 23.808 12.445C23.808 11.6667 23.527 10.9375 23.0421 10.3644C23.1214 10.1578 23.2619 9.79649 23.447 9.33265C25.0354 9.83886 25.9403 10.5807 25.9561 10.5941C26.0656 10.6863 26.1993 10.7309 26.333 10.7309C26.4962 10.7309 26.6586 10.6632 26.7741 10.5317C26.9833 10.2923 26.9554 9.93178 26.7122 9.72587C26.6669 9.68722 25.6608 8.85022 23.8775 8.26892C24.2076 7.46463 24.6034 6.53174 25.0195 5.60776C26.586 6.11324 27.4788 6.84468 27.4954 6.85806C27.605 6.95024 27.7387 6.99484 27.8723 6.99484C28.0355 6.99484 28.1979 6.92719 28.3134 6.79562C28.5227 6.55627 28.4947 6.19575 28.2515 5.98984C28.2069 5.95193 27.2326 5.14243 25.5044 4.56263C25.5626 4.44146 25.62 4.3203 25.6782 4.20211C26.5792 2.35639 28.5423 1.34322 30.2455 1.84423C30.8634 2.02635 31.2645 2.3222 31.4729 2.74962C31.9956 3.82226 31.34 5.72744 30.6292 7.44976C29.4774 10.2425 28.6752 12.141 28.2991 13.0248C28.1752 13.3162 28.3142 13.6507 28.6103 13.7726C28.6836 13.8031 28.7598 13.8172 28.8346 13.8172C29.062 13.8172 29.2772 13.6857 29.3701 13.4664C29.747 12.581 30.5514 10.6773 31.7056 7.88016C32.5523 5.82779 33.2366 3.72562 32.5198 2.25604C32.1671 1.53203 31.5137 1.02507 30.5779 0.750031C28.2961 0.0780508 25.7952 1.3224 24.6305 3.70704C23.5867 5.84415 22.5391 8.46219 22.0972 9.5943C21.9839 9.53186 21.8676 9.47388 21.7452 9.42408C20.7505 9.01821 19.6636 9.10964 18.6749 9.64485C18.6673 9.22263 18.6198 8.8294 18.5442 8.46517C19.7074 8.1604 22.709 7.03944 23.2211 3.50931C23.243 3.35618 23.2015 3.20083 23.1056 3.07817C23.0096 2.95552 22.8669 2.87747 22.7105 2.86038C20.9854 2.67157 19.6387 3.04026 18.7089 3.95532C18.0457 4.60871 17.7126 5.43234 17.5495 6.17122C17.0948 5.52451 16.6665 5.17588 16.6235 5.14243C16.375 4.94545 16.0117 4.98336 15.81 5.22792C15.6083 5.47173 15.6461 5.83151 15.8931 6.03073C15.9664 6.09019 17.4792 7.34198 17.5132 9.68796C16.656 9.06727 15.8062 8.76325 15.0517 8.82123C14.853 8.83684 14.6649 8.87921 14.4867 8.94239C14.3379 7.35387 13.6559 6.37638 13.0947 5.57431C12.7102 5.02573 12.3892 4.56411 12.2578 3.99397C12.5486 3.96275 12.7752 3.72339 12.7752 3.42903V0.571629C12.7752 0.255709 12.5153 0 12.1943 0H8.12998C7.80897 0 7.54915 0.255709 7.54915 0.571629V3.42903C7.54915 3.72339 7.7765 3.96275 8.06654 3.99397C7.93587 4.56486 7.6141 5.02573 7.22965 5.57431C6.59594 6.48045 5.80664 7.60735 5.80664 9.58761V13.0159C5.80664 13.3318 6.06722 13.5883 6.38748 13.5883ZM19.5337 4.76035C20.0798 4.22589 20.8638 3.95606 21.8706 3.95606C21.8956 3.95606 21.9212 3.95606 21.9462 3.9568C21.3631 6.12736 19.5556 6.97254 18.5699 7.27731C18.6047 6.58228 18.789 5.48957 19.5337 4.76035ZM8.71006 1.14326H11.6135V2.8574H8.71006V1.14326Z" fill="#1A685B"/>
</svg>
