<svg width="37" height="36" viewBox="0 0 37 36" fill="none" xmlns="http://www.w3.org/2000/svg">
<path d="M18.2668 31.1029C17.9512 31.1029 17.6958 31.3583 17.6958 31.6739V35.4275C17.6958 35.7431 17.9512 35.9985 18.2668 35.9985C18.5824 35.9985 18.8378 35.7431 18.8378 35.4275V31.6739C18.8378 31.3583 18.5824 31.1029 18.2668 31.1029Z" fill="#1A685B"/>
<path d="M5.70872 31.1029C5.39313 31.1029 5.1377 31.3583 5.1377 31.6739V35.4275C5.1377 35.7431 5.39313 35.9985 5.70872 35.9985C6.0243 35.9985 6.27974 35.7431 6.27974 35.4275V31.6739C6.279 31.3583 6.02356 31.1029 5.70872 31.1029Z" fill="#1A685B"/>
<path d="M23.4009 18.9102C23.1528 19.1047 23.109 19.4634 23.3036 19.7114C23.4165 19.8547 23.5835 19.9305 23.7536 19.9305C23.8768 19.9305 24.0008 19.8911 24.1055 19.8087C27.0735 17.4837 30.7788 13.7888 31.5786 9.39143C32.2595 5.64748 31.009 3.41463 29.8403 2.20056C28.0782 0.370916 25.5186 -0.194165 23.764 0.0560744C20.6475 0.501605 19.0191 2.59486 18.2669 3.98268C17.5147 2.59486 15.887 0.500862 12.7698 0.0560744C11.0151 -0.193423 8.45553 0.370916 6.6942 2.19982C5.52543 3.41389 4.27497 5.64674 4.95589 9.39068C5.75191 13.7702 9.43273 17.4518 12.3792 19.7693C12.4839 19.8517 12.6079 19.8911 12.7319 19.8911C12.9012 19.8911 13.0683 19.8161 13.1811 19.6728C13.3757 19.4248 13.3334 19.0661 13.0853 18.8708C10.2933 16.6758 6.81153 13.2133 6.07937 9.18574C5.60934 6.59869 6.1061 4.45643 7.51695 2.99138C8.99834 1.45356 11.1413 0.976095 12.6086 1.18549C16.5196 1.74389 17.6721 5.40541 17.7203 5.56506C17.7203 5.56655 17.7211 5.56729 17.7218 5.56803C17.73 5.5955 17.7426 5.62224 17.7545 5.64823C17.7582 5.65639 17.7604 5.6653 17.7649 5.67273C17.7827 5.7054 17.8028 5.73585 17.8265 5.76406C17.8354 5.7752 17.8466 5.78411 17.8562 5.79451C17.8815 5.82124 17.9097 5.845 17.9409 5.86728C17.9587 5.8799 17.9765 5.89401 17.9958 5.90441C18.004 5.90886 18.0129 5.91109 18.0218 5.91554C18.0478 5.92817 18.0738 5.94005 18.1013 5.94822C18.102 5.94822 18.1035 5.94896 18.1042 5.9497C18.1139 5.95267 18.1235 5.95267 18.1339 5.95564C18.1599 5.96158 18.1859 5.96827 18.2127 5.97049C18.2275 5.97198 18.2424 5.97049 18.2572 5.97124C18.2795 5.97198 18.3018 5.97272 18.324 5.97049C18.3426 5.96827 18.3612 5.96381 18.3797 5.9601C18.3961 5.95638 18.4131 5.95564 18.4295 5.95044C18.431 5.9497 18.4324 5.94896 18.4347 5.94822C18.4518 5.94302 18.4673 5.93485 18.4837 5.92817C18.6084 5.87693 18.7087 5.78708 18.7696 5.67421C18.774 5.66605 18.7762 5.65714 18.78 5.64897C18.7926 5.62298 18.8045 5.59699 18.8126 5.56952C18.8134 5.56803 18.8134 5.56729 18.8141 5.5658C18.8253 5.52793 19.9918 1.74909 23.9251 1.18698C25.3924 0.976838 27.5354 1.4543 29.0168 2.99286C30.4276 4.45792 30.9244 6.60018 30.4543 9.18722C29.7192 13.2312 26.2129 16.707 23.4009 18.9102Z" fill="#1A685B"/>
<path d="M30.7744 31.1029C30.4588 31.1029 30.2034 31.3583 30.2034 31.6739V35.4275C30.2034 35.7431 30.4588 35.9985 30.7744 35.9985C31.09 35.9985 31.3454 35.7431 31.3454 35.4275V31.6739C31.3454 31.3583 31.09 31.1029 30.7744 31.1029Z" fill="#1A685B"/>
<path d="M33.1861 21.7586C33.6494 21.2106 33.9301 20.503 33.9301 19.7292C33.9301 17.9983 32.526 16.5897 30.7995 16.5897C29.0731 16.5897 27.6689 17.9983 27.6689 19.7292C27.6689 20.4948 27.9437 21.1965 28.3996 21.7423C27.4803 21.8247 26.6375 22.2732 26.0539 23.0031L24.5205 24.9204L22.9872 23.0031C22.4035 22.2732 21.5607 21.8247 20.6414 21.7423C21.0974 21.1965 21.3721 20.4948 21.3721 19.7292C21.3721 17.9983 19.9679 16.5897 18.2415 16.5897C16.5151 16.5897 15.1109 17.9983 15.1109 19.7292C15.1109 20.4963 15.3871 21.2002 15.8446 21.746C14.9431 21.8396 14.1196 22.2858 13.5464 23.0031L11.9877 24.9516L10.4291 23.0031C9.84548 22.2732 9.00269 21.8247 8.08341 21.7423C8.53934 21.1965 8.81408 20.4948 8.81408 19.7292C8.81408 17.9983 7.40992 16.5897 5.68349 16.5897C3.95705 16.5897 2.55289 17.9983 2.55289 19.7292C2.55289 20.5022 2.83357 21.2106 3.29693 21.7586C1.44055 21.994 0 23.5823 0 25.5011V29.7507C0 30.6774 0.753689 31.4311 1.68039 31.4311H2.28334V35.4268C2.28334 35.7423 2.53878 35.9978 2.85437 35.9978C3.16995 35.9978 3.42539 35.7423 3.42539 35.4268V30.8601V26.2934C3.42539 25.9778 3.16995 25.7224 2.85437 25.7224C2.53878 25.7224 2.28334 25.9778 2.28334 26.2934V30.289H1.68039C1.38337 30.289 1.1413 30.047 1.1413 29.75V25.5003C1.1413 24.0486 2.32196 22.868 3.77364 22.868H7.77302C8.46285 22.868 9.1059 23.1769 9.53658 23.716L11.2556 25.8649L10.5427 26.756C10.4306 26.8963 10.3423 27.0486 10.2769 27.2067L9.07175 26.0409C8.97818 25.853 8.78661 25.7224 8.56236 25.7224C8.55642 25.7224 8.55122 25.7238 8.54602 25.7238C8.45988 25.7186 8.37152 25.732 8.2891 25.7677C8.07821 25.8568 7.94084 26.0639 7.94084 26.2934V35.4268C7.94084 35.7423 8.19628 35.9978 8.51186 35.9978C8.52077 35.9978 8.52894 35.9955 8.53711 35.9955C8.54602 35.9963 8.55344 35.9978 8.56236 35.9978C8.87794 35.9978 9.13338 35.7423 9.13338 35.4268V27.6894L10.5123 29.0237C10.5635 29.0913 10.6185 29.1574 10.6801 29.219C10.7744 29.3133 10.8761 29.3943 10.9838 29.4641C10.9868 29.4663 10.9898 29.4678 10.9927 29.4693C11.2949 29.6623 11.641 29.7596 11.987 29.7596C12.4607 29.7596 12.9338 29.5792 13.2939 29.219L14.8406 27.6723V35.4275C14.8406 35.7431 15.0961 35.9985 15.4116 35.9985C15.7272 35.9985 15.9827 35.7431 15.9827 35.4275V26.2941C15.9827 26.257 15.979 26.2191 15.9715 26.182C15.9678 26.1649 15.9619 26.1493 15.9574 26.1337C15.9515 26.1144 15.947 26.0944 15.9396 26.0758C15.9314 26.0565 15.9203 26.0387 15.9106 26.0209C15.9025 26.0068 15.8965 25.9919 15.8876 25.9778C15.846 25.9154 15.7918 25.8612 15.7295 25.8196C15.7154 25.81 15.6998 25.8033 15.6849 25.7959C15.6671 25.7862 15.65 25.7751 15.6307 25.7677C15.6114 25.7595 15.5921 25.755 15.572 25.7498C15.5557 25.7454 15.5408 25.7387 15.5238 25.7357C15.4503 25.7209 15.3738 25.7209 15.3003 25.7357C15.2839 25.7387 15.2683 25.7454 15.2527 25.7498C15.2327 25.7558 15.2134 25.7602 15.1941 25.7684C15.1755 25.7766 15.1584 25.787 15.1406 25.7966C15.1258 25.8048 15.1102 25.8115 15.0961 25.8204C15.0649 25.8412 15.0352 25.8649 15.0084 25.8917L12.4875 28.4126C12.2573 28.6428 11.9068 28.6777 11.6365 28.5233L11.3863 28.2812C11.2333 28.0324 11.2452 27.7079 11.4353 27.4711L12.4266 26.2317C12.4266 26.2317 12.4266 26.231 12.4273 26.231L14.4382 23.7167C14.8696 23.1776 15.5119 22.8687 16.2017 22.8687H18.2668H20.3318C21.0216 22.8687 21.6647 23.1776 22.0953 23.7167L23.9495 26.035C23.9822 26.1404 24.0453 26.2377 24.1381 26.3119C24.1604 26.3298 24.1841 26.3454 24.2086 26.3595L25.0975 27.4703C25.2631 27.6767 25.2935 27.95 25.1977 28.1817L24.7938 28.5723C24.5421 28.6666 24.2473 28.6138 24.0453 28.4119L21.5243 25.8909C21.4976 25.8642 21.4686 25.8404 21.4367 25.8196C21.4226 25.81 21.407 25.8033 21.3922 25.7959C21.3743 25.7862 21.3573 25.7751 21.3379 25.7677C21.3186 25.7595 21.2993 25.755 21.2793 25.7498C21.2629 25.7454 21.2481 25.7387 21.231 25.7357C21.1857 25.7268 21.1397 25.7246 21.0929 25.7268C21.0847 25.7268 21.0766 25.7246 21.0684 25.7246C20.7528 25.7246 20.4974 25.98 20.4974 26.2956V35.429C20.4974 35.7446 20.7528 36 21.0684 36C21.0773 36 21.0855 35.9978 21.0936 35.9978C21.1026 35.9985 21.11 36 21.1189 36C21.4345 36 21.6899 35.7446 21.6899 35.429V27.6723L23.2366 29.219C23.5968 29.5792 24.0705 29.7596 24.5435 29.7596C25.0173 29.7596 25.4903 29.5792 25.8504 29.219C25.9551 29.1143 26.0427 28.9992 26.117 28.8782L27.3459 27.6894V35.4275C27.3459 35.7431 27.6014 35.9985 27.9169 35.9985C27.9259 35.9985 27.934 35.9963 27.9422 35.9963C27.9511 35.997 27.9585 35.9985 27.9674 35.9985C28.283 35.9985 28.5385 35.7431 28.5385 35.4275V26.2941C28.5385 26.0647 28.4018 25.8582 28.1902 25.7684C28.107 25.7335 28.0194 25.7194 27.9333 25.7246C27.9273 25.7246 27.9221 25.7231 27.9169 25.7231C27.6927 25.7231 27.5004 25.8538 27.4076 26.0417L26.2373 27.1733C26.1734 27.027 26.0903 26.8867 25.9863 26.7567L25.2482 25.8345L26.9457 23.7167C27.3771 23.1776 28.0194 22.8687 28.7092 22.8687H32.7086C34.1603 22.8687 35.341 24.0494 35.341 25.5011V29.7507C35.341 30.0477 35.0989 30.2898 34.8019 30.2898H34.1997V26.2941C34.1997 25.9785 33.9442 25.7231 33.6287 25.7231C33.3131 25.7231 33.0576 25.9785 33.0576 26.2941V30.8608V35.4275C33.0576 35.7431 33.3131 35.9985 33.6287 35.9985C33.9442 35.9985 34.1997 35.7431 34.1997 35.4275V31.4318H34.8019C35.7286 31.4318 36.483 30.6781 36.483 29.7514V25.5018C36.483 23.5816 35.0425 21.994 33.1861 21.7586ZM5.68349 17.7318C6.78023 17.7318 7.67204 18.628 7.67204 19.73C7.67204 20.8319 6.78023 21.7282 5.68349 21.7282C4.58674 21.7282 3.69493 20.8319 3.69493 19.73C3.69419 18.628 4.58674 17.7318 5.68349 17.7318ZM18.2415 17.7318C19.3383 17.7318 20.2301 18.628 20.2301 19.73C20.2301 20.8319 19.3383 21.7282 18.2415 21.7282C17.1448 21.7282 16.253 20.8319 16.253 19.73C16.253 18.628 17.1448 17.7318 18.2415 17.7318ZM30.7995 17.7318C31.8963 17.7318 32.7881 18.628 32.7881 19.73C32.7881 20.8319 31.8963 21.7282 30.7995 21.7282C29.7028 21.7282 28.811 20.8319 28.811 19.73C28.811 18.628 29.7035 17.7318 30.7995 17.7318Z" fill="#1A685B"/>
</svg>
