<svg width="34" height="36" viewBox="0 0 34 36" fill="none" xmlns="http://www.w3.org/2000/svg">
<path d="M9.48216 33.3642C9.5661 33.4073 9.65604 33.4274 9.74447 33.4274C9.76321 33.4274 9.7812 33.4252 9.79994 33.4237C9.81867 33.4259 9.83816 33.4274 9.85765 33.4274C9.94608 33.4274 10.0368 33.4073 10.1207 33.3642C10.2024 33.3226 12.175 32.2909 16.639 27.8624C19.197 25.3247 20.1623 22.3389 19.2876 19.6705C18.6663 17.7736 17.1374 16.371 15.3926 16.0975C12.3302 15.6173 10.739 17.0043 9.80143 18.4463C8.86383 17.0051 7.27268 15.6173 4.21029 16.0975C2.4655 16.3718 0.936551 17.7744 0.31523 19.6705C-0.559417 22.3389 0.405917 25.3247 2.9639 27.8624C7.42782 32.2909 9.40046 33.3226 9.48216 33.3642ZM1.41097 20.0236C1.89964 18.5318 3.06958 17.4332 4.39017 17.2258C6.70682 16.8616 8.17131 17.6495 9.28579 19.8615C9.28804 19.866 9.29104 19.869 9.29329 19.8734C9.30303 19.892 9.31502 19.9091 9.32701 19.9262C9.33676 19.9403 9.34575 19.9552 9.35624 19.9678C9.36823 19.9819 9.38173 19.9946 9.39522 20.008C9.40871 20.0213 9.4222 20.0355 9.43644 20.0474C9.44918 20.0578 9.46342 20.0667 9.47691 20.0756C9.4949 20.0875 9.51214 20.1001 9.53162 20.1098C9.53537 20.112 9.53912 20.115 9.54286 20.1172C9.55411 20.1232 9.5661 20.1254 9.57734 20.1306C9.59683 20.1388 9.61556 20.1462 9.63505 20.1522C9.65304 20.1574 9.67103 20.1611 9.68901 20.1648C9.70775 20.1685 9.72574 20.1722 9.74447 20.1737C9.76321 20.1752 9.78195 20.1759 9.79994 20.1752C9.81867 20.1752 9.83741 20.1752 9.85615 20.1737C9.87488 20.1722 9.89287 20.1685 9.91161 20.1648C9.9296 20.1611 9.94758 20.1581 9.96557 20.1522C9.98506 20.1462 10.0038 20.1388 10.0225 20.1306C10.0345 20.1254 10.0465 20.1232 10.0578 20.1172C10.0623 20.115 10.0653 20.112 10.0697 20.1098C10.0885 20.1001 10.1057 20.0882 10.123 20.0763C10.1372 20.0667 10.1514 20.0578 10.1649 20.0474C10.1792 20.0355 10.1927 20.0221 10.2054 20.0087C10.2189 19.9953 10.2331 19.9827 10.2451 19.9678C10.2556 19.9552 10.2646 19.9403 10.2744 19.9262C10.2864 19.9091 10.2983 19.8913 10.3081 19.8727C10.3103 19.8682 10.3133 19.8653 10.3156 19.8608C11.4301 17.6495 12.8946 16.8609 15.2112 17.2251C16.5325 17.4324 17.7017 18.531 18.1904 20.0228C18.9264 22.2676 18.063 24.8305 15.8228 27.0529C12.3219 30.5263 10.401 31.8479 9.79994 32.2233C9.1966 31.8464 7.27568 30.5241 3.77709 27.0529C1.53839 24.8312 0.675731 22.2691 1.41097 20.0236Z" fill="#1A685B"/>
<path d="M31.1197 6.85693H24.2057C23.8872 6.85693 23.6294 7.11263 23.6294 7.42853C23.6294 7.74443 23.8872 8.00012 24.2057 8.00012H31.1197C31.4383 8.00012 31.6961 7.74443 31.6961 7.42853C31.6961 7.11263 31.4375 6.85693 31.1197 6.85693Z" fill="#1A685B"/>
<path d="M31.1197 10.2856H24.2057C23.8872 10.2856 23.6294 10.5413 23.6294 10.8572C23.6294 11.1731 23.8872 11.4288 24.2057 11.4288H31.1197C31.4383 11.4288 31.6961 11.1731 31.6961 10.8572C31.6961 10.5413 31.4375 10.2856 31.1197 10.2856Z" fill="#1A685B"/>
<path d="M31.1197 13.7139H24.2057C23.8872 13.7139 23.6294 13.9696 23.6294 14.2855C23.6294 14.6014 23.8872 14.8571 24.2057 14.8571H31.1197C31.4383 14.8571 31.6961 14.6014 31.6961 14.2855C31.6961 13.9696 31.4375 13.7139 31.1197 13.7139Z" fill="#1A685B"/>
<path d="M29.9475 2.85723C29.7421 0 27.9591 0 26.5103 0H22.4774C21.0279 0 19.2449 0 19.0402 2.85723C16.8045 2.86391 14.9878 4.67012 14.9878 6.88886V13.1422C14.9878 13.4581 15.2456 13.7138 15.5641 13.7138C15.8827 13.7138 16.1405 13.4581 16.1405 13.1422V6.88886C16.1405 5.29597 17.4468 3.99967 19.053 3.99967H19.5971C19.9156 3.99967 20.1735 3.74398 20.1735 3.42808C20.1735 1.14244 20.896 1.14244 22.4781 1.14244H26.5111C28.0933 1.14244 28.8158 1.14244 28.8158 3.42808C28.8158 3.74398 29.0736 3.99967 29.3921 3.99967H29.9362C31.5424 3.99967 32.8487 5.29597 32.8487 6.88886V17.1426H20.7483C20.4298 17.1426 20.172 17.3983 20.172 17.7142C20.172 18.0301 20.4298 18.2858 20.7483 18.2858H32.848V22.8251C32.848 24.418 31.5416 25.7143 29.9355 25.7143H20.172C19.8534 25.7143 19.5956 25.97 19.5956 26.2859C19.5956 26.6018 19.8534 26.8575 20.172 26.8575H24.2049V35.4284C24.2049 35.7443 24.4628 36 24.7813 36C25.0998 36 25.3576 35.7443 25.3576 35.4284V26.8567H29.9347C32.1764 26.8567 33.9999 25.0483 33.9999 22.8251V6.88886C33.9999 4.67012 32.1832 2.86391 29.9475 2.85723Z" fill="#1A685B"/>
<path d="M27.086 2.85718H21.9003C21.5818 2.85718 21.324 3.11287 21.324 3.42877C21.324 3.74467 21.5818 4.00037 21.9003 4.00037H27.086C27.4045 4.00037 27.6624 3.74467 27.6624 3.42877C27.6624 3.11287 27.4045 2.85718 27.086 2.85718Z" fill="#1A685B"/>
</svg>
