<svg width="25" height="24" viewBox="0 0 25 24" fill="none" xmlns="http://www.w3.org/2000/svg">
<g clip-path="url(#clip0_1679_627)">
<path d="M5.44845 11.3643C5.44776 11.3559 5.44636 11.3482 5.44636 11.3398C5.44497 11.3524 5.44636 11.3601 5.44845 11.3643Z" fill="#FF5528"/>
<path d="M22.6668 13.694C22.6583 13.7278 22.6492 13.7623 22.6407 13.7968C22.6323 13.8313 22.6238 13.8665 22.6134 13.901C22.575 14.0396 22.5385 14.1803 22.5047 14.3202C22.4962 14.3554 22.4884 14.3899 22.4799 14.425C22.4708 14.4595 22.4617 14.494 22.4532 14.5279C22.4357 14.5963 22.4187 14.6633 22.4031 14.7297C22.3875 14.7961 22.3725 14.8612 22.3595 14.9244C22.353 14.9563 22.3465 14.9875 22.34 15.0181C22.3328 15.0487 22.3263 15.0787 22.3191 15.1079C22.2931 15.2258 22.2729 15.3345 22.2592 15.4315C22.2462 15.5285 22.2404 15.6131 22.2404 15.6802C22.2736 15.6248 22.3035 15.5656 22.3334 15.5057C22.3634 15.4458 22.3933 15.3846 22.4226 15.3221C22.4812 15.1971 22.5405 15.0682 22.5886 14.9341C22.6388 14.8007 22.6863 14.6653 22.7306 14.5305C22.7709 14.3944 22.8061 14.2577 22.8386 14.1249C22.8549 14.0585 22.8699 13.9921 22.8836 13.9277C22.8953 13.8626 22.9057 13.7981 22.9154 13.735C22.935 13.6087 22.9493 13.4882 22.9597 13.3763C22.9656 13.3203 22.9669 13.2656 22.9682 13.2129C22.9695 13.1608 22.9688 13.1107 22.9675 13.0631C22.9649 12.9681 22.9578 12.8841 22.946 12.8125C22.9063 12.903 22.8686 13.0085 22.8321 13.1237C22.8139 13.181 22.797 13.2415 22.7781 13.3034C22.7586 13.3652 22.739 13.429 22.7208 13.4941C22.7026 13.5586 22.6843 13.6256 22.6668 13.694Z" fill="#FF5528"/>
<path d="M0.409543 9.64404C0.398475 9.62125 0.38871 9.59977 0.378294 9.57764C0.36918 9.58935 0.358764 9.60107 0.348999 9.61279C0.354858 9.62711 0.356811 9.64795 0.367227 9.6538C0.376341 9.65901 0.394569 9.6486 0.409543 9.64404Z" fill="#FF5528"/>
<path d="M15.4673 0.708984C15.4165 0.732421 15.3651 0.758461 15.3149 0.78385C15.3709 0.784501 15.4269 0.78385 15.4823 0.787756C15.477 0.761065 15.4725 0.735025 15.4673 0.708984Z" fill="#FF5528"/>
<path d="M0.10351 12.0394C0.104161 12.0023 0.106114 11.9652 0.107416 11.9287C0.110671 11.8551 0.113926 11.7816 0.11653 11.7074C0.0794228 11.7021 0.0410134 11.6976 0.00325503 11.6924C0.00260403 11.7686 0.00130201 11.8454 0.000651006 11.9222L0 12.0374L0.00390604 12.152C0.0364564 12.1513 0.0716107 12.1507 0.104161 12.1507C0.104161 12.1136 0.104161 12.0765 0.10351 12.0394Z" fill="#FF5528"/>
<path d="M0.265015 14.3882C0.290404 14.4858 0.315793 14.5828 0.340531 14.6798C0.369827 14.672 0.398471 14.6642 0.427115 14.6557C0.402377 14.56 0.376988 14.463 0.352249 14.3667C0.323605 14.3745 0.29431 14.3817 0.265015 14.3882Z" fill="#FF5528"/>
<path d="M0.0755615 13.2944C0.0814206 13.3472 0.0807696 13.4018 0.0970447 13.4513C0.102904 13.4689 0.150427 13.4696 0.192743 13.4813C0.19079 13.4266 0.201857 13.3706 0.18428 13.327C0.174514 13.3048 0.113971 13.3042 0.0755615 13.2944Z" fill="#FF5528"/>
<path d="M4.87796 20.5088C4.83044 20.4769 4.78487 20.4424 4.738 20.4092C4.73539 20.4255 4.73279 20.4404 4.73083 20.4561C4.77641 20.488 4.82067 20.5225 4.86755 20.5524L5.00751 20.6442C5.10126 20.7047 5.19435 20.7659 5.2881 20.8265C5.29461 20.8141 5.30177 20.8024 5.30958 20.7894L5.02183 20.6025L4.87796 20.5088Z" fill="#FF5528"/>
<path d="M15.824 21.3247C15.8546 21.3879 15.9151 21.4354 16.0102 21.5363C16.0414 21.3169 16.0623 21.2342 16.0492 21.2284C15.99 21.2036 15.921 21.1906 15.8578 21.1939C15.8435 21.1952 15.8084 21.2935 15.824 21.3247Z" fill="#FF5528"/>
<path d="M21.6675 16.8136L21.6349 16.7974L21.6343 16.8371L21.6675 16.8136Z" fill="#FF5528"/>
<path d="M6.56346 0.920081C6.555 0.896645 6.54589 0.872557 6.53742 0.849121C6.4593 0.892088 6.38313 0.939611 6.30566 0.985181C6.31543 1.00211 6.32519 1.01968 6.33496 1.03726C6.41113 0.997551 6.48664 0.957188 6.56346 0.920081Z" fill="#FF5528"/>
<path d="M7.9774 0.472648L8.05031 0.44791L8.12453 0.426427L8.27296 0.38346C8.2671 0.36393 8.26124 0.343749 8.25538 0.324219L8.10109 0.355467L8.02427 0.371742L7.9468 0.390621C7.84524 0.416662 7.74369 0.442702 7.64148 0.468742C7.65515 0.503245 7.67077 0.5384 7.68575 0.572903C7.7834 0.539702 7.8804 0.506501 7.9774 0.472648Z" fill="#FF5528"/>
<path d="M3.24917 3.41096L3.3032 3.35497L3.35919 3.30159L3.47181 3.19482C3.45814 3.17985 3.44382 3.16488 3.4295 3.1499L3.30581 3.24886L3.24396 3.29898L3.18472 3.35106C3.10595 3.42137 3.02653 3.49168 2.94775 3.56134C2.97575 3.58608 3.00439 3.60951 3.03304 3.63425C3.10595 3.56004 3.17756 3.48517 3.24917 3.41096Z" fill="#FF5528"/>
<path d="M22.6857 11.674L22.7032 11.7098L22.7221 11.6733L22.6857 11.674Z" fill="#FF5528"/>
<path d="M4.78622 2.33996C4.87475 2.29439 4.9659 2.24557 5.05899 2.19414C5.15339 2.14466 5.25234 2.09714 5.35129 2.04571C5.40077 2.02032 5.4509 1.99428 5.50167 1.96824C5.52706 1.95522 5.5518 1.94155 5.57784 1.92918C5.60388 1.91681 5.62927 1.90444 5.65531 1.89272C5.75882 1.84324 5.86298 1.79312 5.96714 1.74234L6.04526 1.70393C6.0713 1.69156 6.098 1.68049 6.12469 1.66812C6.17742 1.64469 6.23015 1.6206 6.28223 1.59716C6.33431 1.57308 6.38639 1.54964 6.43847 1.5262C6.49055 1.50277 6.54068 1.47803 6.59341 1.4572C6.69692 1.41423 6.79848 1.37126 6.89743 1.32895C6.94691 1.30746 6.99508 1.28663 7.04326 1.26645C7.09143 1.24757 7.13961 1.22869 7.18583 1.21046C7.27892 1.17336 7.36811 1.1369 7.45274 1.1011C7.79322 0.967639 8.05687 0.852411 8.17666 0.769733C8.09203 0.683801 8.01195 0.611539 7.92212 0.589405C7.83293 0.569223 7.73397 0.598519 7.61419 0.711794C7.56927 0.754109 7.51979 0.791868 7.46706 0.82572C7.41433 0.860223 7.35965 0.894076 7.30236 0.924022C7.18843 0.983915 7.06669 1.03274 6.95081 1.07701C6.83689 1.12518 6.72231 1.1714 6.60708 1.21567C6.54979 1.23846 6.4912 1.25929 6.43457 1.28273L6.264 1.35564C6.15073 1.40446 6.0355 1.45134 5.92353 1.50342C5.8122 1.5581 5.70153 1.61344 5.59216 1.67203C5.06941 1.95717 4.57725 2.3009 4.11047 2.67653C4.23156 2.6264 4.37608 2.55675 4.53428 2.47212C4.61175 2.4272 4.69833 2.38618 4.78622 2.33996Z" fill="#FF5528"/>
<path d="M2.18672 4.4611C2.16849 4.44417 2.15026 4.42659 2.13203 4.40967C2.08125 4.48388 2.03438 4.56135 1.98621 4.63752C2.00248 4.64859 2.01876 4.659 2.03568 4.67007C2.08581 4.60041 2.13529 4.52945 2.18672 4.4611Z" fill="#FF5528"/>
<path d="M22.1518 8.03025C22.1615 8.09404 22.1733 8.16045 22.1856 8.22685C22.198 8.29325 22.2117 8.36226 22.226 8.43127C22.2331 8.46577 22.241 8.50027 22.2481 8.53543C22.2559 8.56993 22.2637 8.60508 22.2703 8.64024C22.2976 8.78151 22.3275 8.92408 22.3601 9.06404C22.3686 9.0992 22.3764 9.1337 22.3848 9.16886C22.392 9.20401 22.3992 9.23851 22.4063 9.27302C22.4206 9.34202 22.4363 9.40973 22.4512 9.47613C22.4669 9.54253 22.4825 9.60698 22.4988 9.67013C22.5066 9.70138 22.515 9.73263 22.5228 9.76257C22.53 9.79317 22.5372 9.82312 22.5443 9.85176C22.5736 9.96829 22.6036 10.0751 22.6348 10.1675C22.6661 10.2599 22.6986 10.3381 22.7279 10.398C22.7331 10.3329 22.7331 10.2671 22.7338 10.1994C22.7338 10.1323 22.7331 10.0633 22.7318 9.99433C22.7286 9.85567 22.724 9.71375 22.7071 9.57183C22.6928 9.42991 22.6745 9.28734 22.6537 9.14607C22.6296 9.0061 22.6003 8.86809 22.5697 8.73463C22.5541 8.66758 22.5385 8.60183 22.5222 8.53803C22.504 8.47423 22.4844 8.41174 22.4649 8.35119C22.4258 8.2301 22.3855 8.11553 22.3451 8.01072C22.3256 7.95798 22.3022 7.90851 22.28 7.86163C22.2579 7.81476 22.2351 7.76984 22.213 7.72818C22.1687 7.64485 22.1251 7.57324 22.0828 7.51465C22.088 7.6136 22.1003 7.72492 22.1192 7.84406C22.129 7.90525 22.1414 7.96645 22.1518 8.03025Z" fill="#FF5528"/>
<path d="M2.55908 19.3722C2.62483 19.4477 2.69059 19.5226 2.75634 19.5975C2.77847 19.5773 2.80126 19.5565 2.82274 19.5363C2.75829 19.4621 2.69254 19.3872 2.62809 19.313C2.6053 19.3332 2.58187 19.3534 2.55908 19.3722Z" fill="#FF5528"/>
<path d="M9.39338 22.7052C9.33674 22.6987 9.28076 22.689 9.22412 22.6812C9.22933 22.6968 9.23324 22.7118 9.23844 22.7267C9.29313 22.7345 9.34781 22.7443 9.40315 22.7495L9.5685 22.7671C9.67852 22.7782 9.78919 22.7892 9.89987 22.8003C9.89987 22.7866 9.90117 22.7723 9.90247 22.758L9.56264 22.7241L9.39338 22.7052Z" fill="#FF5528"/>
<path d="M24.0371 10.8468C24.0248 10.7602 24.0098 10.6743 23.9981 10.5884C23.9538 10.5949 23.9102 10.6014 23.8653 10.6079V10.7863C23.8653 10.8455 23.8653 10.9054 23.862 10.9647L23.8464 11.3208C23.8379 11.5577 23.8106 11.7934 23.7865 12.0278C23.7793 12.0883 23.7735 12.1495 23.7644 12.21L23.7364 12.391C23.7175 12.5115 23.6973 12.6319 23.6771 12.7523C23.668 12.8122 23.6544 12.8721 23.642 12.9314L23.6042 13.1097C23.5782 13.2282 23.5541 13.3473 23.5261 13.4652L23.4356 13.8174C23.405 13.9346 23.3764 14.0517 23.3406 14.167C23.2709 14.3981 23.2078 14.6311 23.1296 14.859L23.006 15.2346C22.961 15.3583 22.9142 15.4813 22.8679 15.6044L22.7976 15.7886C22.7748 15.8505 22.7475 15.9097 22.7221 15.9709L22.5665 16.3329C22.5411 16.3934 22.5125 16.4526 22.4838 16.5119L22.3986 16.689L22.3126 16.866L22.269 16.9546C22.254 16.9839 22.2384 17.0125 22.2228 17.0412C22.0978 17.2716 21.9767 17.504 21.838 17.726C21.7703 17.838 21.7026 17.95 21.633 18.0606L21.4142 18.3861L21.3036 18.5482C21.2658 18.6016 21.2261 18.6537 21.1877 18.7064C21.1096 18.8112 21.0314 18.9154 20.9527 19.0196C20.9143 19.0723 20.8713 19.1218 20.8303 19.1719L20.7053 19.3229L20.5796 19.4727L20.5165 19.5475L20.4508 19.6198C20.2743 19.8112 20.1012 20.0058 19.913 20.1849C19.8323 20.2643 19.7503 20.3424 19.6676 20.4192C19.5843 20.4954 19.497 20.567 19.4104 20.6399C19.3239 20.7122 19.2366 20.7831 19.1494 20.8534C19.0595 20.9212 18.9691 20.9876 18.8786 21.0533C18.7874 21.1191 18.6976 21.1855 18.6051 21.2486L18.3252 21.4322L18.1852 21.5233L18.1156 21.5689C18.0922 21.5839 18.0681 21.5975 18.0446 21.6125L17.7595 21.7844C17.5674 21.9048 17.3611 22.0044 17.1632 22.1151C17.0649 22.1711 16.9666 22.2264 16.8689 22.2818C16.7719 22.3384 16.6782 22.3976 16.5877 22.4627C16.5356 22.4992 16.4848 22.537 16.4314 22.5708C16.3781 22.604 16.3247 22.6366 16.2706 22.6685C16.1626 22.7316 16.0532 22.7908 15.9432 22.8462C15.8885 22.8748 15.8312 22.8983 15.7746 22.9217C15.7179 22.9451 15.6606 22.9679 15.604 22.9894C15.4894 23.0317 15.3749 23.0721 15.2577 23.1033C15.1398 23.1333 15.0214 23.1587 14.9029 23.1782C14.7837 23.1977 14.6659 23.2153 14.5442 23.2192C14.4237 23.2251 14.3026 23.2257 14.1816 23.2205C14.121 23.2179 14.0611 23.2146 14.0006 23.2081C13.94 23.201 13.8788 23.1919 13.8183 23.1821C13.718 23.1652 13.6119 23.1554 13.5104 23.1665C13.3971 23.1801 13.2825 23.186 13.1692 23.1925C13.0553 23.199 12.942 23.2042 12.8288 23.2094C12.7155 23.2133 12.6016 23.2114 12.4889 23.212C12.3757 23.2114 12.2637 23.2133 12.1511 23.2094L11.8145 23.1958L11.6472 23.1893C11.5912 23.188 11.5359 23.1821 11.4799 23.1788C11.2572 23.1619 11.0359 23.1528 10.8146 23.1307C10.0093 23.0662 9.21698 22.9302 8.44945 22.7186C8.08358 22.6177 7.72358 22.4998 7.37138 22.3651C7.2848 22.3202 7.19756 22.2759 7.11228 22.2284L6.81803 22.0611L6.67155 21.9784C6.62272 21.9517 6.5752 21.9204 6.52703 21.8918C6.33563 21.774 6.14228 21.6639 5.95544 21.5422C5.26603 21.1138 4.62023 20.6269 4.02976 20.0853C3.4393 19.5436 2.90483 18.946 2.44131 18.3015C2.36124 18.1902 2.27986 18.0593 2.16854 17.9949C2.11255 17.9617 2.05917 17.9259 2.00904 17.8881C1.96022 17.8484 1.91399 17.8067 1.87038 17.7625C1.78249 17.6746 1.70372 17.5782 1.63146 17.4773C1.56245 17.3738 1.49995 17.2651 1.44136 17.1544C1.41207 17.0991 1.38277 17.0431 1.35478 16.9871C1.32744 16.9305 1.30205 16.8725 1.27601 16.8146C1.22067 16.6909 1.15362 16.5731 1.08071 16.4416C1.0104 16.3081 0.931625 16.1629 0.845692 15.9898C0.842437 16.1629 0.826813 16.2222 0.84439 16.2671C0.951155 16.536 1.06703 16.8022 1.19268 17.0652C1.17185 17.0731 1.15101 17.0802 1.13018 17.088C1.16338 17.1564 1.19658 17.2254 1.22979 17.2937L1.27991 17.3966L1.33395 17.4975C1.35283 17.4871 1.37301 17.4767 1.39254 17.4663C1.57222 17.8074 1.77077 18.1401 1.99016 18.459C1.96542 18.463 1.93222 18.4773 1.90553 18.4831C1.93418 18.5274 1.95826 18.5762 1.99472 18.6127C2.00709 18.6251 2.0468 18.6062 2.08781 18.5964C2.11255 18.6309 2.13599 18.6654 2.16073 18.6993C2.65679 19.377 3.22317 20.0065 3.84944 20.5781C3.82925 20.5631 3.80972 20.5488 3.78889 20.5338C3.86246 20.6894 3.87548 20.7499 3.91128 20.7818C4.59093 21.3866 5.34024 21.9309 6.16702 22.3443C6.53354 22.5291 6.91047 22.6958 7.29586 22.8442C8.01783 23.1736 8.77365 23.4451 9.5542 23.6521C10.3549 23.865 11.1837 23.9796 12.0222 23.9965C12.862 24.0134 13.7148 23.9308 14.5526 23.7517C15.3905 23.5727 16.2134 23.298 16.9998 22.9386C17.7862 22.5793 18.5368 22.1353 19.2379 21.6216C20.0582 21.0182 20.801 20.3046 21.4507 19.5124C21.4924 19.4642 21.5308 19.4128 21.5705 19.362L21.6883 19.2097L21.8055 19.0567C21.8446 19.0059 21.8836 18.9551 21.9201 18.9017L22.1401 18.586L22.2488 18.4271L22.3523 18.2644L22.5568 17.9376C22.5913 17.8836 22.6225 17.8269 22.6544 17.7709L22.7495 17.603L22.8438 17.4344C22.8744 17.3777 22.9076 17.3224 22.9363 17.2644L23.1108 16.9194C23.1492 16.8413 23.1824 16.7619 23.2097 16.6785C23.2371 16.5959 23.2618 16.5125 23.2898 16.4299C23.2475 16.4155 23.2058 16.4012 23.1628 16.3862L23.0834 16.5451C23.0567 16.5978 23.0307 16.6512 23.0014 16.7026L22.8289 17.0125C22.7163 17.2202 22.5867 17.4174 22.4611 17.6153C22.4279 17.6661 22.3953 17.7182 22.3608 17.7677L22.2553 17.9161C22.202 17.991 22.1479 18.0645 22.0939 18.1388C22.31 17.795 22.5112 17.4415 22.6954 17.0789C23.1583 16.1629 23.5033 15.1845 23.7312 14.1787C23.7468 14.1162 23.7585 14.0524 23.7715 13.9892L23.8086 13.7991L23.8451 13.609C23.8568 13.5459 23.8698 13.4821 23.8783 13.4183L23.9343 13.0349L23.961 12.8428L23.9805 12.6501L24.017 12.2641C24.0235 12.1996 24.0267 12.1352 24.03 12.0707L24.0404 11.8774L24.0495 11.6834C24.0521 11.6189 24.0567 11.5545 24.0567 11.4894L24.0593 11.1014C24.0554 11.02 24.0495 10.9328 24.0371 10.8468ZM10.6538 23.6521C10.5926 23.6521 10.5307 23.6469 10.4702 23.6424C10.409 23.6372 10.3484 23.6313 10.2879 23.6241C10.1668 23.6092 10.047 23.5922 9.92853 23.5662C9.85302 23.5486 9.77815 23.5284 9.70394 23.5069C9.93569 23.5467 10.1681 23.5805 10.4025 23.6072C10.5542 23.6248 10.7065 23.6385 10.8588 23.6508C10.7905 23.6521 10.7221 23.6528 10.6538 23.6521Z" fill="#FF5528"/>
<path d="M1.33974 8.06811C1.32932 8.12149 1.31761 8.17422 1.30394 8.2263C1.2779 8.33111 1.24469 8.43332 1.21279 8.53683C1.18285 8.64034 1.14965 8.74385 1.11579 8.84671C1.09952 8.89879 1.08064 8.94957 1.06632 9.0023L1.02335 9.15984C0.99601 9.26531 0.967365 9.37012 0.948486 9.47753C0.930909 9.58495 0.917889 9.69237 0.911379 9.80108C0.908775 9.85512 0.90552 9.90915 0.908775 9.96384C0.911379 10.0185 0.916587 10.0732 0.923748 10.1279C0.938721 10.2373 0.960204 10.3466 0.998614 10.4547C1.03312 10.3395 1.07088 10.2255 1.10408 10.1123L1.15355 9.94235C1.17178 9.88572 1.18936 9.82973 1.20694 9.77374C1.22451 9.71776 1.24079 9.66112 1.25706 9.60513C1.27334 9.54914 1.28831 9.49251 1.30719 9.43717C1.34234 9.32585 1.37555 9.21388 1.40614 9.10256C1.42047 9.04527 1.44065 8.98928 1.45822 8.93264L1.51226 8.76403L1.56629 8.59607L1.62683 8.43007L1.68738 8.26471L1.71798 8.18203C1.72774 8.15469 1.74011 8.12735 1.75118 8.10066L1.88724 7.77645C2.07928 7.34939 2.29607 6.93666 2.54606 6.5467C2.7993 6.15936 3.07923 5.79284 3.38976 5.45952C3.46788 5.37685 3.54991 5.29742 3.63063 5.21735C3.67165 5.17829 3.71071 5.13728 3.75302 5.09952L3.88062 4.98754L4.00887 4.87752L4.07332 4.82284C4.07918 4.81763 4.08569 4.81307 4.0922 4.80852C4.07592 4.82544 4.05899 4.84172 4.04272 4.85864L3.84742 5.07478L3.74977 5.1835L3.65667 5.29612L3.46983 5.52202L3.29276 5.75638L3.20422 5.87421C3.17428 5.91327 3.14824 5.95494 3.11959 5.9953L2.95163 6.23943C2.92299 6.27979 2.8976 6.32211 2.87091 6.36377L2.79214 6.48942L2.71271 6.61571L2.673 6.67886L2.63589 6.74331C2.53759 6.91648 2.43473 7.08834 2.34555 7.26737C2.03176 7.86629 1.74662 8.49386 1.52528 9.15854C1.30459 9.82257 1.149 10.5217 1.09757 11.2379C1.08129 11.4026 1.07608 11.5692 1.07088 11.7378L1.06827 11.8641L1.06762 11.9273L1.07022 11.9904C1.07478 12.0744 1.08064 12.159 1.08975 12.243C1.09431 12.2847 1.09952 12.327 1.10538 12.3687C1.11189 12.4103 1.1171 12.452 1.12751 12.493C1.14639 12.5757 1.16853 12.657 1.19587 12.7371C1.21345 12.7879 1.23232 12.8387 1.25316 12.8882C1.26488 13.2312 1.28896 13.5756 1.33128 13.922C1.32542 13.9513 1.32086 13.9805 1.31956 14.0098C1.31891 14.045 1.32216 14.0788 1.32867 14.1107C1.35341 14.2175 1.3788 14.3243 1.40614 14.431C1.509 15.0241 1.6685 15.6146 1.90156 16.1809C1.96015 16.3352 2.02981 16.4863 2.10012 16.6386L2.15415 16.7525L2.18214 16.8092L2.21274 16.8645C2.25375 16.9374 2.29672 17.0097 2.34229 17.0806C2.36508 17.1158 2.38851 17.1509 2.41195 17.1854C2.43604 17.22 2.45947 17.2545 2.48681 17.2864C2.5402 17.3508 2.59683 17.4133 2.65608 17.4732C2.71597 17.5324 2.77781 17.5891 2.84617 17.6405C2.867 17.6555 2.88848 17.6691 2.90997 17.6835C3.0291 17.8573 3.15214 18.0285 3.28104 18.1958C3.28104 18.2082 3.28104 18.2192 3.28039 18.2323C3.27518 18.3006 3.28104 18.3761 3.29797 18.4484C3.30643 18.4842 3.3175 18.5194 3.33182 18.5519C3.34679 18.5838 3.36437 18.6125 3.3852 18.6372C3.4835 18.755 3.58181 18.8748 3.68532 18.9894C3.79078 19.1014 3.8982 19.2127 4.00691 19.3234C4.11889 19.4301 4.23281 19.5343 4.34739 19.6391C4.40403 19.6925 4.46457 19.74 4.52381 19.7901L4.70284 19.9386C4.7406 19.9685 4.78291 19.9939 4.83434 20.016C4.88577 20.0382 4.94371 20.0616 5.01011 20.0928C4.99254 20.0206 4.95803 19.9626 4.91702 19.9106C5.01662 19.9952 5.11688 20.0785 5.22039 20.1599C5.21909 20.1573 5.21779 20.154 5.21648 20.1514C5.21453 20.1501 5.21323 20.1495 5.21128 20.1488C5.21258 20.1488 5.21388 20.1482 5.21518 20.1475C5.16505 20.018 5.12209 19.8793 5.06805 19.7114C5.19891 19.6684 5.30046 19.5981 5.38509 19.6131C5.3916 19.6144 5.39877 19.617 5.40593 19.6189C5.45605 19.6723 5.49577 19.7322 5.52441 19.8005C5.54199 19.8396 5.55501 19.8826 5.56477 19.9268C5.53613 19.9718 5.49967 20.0154 5.46582 20.0466C5.40397 20.1046 5.30111 20.1169 5.21453 20.1475C5.21518 20.1488 5.21518 20.1501 5.21518 20.1514C5.34603 20.2087 5.47298 20.2907 5.60318 20.3363C5.60644 20.3519 5.60774 20.3682 5.61164 20.3832C5.63313 20.4633 5.66438 20.5368 5.70799 20.5987C5.79393 20.7243 5.91632 20.8259 6.0667 20.917C6.58099 21.2197 7.12133 21.4821 7.68315 21.7002C7.69877 21.708 7.71374 21.7158 7.72937 21.7236C7.78015 21.749 7.83223 21.775 7.88561 21.8017C7.93899 21.8271 7.99433 21.8506 8.04966 21.8759C8.16164 21.9254 8.27751 21.9756 8.39665 22.027C8.51709 22.0745 8.64208 22.1201 8.76968 22.1676C8.83348 22.191 8.89858 22.2151 8.96433 22.2373C9.03073 22.2581 9.09778 22.2789 9.16484 22.2998C9.23254 22.3206 9.3009 22.3414 9.3699 22.3622C9.43891 22.3831 9.50857 22.4046 9.57953 22.4215C9.7208 22.4573 9.86467 22.4925 10.0105 22.527L10.0652 22.54L10.1205 22.551C10.1576 22.5582 10.1941 22.5654 10.2312 22.5725C10.3054 22.5862 10.3803 22.6005 10.4545 22.6142C10.5293 22.6272 10.6049 22.6428 10.6804 22.6532C10.7559 22.663 10.8321 22.6734 10.9082 22.6832C10.9844 22.693 11.0606 22.7021 11.1374 22.7118C11.1758 22.7164 11.2142 22.7216 11.2526 22.7249L11.3678 22.7333C11.5215 22.745 11.6758 22.7548 11.8294 22.7639C11.983 22.7678 12.1373 22.7691 12.2903 22.7704C12.4433 22.7737 12.595 22.7639 12.746 22.7574C12.8964 22.7496 13.0461 22.7431 13.1926 22.7255C13.3391 22.7099 13.4843 22.6936 13.6262 22.676C13.7675 22.6532 13.9061 22.6298 14.0415 22.6057C14.1092 22.5927 14.1763 22.5823 14.242 22.5673C14.3078 22.5523 14.3722 22.5367 14.436 22.5224C14.5636 22.4918 14.6873 22.4625 14.8065 22.4293C14.9243 22.3941 15.0382 22.3583 15.1469 22.3232C15.201 22.305 15.2543 22.2874 15.3064 22.2705C15.3585 22.2535 15.408 22.232 15.4568 22.2138C15.5538 22.1754 15.6463 22.1377 15.7322 22.1005C15.7752 22.0817 15.8168 22.0634 15.8565 22.0459C15.8962 22.0276 15.934 22.0075 15.9705 21.9886C16.1156 21.9131 16.2354 21.8421 16.3259 21.7789C16.3715 21.7477 16.4086 21.7165 16.4385 21.6865C16.4685 21.6572 16.4906 21.6305 16.5043 21.6058C16.4431 21.6149 16.3838 21.6253 16.3253 21.6331C16.4151 21.5941 16.5049 21.5557 16.5948 21.5159C16.7341 21.4489 16.8715 21.3786 17.0082 21.3089C17.1462 21.2412 17.277 21.1624 17.4085 21.0869C17.5394 21.0108 17.6696 20.9359 17.7926 20.8526C17.9163 20.7712 18.0387 20.6898 18.1572 20.6091C18.1761 20.5948 18.1943 20.5811 18.2132 20.5674C18.1936 20.5941 18.1735 20.6221 18.1546 20.6521C18.2307 20.641 18.303 20.6254 18.3707 20.6058C18.4378 20.5857 18.4996 20.5603 18.5589 20.5336C18.6767 20.4789 18.7795 20.4125 18.8726 20.3396C18.9644 20.2647 19.0432 20.1801 19.1174 20.0941C19.1545 20.0512 19.1903 20.0069 19.2255 19.9626C19.2606 19.9184 19.2945 19.8741 19.327 19.8272C19.3023 19.8389 19.2776 19.8513 19.2522 19.8624L19.1754 19.8949C19.1246 19.9164 19.0732 19.9379 19.0211 19.96C18.9853 19.9757 18.9501 19.9919 18.915 20.0082C18.9781 19.9535 19.0406 19.8988 19.0998 19.8442C19.1897 19.7582 19.275 19.6742 19.3563 19.5922C19.3967 19.5512 19.4364 19.5108 19.4755 19.4718C19.5145 19.4327 19.549 19.3911 19.5842 19.352C19.6538 19.2732 19.719 19.1971 19.7795 19.1241C19.8094 19.0877 19.8381 19.0519 19.8661 19.018C19.8934 18.9835 19.9182 18.9484 19.9422 18.9145C20.0379 18.7798 20.1135 18.6619 20.1662 18.5636C20.1929 18.5148 20.2124 18.4692 20.2254 18.4295C20.2391 18.3898 20.2469 18.3553 20.2482 18.3273C20.1857 18.3729 20.1265 18.4185 20.0646 18.4595C20.0034 18.5005 19.9435 18.5408 19.8843 18.5806C19.8257 18.6196 19.7678 18.6574 19.7111 18.6951C19.6545 18.7322 19.5992 18.7693 19.5419 18.8025C19.314 18.938 19.1051 19.0669 18.8863 19.1808C18.8427 19.2036 18.8043 19.2771 18.7997 19.3286C18.7822 19.5278 18.6832 19.6742 18.5647 19.8051C18.5048 19.8702 18.441 19.9327 18.3753 19.9932C18.3082 20.0525 18.2418 20.1117 18.1813 20.1762C18.0973 20.2647 18.014 20.3298 17.9215 20.3539C17.8278 20.3773 17.7275 20.3637 17.6129 20.3005C17.5251 20.2517 17.4365 20.223 17.3486 20.2081C17.3044 20.2009 17.2608 20.197 17.2171 20.1964C17.1735 20.1957 17.1299 20.1983 17.0856 20.2016C17.0609 20.2035 17.0368 20.2081 17.0127 20.2113C17.2783 20.0401 17.5355 19.8546 17.7822 19.6554C17.6833 19.6964 17.5654 19.753 17.4365 19.822C17.3727 19.8578 17.3018 19.8917 17.2302 19.9288C17.1579 19.9659 17.0837 20.0056 17.0075 20.0473C16.9307 20.0876 16.85 20.1267 16.7692 20.1684C16.7289 20.1892 16.6879 20.2107 16.6469 20.2315C16.626 20.2419 16.6058 20.253 16.585 20.2634C16.5642 20.2732 16.5427 20.2836 16.5219 20.2934C16.4372 20.3337 16.3526 20.3747 16.2673 20.4164L16.2035 20.4476C16.182 20.4581 16.1606 20.4672 16.1391 20.4769C16.0961 20.4965 16.0531 20.5153 16.0102 20.5349C15.9679 20.5544 15.9249 20.5739 15.8826 20.5928C15.8403 20.6117 15.7992 20.6325 15.7563 20.6488C15.6716 20.684 15.589 20.7191 15.5082 20.7536C15.4679 20.7712 15.4282 20.7881 15.3898 20.805C15.35 20.8207 15.3116 20.8356 15.2732 20.8506C15.1971 20.8812 15.1241 20.9105 15.0558 20.9398C14.7785 21.0492 14.563 21.1429 14.4653 21.21C14.5343 21.2803 14.6001 21.3389 14.673 21.3571C14.7453 21.3734 14.8266 21.3493 14.9243 21.2575C14.9588 21.2249 14.9966 21.1963 15.0369 21.1696C14.9979 21.2002 14.9594 21.2458 14.9236 21.3089C14.9074 21.3369 14.8904 21.363 14.8729 21.3877C14.8703 21.3812 14.8677 21.3753 14.865 21.3688C14.7856 21.3962 14.7069 21.4235 14.6274 21.4502L14.5682 21.4704L14.5076 21.4879L14.3866 21.5231C14.3911 21.5394 14.3963 21.555 14.4009 21.5713L14.5265 21.5459L14.5897 21.5329L14.6515 21.5172C14.6997 21.5049 14.7479 21.4925 14.7967 21.4801C14.7316 21.5485 14.6593 21.5986 14.5793 21.6312C14.5116 21.6598 14.4399 21.678 14.3638 21.6898C14.3254 21.6956 14.2863 21.6995 14.2466 21.7021C14.2062 21.7054 14.1652 21.706 14.1222 21.7047C14.0376 21.7021 13.9478 21.7217 13.8605 21.7542C13.8169 21.7705 13.774 21.79 13.7329 21.8121C13.6919 21.8336 13.6529 21.859 13.6164 21.8818C13.5207 21.9437 13.4296 21.9918 13.3365 22.0088C13.2903 22.0172 13.2434 22.0179 13.1952 22.0081C13.1776 22.0042 13.1594 21.999 13.1412 21.9925C13.1223 21.9756 13.1034 21.9599 13.0832 21.945C13.0474 21.9183 13.0097 21.8948 12.9713 21.874C12.9329 21.8532 12.8932 21.8356 12.8521 21.818C12.8378 21.8122 12.8235 21.8076 12.8092 21.8024C13.1197 21.7724 13.4289 21.7249 13.7349 21.6618C13.6288 21.6527 13.4986 21.6487 13.3521 21.6514C13.2792 21.654 13.2011 21.6514 13.1204 21.652C13.0754 21.652 13.0299 21.6527 12.983 21.6533C12.9999 21.6305 13.0168 21.6084 13.0338 21.5863C12.9928 21.6071 12.9524 21.6286 12.9107 21.6461C12.9127 21.6487 12.9146 21.6514 12.9172 21.6546C12.901 21.6546 12.8853 21.6553 12.8691 21.6553C12.7825 21.6559 12.6933 21.6533 12.6022 21.6533C12.5566 21.6533 12.511 21.6533 12.4648 21.6533C12.442 21.6533 12.4186 21.654 12.3951 21.6533C12.3717 21.6527 12.3489 21.652 12.3255 21.6507C12.2324 21.6474 12.138 21.6448 12.0442 21.6429L11.9739 21.6416C11.9505 21.6409 11.9271 21.639 11.9036 21.6377C11.8567 21.6351 11.8099 21.6325 11.763 21.6299C11.7539 21.6292 11.7448 21.6292 11.7357 21.6286C11.735 21.6279 11.735 21.6279 11.7344 21.6273C11.6901 21.583 11.6452 21.5491 11.6009 21.5244C11.6569 21.5172 11.7122 21.5114 11.7676 21.5049C11.8385 21.4984 11.9088 21.4951 11.9798 21.4951C12.0149 21.4951 12.0501 21.4958 12.0853 21.4971C12.1204 21.4984 12.1556 21.4977 12.1907 21.4997C12.261 21.5016 12.3313 21.5062 12.4023 21.5127C12.4374 21.5159 12.4726 21.5192 12.5084 21.5231C12.5436 21.527 12.5794 21.529 12.6145 21.5322C12.6855 21.5381 12.7571 21.5452 12.8287 21.553L12.9361 21.5648C12.9719 21.5687 13.0077 21.57 13.0442 21.5732C13.0409 21.5771 13.0383 21.5817 13.0344 21.5863C13.0422 21.5823 13.05 21.5778 13.0585 21.5739L13.0494 21.5654C13.1379 21.5335 13.2408 21.5368 13.3436 21.5107C13.4459 21.4827 13.5474 21.4209 13.6255 21.2686C13.5656 21.2705 13.5103 21.2712 13.4582 21.2712C13.4322 21.2712 13.4068 21.2712 13.3827 21.2712C13.3586 21.2712 13.3345 21.2712 13.3111 21.2699C13.218 21.2666 13.1347 21.266 13.052 21.2725C13.011 21.2757 12.9693 21.2803 12.9277 21.2855C12.886 21.2894 12.8443 21.2933 12.8027 21.2979C12.7193 21.307 12.6354 21.318 12.552 21.3265C12.4687 21.3343 12.3854 21.335 12.3033 21.3324C12.2623 21.3311 12.2213 21.3278 12.1809 21.3232C12.1406 21.3187 12.1009 21.3115 12.0612 21.3005C11.7558 21.2204 11.4674 21.152 11.1751 21.1345C11.1022 21.1299 11.028 21.1299 10.9532 21.1345C10.9154 21.1377 10.8783 21.1397 10.8405 21.1429C10.8028 21.1462 10.765 21.1514 10.726 21.1572C10.6491 21.1696 10.5704 21.1872 10.4896 21.2113C10.4089 21.2334 10.3269 21.2601 10.241 21.2946C10.2611 21.1358 10.2253 21.0479 10.1609 20.9951C10.129 20.9697 10.0906 20.9509 10.0483 20.9352C10.1374 20.947 10.2266 20.9587 10.3152 20.973C10.3464 20.9782 10.3783 20.9815 10.4102 20.9847L10.5053 20.9951L10.6947 21.0166C10.7578 21.0257 10.821 21.0283 10.8841 21.0355C10.9473 21.042 11.0098 21.0492 11.0723 21.0583C11.3236 21.0895 11.5716 21.1377 11.8235 21.2243C11.8522 21.2347 11.8821 21.2412 11.9127 21.2451C11.9433 21.249 11.9746 21.2503 12.0065 21.249C12.0696 21.2464 12.1341 21.2393 12.1966 21.2373C12.5312 21.2308 12.8639 21.1839 13.1946 21.1332L13.4413 21.0863C13.5233 21.0707 13.606 21.057 13.6874 21.0375C13.7688 21.0192 13.8508 21.0023 13.9328 20.9854L13.9947 20.973L14.0558 20.9587L14.1782 20.9307L14.3091 20.9014L14.3748 20.8864C14.397 20.8812 14.4178 20.8747 14.4399 20.8695L14.699 20.7992L14.7641 20.7816C14.7856 20.7757 14.8071 20.7679 14.8286 20.7614L14.9568 20.7204L15.0851 20.6794L15.1495 20.6586C15.171 20.6514 15.1919 20.6429 15.2127 20.6351L15.4666 20.5407L15.5304 20.5166L15.5929 20.49L15.7179 20.4366L15.8429 20.3832C15.8637 20.3741 15.8845 20.3656 15.9054 20.3558L15.9666 20.3266L16.2126 20.2074C16.5362 20.0401 16.8558 19.8578 17.1572 19.6456L17.2712 19.5668C17.3096 19.5408 17.3454 19.5115 17.3825 19.4842L17.6032 19.3155C17.6754 19.257 17.7451 19.1964 17.8161 19.1365L17.9222 19.046C17.9567 19.0148 17.9905 18.9829 18.0244 18.951C18.096 18.8833 18.1683 18.8156 18.2392 18.7466L18.4449 18.5324C18.5146 18.4614 18.5784 18.3853 18.6441 18.3104C18.7092 18.2349 18.7769 18.1613 18.8375 18.0819L19.0237 17.8469C19.0842 17.7674 19.1422 17.6854 19.2014 17.604C19.2307 17.563 19.2606 17.5227 19.2893 17.4817L19.3726 17.356L19.4559 17.2297C19.4833 17.1874 19.5126 17.1464 19.538 17.1021L19.6949 16.8424L19.7346 16.7773L19.7717 16.7109L19.8452 16.5774C19.9468 16.401 20.0347 16.2168 20.1284 16.0338C20.1727 15.9414 20.2144 15.8476 20.258 15.7539L20.3224 15.6133L20.3823 15.47C20.422 15.3743 20.4637 15.2793 20.5021 15.1823C20.5392 15.0847 20.5763 14.987 20.6134 14.8893C20.6551 14.7871 20.6584 14.6732 20.6785 14.5632C20.6336 14.6726 20.5913 14.7813 20.5412 14.888C20.5301 14.9121 20.5197 14.9362 20.5086 14.9603L20.5913 14.6914C20.6225 14.5964 20.6447 14.4987 20.6707 14.4017C20.6948 14.3047 20.7228 14.2077 20.7417 14.1094L20.8035 13.8139C20.8218 13.7149 20.8367 13.6153 20.8537 13.5157C20.8615 13.4656 20.8706 13.4161 20.8777 13.366L20.896 13.2156L20.9142 13.0646C20.9201 13.0145 20.9279 12.9637 20.9311 12.9135L20.9559 12.6095L20.9617 12.5334L20.965 12.4572L20.9715 12.3042C20.9839 12.0998 20.9799 11.8954 20.9819 11.689C20.9799 11.5861 20.9754 11.4833 20.9728 11.3798L20.9682 11.2242L20.9578 11.0692C20.9507 10.9657 20.9454 10.8616 20.9363 10.7574C20.9259 10.6533 20.9155 10.5491 20.9051 10.4449C20.8966 10.3343 20.8491 10.2314 20.8179 10.124C20.8263 10.2425 20.8367 10.359 20.84 10.4775C20.8445 10.5953 20.8504 10.7118 20.8543 10.8277C20.8556 10.9436 20.8563 11.0595 20.8576 11.1754C20.8576 11.204 20.8589 11.2326 20.8582 11.2619V11.273C20.8537 11.204 20.8465 11.135 20.8374 11.066C20.8016 10.859 20.7521 10.6461 20.7098 10.3955L20.7788 10.4527C20.8126 10.2711 20.6844 10.4189 20.6785 10.2106L20.7495 10.1871C20.7143 10.1435 20.6974 10.1064 20.6903 10.0726C20.7625 9.94105 20.8309 9.81866 20.8009 9.71776C20.782 9.65005 20.769 9.583 20.7599 9.51529C20.7593 9.50878 20.7586 9.50227 20.758 9.49576C20.7586 9.49641 20.7599 9.49641 20.7612 9.49706C20.7599 9.49576 20.7593 9.49446 20.758 9.49316C20.7508 9.43327 20.7469 9.37272 20.741 9.31348C20.7306 9.17937 20.7326 9.04396 20.7384 8.9079C20.7391 8.63774 20.7547 8.35976 20.6955 8.09284C20.6089 7.6775 20.493 7.26737 20.3491 6.86505C20.3901 6.85788 20.4312 6.84226 20.4696 6.81882C20.5164 6.79018 20.549 6.74005 20.5822 6.67495C20.5959 6.72833 20.6102 6.78172 20.6238 6.83575C20.7182 7.24393 20.8185 7.6417 20.9572 8.03881C20.976 8.09024 20.993 8.14297 21.0092 8.19505C21.0255 8.24778 21.0411 8.30052 21.0522 8.35455C21.0756 8.46262 21.0958 8.57133 21.1141 8.68005C21.1342 8.78877 21.1447 8.89944 21.157 9.00946C21.1687 9.11948 21.1831 9.22885 21.1961 9.33822C21.2111 9.49121 21.243 9.63508 21.3074 9.76268C21.3413 9.82647 21.3764 9.88637 21.4246 9.9417C21.4728 9.99704 21.5307 10.0472 21.601 10.0921C21.6642 10.0784 21.7032 10.0758 21.7364 10.0615C21.7703 10.0472 21.8022 10.0244 21.8308 10.0003C21.8608 9.97425 21.8888 9.94756 21.9154 9.92087C21.9259 10.0146 21.935 10.1084 21.9421 10.2028L21.9532 10.3623C21.9558 10.4156 21.9565 10.469 21.9578 10.5224C21.9597 10.6292 21.9617 10.7359 21.9636 10.842L21.9649 10.9182C21.9259 10.8831 21.894 10.8629 21.8686 10.87C21.7338 10.9071 21.56 11.0282 21.5229 11.1441C21.4929 11.2366 21.5209 11.3134 21.5795 11.3668C21.6388 11.4201 21.726 11.4494 21.8191 11.4423C21.8634 11.439 21.9057 11.4195 21.9513 11.3889C21.948 11.4651 21.9441 11.5406 21.9369 11.6167C21.9265 11.7456 21.9154 11.8739 21.905 12.0028C21.892 12.131 21.8751 12.2593 21.8608 12.3875C21.8542 12.4468 21.9226 12.5171 21.9558 12.5835C21.974 12.5848 21.9929 12.5867 22.0118 12.588C22.0118 12.59 22.0118 12.5919 22.0118 12.5933C22.004 12.7625 22.019 12.9357 22.0137 13.1075C21.9832 13.5808 21.9552 14.0678 21.8328 14.5359C21.8197 14.5873 21.8061 14.6387 21.7918 14.6895C21.7768 14.7403 21.7625 14.7917 21.7436 14.8412C21.7078 14.9408 21.6694 15.0404 21.629 15.1387L21.5678 15.2865C21.547 15.3353 21.5229 15.3828 21.5008 15.431C21.4552 15.5267 21.4096 15.623 21.364 15.7187L21.3224 15.806L21.2768 15.8912L21.185 16.0612C21.1232 16.1738 21.0633 16.2877 20.9949 16.3971C20.9279 16.5071 20.8615 16.6165 20.7944 16.7265C20.7254 16.8352 20.6538 16.9413 20.5841 17.0487C20.5516 17.0989 20.5815 17.1926 20.5815 17.2675C20.6245 17.2942 20.6688 17.3215 20.7117 17.3482C20.8745 17.1399 21.0613 16.9452 21.1902 16.7115C21.2351 16.634 21.2788 16.5553 21.3211 16.4759C21.3361 16.4472 21.3504 16.4186 21.3647 16.3893C21.3556 16.4218 21.3471 16.4557 21.3393 16.4902C21.3224 16.5592 21.3087 16.6327 21.3002 16.7128C21.3634 16.6672 21.4207 16.6204 21.4728 16.5722C21.5235 16.5234 21.5678 16.4726 21.6082 16.4212C21.6889 16.3183 21.7514 16.2115 21.8015 16.1035C21.8497 15.9948 21.8829 15.8828 21.9109 15.7721C21.9246 15.7168 21.9369 15.6608 21.9486 15.6055C21.9604 15.5501 21.9708 15.4941 21.9792 15.4381C21.9623 15.4603 21.946 15.4824 21.9285 15.5039L21.8744 15.5683C21.8386 15.6113 21.8022 15.6543 21.7657 15.6972C21.6935 15.7838 21.6244 15.8737 21.5619 15.9713C21.5613 15.972 21.5613 15.9726 21.5613 15.9726L21.5821 15.9271L21.6082 15.8646L21.6603 15.7396C21.7286 15.5729 21.8022 15.4095 21.8666 15.2415C21.9005 15.1582 21.9343 15.0755 21.9701 14.9935L22.0242 14.8705C22.0411 14.8288 22.0587 14.7878 22.0762 14.7468C22.1225 14.64 22.1609 14.5319 22.1928 14.4239C22.2006 14.3965 22.2084 14.3698 22.2156 14.3425C22.2221 14.3152 22.2279 14.2878 22.2331 14.2598C22.2442 14.2051 22.254 14.1498 22.2624 14.0945C22.2794 13.9845 22.2917 13.8744 22.3002 13.7651C22.3047 13.6544 22.306 13.5444 22.3047 13.435C22.3041 13.3803 22.3028 13.3256 22.3015 13.2716L22.2989 13.1902C22.2976 13.1629 22.295 13.1355 22.293 13.1088C22.2839 13.0008 22.2755 12.8927 22.2663 12.7846C22.2618 12.7313 22.2579 12.6779 22.2533 12.6238C22.2501 12.5705 22.2423 12.5171 22.2377 12.4637C22.2273 12.3569 22.2182 12.2508 22.2123 12.1447C22.2123 12.1428 22.2104 12.1415 22.2084 12.1402C22.2305 12.0301 22.2475 11.9188 22.252 11.8062C22.2572 11.7163 22.2611 11.6259 22.2644 11.536C22.267 11.4455 22.2637 11.355 22.2624 11.2652L22.2553 10.9944L22.2533 10.9267L22.2488 10.859L22.2396 10.7236C22.2266 10.5432 22.2195 10.3636 22.2019 10.1845C22.1947 10.0947 22.1889 10.0055 22.1843 9.91566L22.1778 9.7809C22.1745 9.73598 22.1713 9.69172 22.1693 9.6468C22.1674 9.60643 22.1628 9.56672 22.1589 9.52701C22.1889 9.43717 22.2077 9.34473 22.2156 9.24968C22.2182 9.21518 22.2201 9.18068 22.2201 9.14617C22.2188 9.11167 22.2169 9.07717 22.2136 9.04201C22.2071 8.97235 22.196 8.90139 22.1817 8.83109C22.1674 8.76013 22.1498 8.68917 22.129 8.61755C22.1081 8.5466 22.0808 8.47564 22.0541 8.40468C22.0242 8.32656 21.9877 8.24388 21.961 8.1625C21.9473 8.12149 21.9376 8.08047 21.9291 8.04011C21.9207 8.0004 21.9167 7.96069 21.9194 7.92163C21.9252 7.83244 21.9259 7.74325 21.9233 7.65407C21.92 7.56553 21.9141 7.47699 21.8992 7.39041C21.8855 7.30382 21.8686 7.21724 21.849 7.13131C21.8393 7.08834 21.8289 7.04537 21.8178 7.00306L21.8009 6.93926C21.795 6.91843 21.7878 6.8976 21.7813 6.87611C21.7267 6.7088 21.6668 6.5428 21.601 6.37874C21.5314 6.21664 21.4604 6.05454 21.392 5.89179C21.2879 5.66589 21.1473 5.57085 20.9266 5.67305C20.9077 5.63464 20.8895 5.59623 20.8712 5.55717C20.8524 5.51876 20.8335 5.48101 20.8146 5.4426C20.7775 5.36643 20.7417 5.28961 20.7065 5.21279C20.6382 5.05785 20.5601 4.91007 20.4806 4.76425C20.4604 4.72779 20.4403 4.69199 20.4194 4.65618C20.3986 4.62038 20.3771 4.58522 20.3537 4.55137C20.3075 4.48367 20.2586 4.41726 20.2072 4.35346C20.1558 4.28967 20.1011 4.22847 20.0425 4.17053C19.982 4.11454 19.9175 4.06181 19.8485 4.01364C19.8257 4.10608 19.8283 4.1829 19.8648 4.23433C19.896 4.2773 19.926 4.32222 19.9559 4.36714C19.9859 4.41205 20.0152 4.45632 20.0438 4.50124C20.0724 4.54616 20.0998 4.59173 20.1252 4.6373C20.1506 4.68352 20.1747 4.72909 20.1929 4.77857C20.2306 4.87557 20.2554 4.97648 20.2606 5.08194C20.2651 5.18805 20.2521 5.29677 20.2046 5.41591C20.1825 5.47189 20.2248 5.55978 20.2528 5.62553C20.2736 5.67436 20.2931 5.72318 20.3127 5.77266L20.3413 5.84622L20.3667 5.92174C20.3999 6.02199 20.4318 6.1229 20.4624 6.2238C20.4728 6.2557 20.4819 6.28891 20.491 6.32146C20.3791 6.27979 20.2938 6.25115 20.2606 6.28174C20.2287 6.31104 20.1968 6.3501 20.1688 6.39242C20.0568 6.1242 19.9318 5.86119 19.7945 5.6047C19.8127 5.57996 19.8277 5.55197 19.84 5.52332C19.8726 5.44585 19.896 5.37034 19.9116 5.29612C19.9195 5.25901 19.9253 5.22256 19.9292 5.1861C19.9325 5.1503 19.9331 5.11514 19.9325 5.07999C19.9312 4.9934 19.9175 4.90942 19.896 4.8274C19.924 4.84237 19.9527 4.85864 19.9839 4.87817C19.965 4.75644 19.9338 4.64642 19.896 4.54616C19.8576 4.44591 19.8146 4.35346 19.7606 4.27209C19.7085 4.18941 19.6519 4.11389 19.5933 4.04033C19.564 4.00387 19.5347 3.96807 19.5054 3.93226C19.4742 3.89776 19.4436 3.86391 19.413 3.8294C19.3563 3.76626 19.2932 3.70506 19.234 3.64257C19.204 3.61132 19.176 3.57877 19.1487 3.54622C19.1207 3.51432 19.0953 3.48177 19.0738 3.44726C18.9859 3.30925 18.9527 3.14455 19.051 2.91344C19.0679 2.87308 19.0419 2.793 19.0074 2.75459C18.9286 2.66606 18.8518 2.57231 18.773 2.48117C18.6923 2.39198 18.6064 2.3093 18.5152 2.23639C18.3343 2.08861 18.1136 2.00268 17.8447 2.03458C17.8004 2.04044 17.7581 2.04434 17.7178 2.045C17.6767 2.0463 17.6377 2.04369 17.6006 2.03458C17.585 2.03067 17.57 2.02547 17.555 2.01896C17.5348 2.00594 17.5146 1.99487 17.4945 1.9851C17.4626 1.96102 17.4326 1.92847 17.4046 1.8855C17.3597 1.81649 17.2608 1.76767 17.1748 1.75074C17.083 1.73056 16.9958 1.70647 16.9105 1.67848C16.8259 1.65049 16.7445 1.61728 16.6625 1.58539C16.5811 1.55218 16.5023 1.51573 16.4255 1.47667C16.3871 1.45714 16.3487 1.4363 16.3109 1.41482C16.2732 1.39334 16.2348 1.37446 16.197 1.35298C16.1215 1.31066 16.0466 1.26639 15.9731 1.21952C15.936 1.19608 15.8995 1.17265 15.863 1.14791C15.8266 1.12382 15.7888 1.10169 15.7517 1.07825C15.6775 1.03138 15.6033 0.983205 15.5291 0.934379L15.4178 0.860815C15.3806 0.836728 15.3422 0.813943 15.3045 0.790507C15.3103 0.787903 15.3162 0.784648 15.3221 0.781393C15.311 0.781393 15.3006 0.781393 15.2895 0.781393L15.2947 0.795715C15.1808 0.780091 15.0701 0.718896 14.9438 0.689601C14.8169 0.66291 14.6723 0.672675 14.5037 0.795064C14.5701 0.826963 14.6313 0.85756 14.688 0.886856C14.7166 0.901178 14.744 0.9155 14.7707 0.929171C14.7973 0.942842 14.8234 0.956513 14.8481 0.970835C14.9477 1.02682 15.0382 1.075 15.1326 1.11406C15.1795 1.13359 15.227 1.15182 15.2752 1.17004C15.3227 1.18957 15.3702 1.20845 15.4184 1.22668C15.436 1.23319 15.4542 1.24035 15.4718 1.24686C15.4868 1.26574 15.503 1.28202 15.5226 1.29243C15.5701 1.31652 15.6163 1.34256 15.6625 1.36925C15.7088 1.39529 15.755 1.42133 15.8005 1.44867C15.8461 1.47537 15.891 1.50336 15.934 1.53265C15.977 1.5626 16.0193 1.5919 16.057 1.62705C16.1339 1.69671 16.2009 1.77483 16.2523 1.86662C16.2855 1.92651 16.3116 1.99226 16.3298 2.06518C16.1833 1.97599 16.0356 1.89071 15.8845 1.80998C15.8949 1.81063 15.9047 1.81063 15.9158 1.81194C15.8442 1.71168 15.768 1.62835 15.6899 1.55609C15.6111 1.48448 15.5317 1.42198 15.4477 1.37381C15.3644 1.32433 15.2797 1.28267 15.1958 1.24426C15.1534 1.22538 15.1111 1.2065 15.0695 1.18827C15.0265 1.172 14.9835 1.15572 14.9412 1.13945C14.8624 1.1095 14.7791 1.08411 14.6984 1.05482C14.658 1.04049 14.6183 1.02487 14.5799 1.00794C14.5408 0.992319 14.5037 0.974741 14.4686 0.953909C14.3286 0.871231 14.2264 0.739728 14.2108 0.48844C14.2082 0.444171 14.1489 0.38493 14.1014 0.366702C13.9914 0.323735 13.882 0.275561 13.7707 0.231292C13.6594 0.188977 13.5461 0.154474 13.4322 0.131688C13.4309 0.131688 13.4296 0.131037 13.4283 0.131037C13.4211 0.123225 13.4146 0.11346 13.4061 0.106299C13.3358 0.0477086 13.2343 0.0281784 13.0767 0.0730978C13.0181 0.090024 12.9569 0.101091 12.8951 0.10695C12.8326 0.11346 12.7688 0.118668 12.705 0.118668C12.5768 0.11997 12.4466 0.10695 12.3229 0.093279C12.1998 0.0841649 12.0774 0.0717958 11.9551 0.0587757C11.8939 0.0529166 11.8327 0.0444536 11.7708 0.0392455L11.5866 0.0255744C11.4635 0.0171113 11.3405 0.00604418 11.2168 0.000185123C11.0938 -0.0024189 10.9701 -0.00372091 10.8464 -0.0024189C10.2533 0.0112522 9.66155 0.090675 9.07825 0.21046C9.20845 0.221527 9.36795 0.226084 9.54763 0.22348C9.63682 0.220225 9.73252 0.22348 9.83147 0.222829C9.88615 0.222829 9.94279 0.222178 9.99943 0.221527C9.9786 0.24887 9.95776 0.276212 9.93758 0.304205C9.98771 0.278816 10.0378 0.252776 10.088 0.230641C10.0854 0.227386 10.0828 0.224131 10.0802 0.220225C10.0997 0.219574 10.1192 0.219574 10.1394 0.218923C10.2455 0.218272 10.3549 0.221527 10.4662 0.220876C10.5215 0.220876 10.5782 0.220876 10.6348 0.220876C10.6628 0.220876 10.6914 0.220225 10.7201 0.220876C10.7487 0.222178 10.7767 0.222829 10.8054 0.224131C10.9199 0.228037 11.0352 0.231292 11.1504 0.233245L11.237 0.235198C11.2656 0.235849 11.2949 0.238453 11.3236 0.239755C11.3809 0.24301 11.4388 0.246265 11.4961 0.249521C11.5534 0.252125 11.61 0.25538 11.6667 0.257984C11.7233 0.261239 11.7793 0.26189 11.8353 0.267749C11.9466 0.276863 12.0566 0.285977 12.1634 0.293138C12.2168 0.297044 12.2695 0.300299 12.3209 0.304205C12.3723 0.309413 12.4231 0.314621 12.4733 0.319829C12.5234 0.325037 12.5729 0.329594 12.621 0.3335C12.5898 0.349775 12.5585 0.363447 12.5266 0.371259C12.4531 0.389487 12.3756 0.381024 12.2858 0.328292C12.2148 0.287279 12.1048 0.289232 12.0208 0.314621C11.9303 0.338708 11.8411 0.357588 11.7532 0.37191C11.6654 0.385581 11.5781 0.393393 11.4909 0.403158C11.4036 0.41097 11.3171 0.414876 11.2311 0.415527C11.1882 0.415527 11.1452 0.414876 11.1016 0.413574C11.0586 0.411621 11.0156 0.412272 10.972 0.41097C10.8861 0.408366 10.7995 0.403158 10.7129 0.395346C10.67 0.39144 10.6263 0.387534 10.5827 0.382326C10.5391 0.377769 10.4961 0.375165 10.4525 0.371259C10.3653 0.364098 10.2781 0.354984 10.1902 0.345218L10.058 0.330896C10.0137 0.326339 9.97013 0.324386 9.92586 0.32048C9.93042 0.315272 9.93367 0.310064 9.93758 0.304205C9.92782 0.309413 9.91805 0.31397 9.90829 0.319178L9.91935 0.329594C9.81064 0.368655 9.68499 0.364098 9.5587 0.396648C9.4337 0.431151 9.30936 0.506668 9.21301 0.693507C9.28658 0.691554 9.35428 0.690903 9.41808 0.690252C9.44998 0.690252 9.48057 0.690252 9.51052 0.689601C9.54047 0.68895 9.56976 0.689601 9.59776 0.690903C9.71168 0.694809 9.81389 0.696111 9.91545 0.687648C9.96623 0.683742 10.017 0.677883 10.0678 0.671373C10.1186 0.666816 10.17 0.661607 10.2208 0.655748C10.323 0.64403 10.4258 0.63101 10.528 0.620594C10.6303 0.61148 10.7325 0.610178 10.8334 0.613433C10.8835 0.615386 10.9336 0.619292 10.9831 0.625151C11.0326 0.63101 11.0814 0.638822 11.1296 0.653144C11.5033 0.751446 11.8574 0.835426 12.2161 0.856909C12.3059 0.862117 12.3964 0.862768 12.4882 0.856909C12.5344 0.853003 12.58 0.850399 12.6262 0.846493C12.6725 0.842587 12.7193 0.836728 12.7662 0.828916C12.8606 0.813943 12.9569 0.791809 13.0559 0.762513C13.1549 0.735171 13.2558 0.702621 13.3606 0.660956C13.3352 0.855607 13.3795 0.963023 13.4589 1.02747C13.4979 1.05872 13.5455 1.08216 13.5969 1.10104C13.4875 1.08606 13.3781 1.07174 13.2694 1.05482C13.231 1.04831 13.192 1.0444 13.1529 1.04049L13.0364 1.02812L12.804 1.00208C12.7271 0.991017 12.649 0.987762 12.5716 0.978647C12.4941 0.970835 12.4173 0.961721 12.3404 0.950654C12.0325 0.912896 11.7285 0.853654 11.4193 0.74754C11.3841 0.735171 11.347 0.727359 11.3093 0.722151C11.2715 0.716943 11.2331 0.715641 11.194 0.717594C11.1166 0.720849 11.0371 0.729963 10.9603 0.731916C10.5502 0.740379 10.142 0.797668 9.73707 0.860164L9.43435 0.917453C9.33345 0.936332 9.23254 0.953258 9.13294 0.976694C9.03268 0.998829 8.93243 1.02031 8.83217 1.04049L8.75666 1.05547L8.68179 1.07369L8.53141 1.1082L8.37126 1.144L8.29119 1.16223C8.26449 1.16809 8.23845 1.17655 8.21176 1.18306L7.89407 1.26965L7.81465 1.29113C7.78796 1.29829 7.76192 1.30741 7.73588 1.31587L7.57833 1.366L7.42079 1.41677L7.34202 1.44216C7.31598 1.45128 7.28994 1.46104 7.26455 1.47081L6.95337 1.58669L6.87525 1.61598L6.79843 1.64853L6.64544 1.71363L6.4918 1.77939C6.46642 1.79045 6.44038 1.80087 6.41499 1.81259L6.34012 1.84904L6.0387 1.99487C5.64224 2.19994 5.25034 2.42323 4.88122 2.68363L4.74125 2.77998C4.69438 2.81188 4.65076 2.84769 4.60519 2.88089L4.33437 3.08791C4.24583 3.15952 4.1599 3.23373 4.07332 3.3073L3.94312 3.41862C3.9008 3.45703 3.85979 3.49609 3.81812 3.53515C3.73024 3.61848 3.64105 3.70116 3.55512 3.78579L3.30253 4.04879C3.21659 4.13538 3.13912 4.22912 3.0584 4.32091C2.97897 4.41336 2.89565 4.50385 2.82143 4.60085L2.59293 4.88859C2.51871 4.98624 2.44775 5.0865 2.37549 5.1861C2.33969 5.23623 2.30323 5.2857 2.26743 5.33648L2.16522 5.49077L2.06301 5.64506C2.02916 5.69714 1.99335 5.74727 1.9621 5.8013L1.76941 6.11964L1.72123 6.19972L1.67631 6.28109L1.58582 6.4445C1.46083 6.66128 1.35406 6.88718 1.23883 7.11113C1.1848 7.2244 1.13337 7.33963 1.07999 7.45421L1.00057 7.62672L0.927654 7.80184C0.879479 7.91902 0.82805 8.03621 0.781177 8.15469C0.735607 8.27447 0.690037 8.39361 0.645117 8.51339C0.594339 8.63904 0.589782 8.77835 0.565694 8.91311C0.62103 8.77901 0.67311 8.64555 0.734305 8.5147C0.747976 8.48475 0.760996 8.45545 0.774016 8.42551L0.672459 8.75492C0.634701 8.87145 0.606708 8.99123 0.575459 9.10972C0.545513 9.22885 0.511661 9.34733 0.488876 9.46842L0.413359 9.83038C0.390574 9.95147 0.372345 10.0739 0.351513 10.1962C0.341748 10.2574 0.331332 10.3186 0.322218 10.3798L0.299433 10.5647L0.276648 10.7496C0.269486 10.8114 0.260372 10.8733 0.256466 10.9351L0.22652 11.3082L0.218708 11.4019L0.214802 11.4957L0.20699 11.6831C0.192017 11.9338 0.196574 12.1844 0.19397 12.4377C0.195923 12.564 0.201782 12.6896 0.205037 12.8165L0.210896 13.0073L0.223916 13.1974C0.23303 13.3243 0.238889 13.4519 0.249956 13.5795C0.262325 13.7071 0.275346 13.8347 0.287715 13.9623C0.298131 14.0977 0.356721 14.224 0.39448 14.3555C0.384064 14.2104 0.371043 14.0671 0.367788 13.9226C0.36258 13.7781 0.354768 13.6355 0.350862 13.4929C0.34956 13.351 0.348258 13.2085 0.346956 13.0665C0.346956 13.0314 0.345654 12.9962 0.346305 12.9604L0.348909 12.8543L0.354117 12.6434L0.359325 12.4338L0.371694 12.2241L0.384064 12.0158L0.389923 11.9123L0.399688 11.8088L0.438748 11.3967L0.493433 10.9885C0.573506 10.4475 0.684828 9.91696 0.828701 9.40072C0.976479 8.88512 1.16006 8.38515 1.37685 7.906C1.36253 7.96264 1.35016 8.01472 1.33974 8.06811ZM15.1736 21.0817C15.2667 21.0329 15.3657 20.9932 15.4607 20.9567C15.5532 20.917 15.6469 20.8799 15.7407 20.8435C15.7875 20.8246 15.835 20.8076 15.8819 20.7888L16.0212 20.7295C16.0766 20.7054 16.1326 20.682 16.1885 20.6579C16.1638 20.6957 16.1404 20.7328 16.1202 20.7686C16.0714 20.8545 16.2224 21.057 16.2784 21.2087C16.2901 21.2432 16.2842 21.2835 16.2868 21.3213C16.1736 21.4228 16.0857 21.499 16.0121 21.5498C15.9757 21.5758 15.9418 21.5934 15.9106 21.6051C15.8793 21.6168 15.8507 21.6221 15.8227 21.6214C15.7114 21.6175 15.6163 21.5146 15.4477 21.3063C15.3507 21.1872 15.2557 21.1221 15.1678 21.1201C15.1359 21.1201 15.104 21.1266 15.0727 21.1423C15.1046 21.1201 15.1385 21.0999 15.1736 21.0817ZM11.582 22.4443C11.6009 22.4456 11.6211 22.4469 11.64 22.4482C11.64 22.4488 11.6393 22.4495 11.6387 22.4501C11.4928 22.4885 11.3802 22.5159 11.2917 22.5276C11.2474 22.5341 11.2096 22.5341 11.1764 22.5302C11.1432 22.5263 11.1153 22.5178 11.0912 22.5042C11.0436 22.4775 11.0098 22.4313 10.9811 22.3603C10.9883 22.3616 10.9942 22.3636 11.0013 22.3649C11.0462 22.374 11.0977 22.3818 11.1556 22.3909C11.2734 22.4078 11.416 22.4274 11.582 22.4443ZM10.918 21.5283C10.9779 21.5133 11.041 21.5205 11.1146 21.5635C11.1289 21.5719 11.1452 21.5778 11.1628 21.5823C11.1608 21.5843 11.1595 21.5863 11.1582 21.5882C11.1341 21.5863 11.11 21.5849 11.086 21.583C11.0436 21.5784 11.0026 21.5745 10.9616 21.57C10.9206 21.5661 10.8809 21.5622 10.8412 21.5589C10.8666 21.5459 10.892 21.5348 10.918 21.5283ZM10.7728 21.7347C10.8685 21.734 10.9649 21.7431 11.0573 21.7529C11.0495 21.7705 11.0423 21.7881 11.0358 21.8069C10.9922 21.9306 10.9616 22.0576 10.9291 22.1858C10.9186 22.1448 10.9082 22.1005 10.8978 22.0498C10.864 21.8987 10.8086 21.7965 10.7305 21.7549C10.7168 21.7477 10.7019 21.7425 10.6869 21.7386C10.7155 21.736 10.7442 21.7347 10.7728 21.7347ZM5.60839 16.3443C5.60448 16.3216 5.60058 16.2994 5.59602 16.2766C5.59862 16.276 5.60058 16.2747 5.60318 16.274C5.63052 16.3085 5.65787 16.343 5.68521 16.3776C5.67284 16.3841 5.66047 16.3906 5.64875 16.3977L5.60839 16.3443ZM5.46321 8.81286L5.47168 8.82067L5.46061 8.81937C5.46191 8.81741 5.46256 8.81481 5.46321 8.81286ZM5.21062 10.0127C5.28679 10.0114 5.34864 10.0055 5.39811 9.99508C5.44759 9.98467 5.4847 9.97035 5.51464 9.95277C5.57323 9.91696 5.59342 9.86619 5.59472 9.80434C5.59472 9.73664 5.56607 9.65786 5.60123 9.60188C5.62076 9.57258 5.63834 9.54263 5.65591 9.51269C5.64615 9.54459 5.63638 9.57649 5.62727 9.60839L5.67414 9.56868C5.65461 9.63833 5.63768 9.7132 5.62076 9.78937C5.60709 9.86619 5.59407 9.94431 5.5804 10.0198C5.5498 10.1702 5.52897 10.3134 5.4834 10.4176C5.43652 10.5224 5.44824 10.6461 5.46777 10.7522C5.48665 10.8583 5.5166 10.9469 5.51855 10.9892C5.54264 11.1103 5.5205 11.2222 5.49511 11.2932C5.47754 11.3479 5.45605 11.3765 5.44889 11.3635C5.46777 11.6141 5.5843 11.8452 5.55956 12.1883C5.53287 12.2209 5.53157 12.297 5.54329 12.3927C5.55761 12.4884 5.58821 12.6024 5.6162 12.713C5.66112 12.8745 5.70864 13.0249 5.70539 13.1017C5.69107 13.0997 5.67674 13.0984 5.66177 13.0965C5.55826 13.0802 5.46777 13.0789 5.38705 13.0893C5.36166 13.0034 5.33822 12.9175 5.31609 12.8315C5.2946 12.741 5.27377 12.6505 5.25229 12.56C5.23536 12.4683 5.21909 12.3771 5.20216 12.286C5.18328 12.1948 5.17482 12.1024 5.1618 12.0099L5.14357 11.8719C5.13966 11.8492 5.13836 11.8257 5.13641 11.8023L5.1312 11.7326C5.12013 11.6578 5.10907 11.5842 5.0967 11.5119C5.08954 11.4761 5.08758 11.4403 5.08238 11.4045C5.07782 11.3694 5.07326 11.3342 5.06871 11.2997C5.05959 11.2307 5.04787 11.163 5.03876 11.0966C5.03095 11.0308 5.02313 10.9664 5.01337 10.9032C5.02379 10.8525 5.0329 10.7971 5.04201 10.7385C5.05373 10.6799 5.0648 10.6181 5.07587 10.553C5.08107 10.5204 5.08628 10.4866 5.09149 10.4527C5.09735 10.4189 5.09995 10.3831 5.10777 10.3479C5.12144 10.277 5.13381 10.2028 5.14683 10.1266C5.15334 10.0882 5.15854 10.0498 5.1657 10.0101C5.17352 9.971 5.18198 9.93128 5.19044 9.89092C5.1937 9.87465 5.19695 9.85772 5.20021 9.84145C5.20216 9.89418 5.20151 9.94951 5.21062 10.0127ZM5.3226 15.2454C5.33887 15.2936 5.3558 15.3451 5.37468 15.4017C5.35059 15.39 5.32976 15.3783 5.31088 15.3652L5.28484 15.3242L5.21258 15.1992L5.14032 15.0742C5.13901 15.0723 5.13771 15.0697 5.13641 15.0677C5.13641 15.0671 5.13576 15.0658 5.13576 15.0651C5.1286 15.0261 5.12144 14.9883 5.10777 14.9525C5.12274 14.9473 5.13706 14.9414 5.15203 14.9362C5.20737 15.0404 5.26336 15.1439 5.3226 15.2454ZM4.18464 10.1051C4.18334 10.1578 4.17357 10.2099 4.15469 10.2633C4.1625 10.1813 4.17097 10.0992 4.17943 10.0166C4.18334 10.0459 4.18529 10.0752 4.18464 10.1051ZM4.15404 11.2665C4.1599 11.2645 4.16706 11.2626 4.17292 11.2606C4.17943 11.8999 4.26015 12.5386 4.40533 13.1622C4.36497 12.9376 4.33177 12.7293 4.32786 12.5425C4.39296 12.9025 4.48345 13.2579 4.59542 13.6069C4.55897 13.5899 4.52121 13.5724 4.48345 13.5535C4.37734 13.215 4.29205 12.868 4.23021 12.5158C4.16055 12.0978 4.13907 11.6792 4.15404 11.2665ZM2.74917 12.9194C2.75047 12.8471 2.75177 12.7749 2.75177 12.7039C2.75242 12.6323 2.75047 12.562 2.75438 12.4904C2.75763 12.3934 2.75698 12.2977 2.75698 12.202C2.75568 12.1545 2.75959 12.1069 2.76284 12.0594C2.7661 12.0119 2.77065 11.9644 2.77586 11.9175C2.78172 11.8706 2.78823 11.8238 2.79734 11.7769C2.80581 11.7307 2.82078 11.6838 2.8364 11.6382C2.8683 11.5464 2.90997 11.4566 2.96661 11.37C2.96791 11.3674 2.96921 11.3655 2.97051 11.3628C2.97181 11.3765 2.97246 11.3908 2.97377 11.4045C2.97702 11.4481 2.98093 11.4917 2.98418 11.5354C2.98679 11.579 2.9933 11.6226 2.9972 11.6662C3.00567 11.7535 3.01283 11.84 3.01804 11.9266C3.01804 11.9279 3.01934 11.9292 3.02129 11.9305C3.00371 12.0204 2.98939 12.1109 2.98548 12.2026C2.98093 12.2762 2.97767 12.3498 2.97572 12.4233C2.97377 12.4969 2.97637 12.5705 2.97767 12.6447L2.98353 12.8654L2.98548 12.9207L2.98939 12.976L2.99655 13.0861C3.00697 13.2332 3.01348 13.3797 3.02715 13.5255C3.03301 13.5984 3.03757 13.6713 3.04147 13.7449L3.04668 13.8542C3.04928 13.8907 3.05189 13.9272 3.05384 13.9636C3.05579 13.9962 3.05905 14.0287 3.0623 14.0613C3.03757 14.1348 3.02259 14.2104 3.01608 14.2872C3.01413 14.3152 3.01218 14.3432 3.01218 14.3718C3.01283 14.3998 3.01478 14.4284 3.01738 14.4571C3.02129 14.4955 3.0265 14.5346 3.03366 14.5736C3.03171 14.5717 3.0291 14.5697 3.02715 14.5678C2.98418 14.5209 2.94252 14.4688 2.90802 14.4128C2.89174 14.3861 2.87742 14.3581 2.86505 14.3301C2.86049 14.31 2.85659 14.2898 2.85203 14.2696C2.84291 14.2279 2.8338 14.1876 2.82469 14.1466C2.81818 14.1029 2.81232 14.0587 2.80646 14.0157L2.79214 13.9057L2.78497 13.851C2.78302 13.8328 2.78237 13.8139 2.78042 13.7957L2.76544 13.575L2.75828 13.4656L2.75503 13.4109L2.75438 13.3556L2.75047 13.1368L2.74787 13.0288C2.74787 13.0105 2.74657 12.993 2.74657 12.9747L2.74917 12.9194ZM3.52061 16.6555C3.43728 16.5729 3.36242 16.4817 3.30187 16.3841C3.26997 16.3346 3.24263 16.2819 3.21334 16.2304L3.1274 16.0755L3.04212 15.9205L2.964 15.7617L2.88653 15.6029C2.86114 15.5501 2.83445 15.4974 2.81232 15.4427L2.6743 15.1179C2.67235 15.1133 2.67105 15.1087 2.6691 15.1042C2.71271 15.0697 2.76024 15.0488 2.80776 15.0345C2.83771 15.1276 2.86895 15.2168 2.90085 15.2982C2.91713 15.3411 2.93601 15.3815 2.95424 15.4199C2.97246 15.4583 2.99069 15.4948 3.00892 15.5286C3.04538 15.5963 3.08053 15.6556 3.11504 15.7031C3.11113 15.6224 3.10071 15.5319 3.08509 15.4342C3.07793 15.3854 3.06816 15.3353 3.05905 15.2832C3.05059 15.2311 3.04147 15.1771 3.03171 15.1224C3.02389 15.0814 3.01543 15.0397 3.00697 14.9981C3.01608 14.9968 3.02585 14.9955 3.03431 14.9935C3.07207 14.987 3.10787 14.9779 3.14173 14.9642C3.14303 14.9681 3.14498 14.9727 3.14628 14.9766C3.17102 15.0404 3.20032 15.1074 3.22245 15.1745C3.23352 15.2077 3.24198 15.2415 3.24849 15.2741C3.255 15.3066 3.25826 15.3392 3.2563 15.3704C3.25175 15.4434 3.25044 15.5163 3.25305 15.5885C3.25565 15.6608 3.26086 15.7331 3.27258 15.8034C3.28365 15.8743 3.29732 15.9446 3.31359 16.0143C3.3214 16.0494 3.32987 16.0839 3.33898 16.1191L3.35265 16.1712C3.35786 16.1881 3.36307 16.2057 3.36893 16.2226C3.4132 16.3587 3.46267 16.4947 3.51605 16.6282C3.52191 16.6412 3.52712 16.6542 3.53298 16.6672C3.52973 16.6633 3.52517 16.6594 3.52061 16.6555ZM4.34739 16.3899C4.33632 16.3463 4.3246 16.3027 4.31354 16.2591C4.23672 15.9258 4.15469 15.6016 4.04142 15.2773C4.02644 15.235 4.01212 15.1927 3.9991 15.1498C3.98608 15.1068 3.97306 15.0638 3.9646 15.0196C3.94507 14.9317 3.92944 14.8431 3.91447 14.7539C3.8982 14.6654 3.88973 14.5749 3.87932 14.4851C3.86955 14.3952 3.85783 14.306 3.84742 14.2169C3.83505 14.0919 3.80901 13.9747 3.75628 13.8712C3.72893 13.8191 3.70029 13.7703 3.66058 13.7254C3.62152 13.6804 3.57399 13.6394 3.51671 13.6023C3.46528 13.6134 3.43338 13.616 3.40603 13.627C3.37869 13.6388 3.35265 13.657 3.32922 13.6772C3.30448 13.698 3.28169 13.7201 3.26021 13.7423C3.25175 13.6661 3.24393 13.5893 3.23808 13.5125L3.22896 13.3823C3.22636 13.3387 3.22636 13.295 3.22571 13.2514C3.2244 13.1642 3.22245 13.0776 3.22115 12.9904L3.21985 12.9279C3.25175 12.9565 3.27779 12.9728 3.29862 12.9669C3.40864 12.937 3.54991 12.838 3.5805 12.743C3.60524 12.6675 3.58246 12.605 3.53428 12.5614C3.48611 12.5177 3.41515 12.4943 3.33898 12.4995C3.30318 12.5021 3.26867 12.5184 3.23157 12.5431C3.23417 12.4813 3.23742 12.4194 3.24328 12.3576C3.25175 12.2528 3.26086 12.148 3.26932 12.0425C3.27974 11.9377 3.29406 11.8335 3.30513 11.7287C3.31034 11.6805 3.255 11.6226 3.22766 11.5686C3.21269 11.5673 3.19706 11.566 3.18209 11.5647C3.18209 11.5634 3.18209 11.5614 3.18209 11.5601C3.1886 11.4221 3.17623 11.2808 3.18079 11.1409C3.20553 10.7548 3.22831 10.3577 3.32857 9.97555C3.33898 9.93389 3.35005 9.89157 3.36242 9.85056C3.37414 9.8089 3.3865 9.76723 3.40148 9.72687C3.40734 9.71125 3.41385 9.69562 3.41971 9.67935C3.42687 9.67479 3.43403 9.66893 3.44119 9.66437C3.51996 9.6162 3.61045 9.58039 3.71461 9.55891C3.74716 9.5524 3.78167 9.54784 3.81617 9.54394C3.81031 9.57128 3.8038 9.59862 3.79794 9.62596C3.78622 9.6787 3.7745 9.73143 3.76214 9.78416C3.75172 9.83689 3.74326 9.89027 3.73349 9.94366C3.72438 9.99704 3.71461 10.0498 3.7055 10.1032L3.69183 10.1826C3.68727 10.2093 3.68271 10.236 3.67946 10.2626C3.66579 10.3694 3.65277 10.4762 3.6391 10.5829L3.62933 10.663L3.62282 10.7431C3.61891 10.7965 3.61436 10.8499 3.61045 10.9032C3.60264 11.01 3.59222 11.1168 3.59157 11.2235C3.58832 11.3303 3.58571 11.4371 3.58246 11.5438C3.58311 11.6506 3.58636 11.7567 3.58767 11.8635C3.58897 11.9169 3.58897 11.9702 3.59222 12.023C3.59548 12.0764 3.59938 12.1291 3.60264 12.1818C3.60654 12.2352 3.6098 12.2879 3.61371 12.3407C3.61761 12.3934 3.62022 12.4468 3.62738 12.4995C3.63975 12.605 3.65212 12.7104 3.66448 12.8152C3.66969 12.868 3.67881 12.9201 3.68727 12.9721C3.69573 13.0242 3.70485 13.0763 3.71331 13.1284C3.72177 13.1805 3.73089 13.2325 3.73935 13.2846C3.74846 13.3367 3.76083 13.3881 3.77125 13.4396C3.79338 13.5424 3.81487 13.6459 3.83895 13.7481C3.89364 13.9506 3.94311 14.1557 4.01017 14.3536C4.02319 14.3907 4.03751 14.4317 4.05248 14.4753C4.06811 14.5189 4.08373 14.5658 4.10456 14.6133C4.13907 14.6953 4.17748 14.7865 4.21914 14.8815C4.22175 14.9987 4.23021 15.1159 4.2556 15.2305C4.32591 15.569 4.42095 15.9043 4.53813 16.2317C4.50493 16.2376 4.47173 16.25 4.43983 16.2695C4.40077 16.2962 4.37408 16.3365 4.34739 16.3899ZM5.45345 18.9061C5.20802 18.6502 4.9704 18.3879 4.75752 18.1105C4.74515 18.0897 4.73213 18.0695 4.72042 18.0487C4.70024 18.0109 4.68005 17.9738 4.66508 17.9335C4.63448 17.854 4.61365 17.772 4.60975 17.6861C4.60584 17.5995 4.61691 17.5103 4.65532 17.4133C4.67354 17.3677 4.63904 17.2961 4.61626 17.2427C4.59933 17.203 4.58305 17.1627 4.56743 17.123L4.54399 17.0631L4.52316 17.0019C4.49582 16.9198 4.46978 16.8378 4.44504 16.7558C4.43658 16.7297 4.42942 16.7031 4.4216 16.6764C4.51275 16.7102 4.5824 16.7337 4.60909 16.7089C4.63513 16.6848 4.66117 16.6529 4.68396 16.6184C4.77575 16.8372 4.87731 17.0513 4.98928 17.261C4.97431 17.2811 4.96194 17.3039 4.95217 17.3274C4.92613 17.3905 4.9066 17.4524 4.89424 17.5129C4.88773 17.5429 4.88317 17.5728 4.87991 17.6027C4.87731 17.632 4.87666 17.6607 4.87731 17.6893C4.87861 17.7603 4.88968 17.8286 4.9066 17.895C4.88382 17.8827 4.86038 17.8697 4.83499 17.8534C4.85062 17.953 4.87601 18.0422 4.9066 18.1242C4.93785 18.2056 4.97301 18.2811 5.01662 18.3475C5.05959 18.4145 5.10581 18.477 5.15268 18.5363C5.17612 18.5662 5.20021 18.5955 5.2243 18.6242C5.24968 18.6522 5.27442 18.6802 5.29981 18.7082C5.34603 18.7596 5.39746 18.8097 5.44564 18.8605C5.46972 18.8859 5.49316 18.9126 5.5153 18.9386C5.53808 18.9646 5.55891 18.9913 5.57649 19.0193C5.58105 19.0265 5.58495 19.0343 5.58886 19.0415C5.54459 18.9965 5.49837 18.9516 5.45345 18.9061ZM9.19478 21.0108C8.83087 20.8851 8.47217 20.7478 8.13234 20.5791C8.09914 20.5564 8.06724 20.5336 8.03794 20.5062C7.97545 20.4496 7.92076 20.3858 7.87845 20.3109C7.85111 20.2621 7.83027 20.2087 7.8153 20.1488C7.93443 20.2217 8.05552 20.2914 8.17856 20.3572C8.1701 20.3565 8.16229 20.3565 8.15317 20.3558C8.21111 20.4372 8.27361 20.5056 8.33741 20.5642C8.40121 20.6228 8.46631 20.6735 8.53531 20.7126C8.60302 20.753 8.67203 20.7868 8.74103 20.8181C8.77554 20.8337 8.81004 20.8487 8.84454 20.8636C8.8797 20.8773 8.9142 20.8903 8.94935 20.9033C9.01315 20.9281 9.08151 20.9489 9.14726 20.9724C9.18046 20.9841 9.21236 20.9971 9.24426 21.0101C9.27616 21.0231 9.30611 21.0375 9.33475 21.0544C9.3354 21.055 9.3367 21.0557 9.33735 21.0563C9.28983 21.0407 9.24166 21.0264 9.19478 21.0108ZM9.74293 21.8838C9.71103 21.8727 9.67978 21.861 9.64788 21.8467C9.61078 21.831 9.57367 21.8128 9.53591 21.7913C9.48383 21.7627 9.42394 21.7425 9.36144 21.7288C9.38813 21.7021 9.41482 21.6813 9.44477 21.6722C9.48709 21.6598 9.54372 21.6559 9.59645 21.6637C9.64919 21.6715 9.69736 21.6904 9.7221 21.7204C9.74814 21.7536 9.75139 21.818 9.74293 21.8838ZM19.5035 16.5169C19.4761 16.5006 19.4507 16.485 19.424 16.4687C19.4455 16.4316 19.467 16.3938 19.4885 16.3567L19.5048 16.3287L19.5197 16.3001L19.5497 16.2428C19.5894 16.166 19.6291 16.0892 19.6682 16.0123C19.7007 16.0293 19.7326 16.0462 19.7658 16.0631C19.6792 16.2155 19.5979 16.3704 19.5035 16.5169ZM20.0119 15.3828C20.0191 15.3385 20.0288 15.2956 20.0373 15.2526C20.0451 15.2122 20.0542 15.1725 20.064 15.1328L20.0659 15.1315C20.1681 14.9955 20.1974 14.8991 20.228 14.7845C20.2306 14.7748 20.2326 14.7644 20.2352 14.7546C20.2931 14.6218 20.3491 14.4877 20.4012 14.351C20.4012 14.3503 20.4019 14.3497 20.4019 14.3484C20.2918 14.7038 20.1623 15.0501 20.0119 15.3828ZM20.7 12.7449C20.7046 12.6629 20.713 12.5822 20.713 12.5002L20.7677 12.4917C20.7736 12.3745 20.7833 12.2586 20.786 12.1415L20.7684 12.1883C20.7677 12.1473 20.7664 12.0588 20.7697 11.9624C20.7716 11.9143 20.7742 11.8635 20.7794 11.8159C20.7827 11.7678 20.7866 11.7222 20.7944 11.6838L20.8237 11.6903C20.8322 11.6493 20.8393 11.6096 20.8452 11.5692L20.8419 11.6897L20.8315 11.8602L20.8218 12.0301L20.8165 12.1148L20.8081 12.1994L20.7762 12.5353L20.7319 12.868C20.7065 13.0405 20.6759 13.2117 20.6421 13.3816C20.6382 13.3771 20.6336 13.3719 20.6304 13.3673C20.6304 13.3614 20.631 13.3549 20.6317 13.3497C20.6317 13.3204 20.6297 13.2963 20.6271 13.2775C20.6212 13.2404 20.6095 13.226 20.5906 13.241C20.5835 13.2469 20.575 13.2592 20.5653 13.2749C20.5679 13.2019 20.5711 13.1271 20.5835 13.0522C20.6011 12.9474 20.6232 12.8393 20.6603 12.7293L20.7 12.7449ZM1.99465 6.51806C2.02785 6.53824 2.0591 6.55712 2.0923 6.5773C2.06561 6.62287 2.03957 6.66909 2.01288 6.71466L1.99335 6.74917L1.97512 6.78432L1.93867 6.85463C1.88984 6.94903 1.84167 7.04342 1.79284 7.13717C1.75313 7.11633 1.71342 7.09615 1.67371 7.07532C1.77852 6.88783 1.87812 6.69839 1.99465 6.51806Z" fill="#FF5528"/>
<path d="M0.510986 15.0762C0.522704 15.0859 0.533121 15.1035 0.54549 15.1042C0.555906 15.1042 0.567624 15.0866 0.578691 15.0762C0.559161 15.0605 0.540282 15.0462 0.521402 15.0312C0.518147 15.0456 0.514892 15.0612 0.510986 15.0762Z" fill="#FF5528"/>
<path d="M19.7775 18.4912C19.7079 18.2816 19.6897 18.1976 19.6753 18.1982C19.6115 18.2035 19.5438 18.2236 19.4898 18.2555C19.4768 18.2633 19.4891 18.3669 19.5178 18.3877C19.5725 18.4307 19.648 18.445 19.7775 18.4912Z" fill="#FF5528"/>
<path d="M20.8303 13.959C20.8231 13.9551 20.8081 13.9636 20.7958 13.9668C20.8042 13.9857 20.8127 14.0026 20.8212 14.0209C20.829 14.0117 20.8368 14.0013 20.8446 13.9922C20.8407 13.9805 20.8387 13.9636 20.8303 13.959Z" fill="#FF5528"/>
<path d="M21.0347 12.284C21.0646 12.2879 21.0959 12.2925 21.1271 12.2964C21.1278 12.2339 21.1284 12.1714 21.1297 12.1089L21.1304 12.0151L21.1271 11.9214C21.1004 11.922 21.0724 11.922 21.0451 11.9227C21.0451 11.9526 21.0451 11.9832 21.0457 12.0132C21.0451 12.0431 21.0438 12.0737 21.0425 12.1037C21.0399 12.1636 21.0373 12.2235 21.0347 12.284Z" fill="#FF5528"/>
<path d="M20.8426 10.1141C20.866 10.1082 20.8907 10.103 20.9142 10.0972C20.8933 10.0171 20.8732 9.93831 20.8523 9.85889C20.8289 9.8654 20.8048 9.87191 20.7814 9.87842C20.8016 9.95654 20.8224 10.036 20.8426 10.1141Z" fill="#FF5528"/>
<path d="M20.9728 10.8374C20.9741 10.8823 20.9649 10.9279 20.9799 10.963C20.9877 10.9813 21.0379 10.9813 21.0685 10.9897C21.0639 10.9468 21.0639 10.9019 21.0509 10.8621C21.0463 10.8478 21.0073 10.8465 20.9728 10.8374Z" fill="#FF5528"/>
<path d="M15.9862 21.0311C15.9783 21.0174 15.9705 21.0031 15.9621 20.9888C15.9002 21.0207 15.8384 21.0539 15.7759 21.0845C15.783 21.104 15.7902 21.1235 15.7974 21.1424C15.8612 21.1066 15.9237 21.0682 15.9862 21.0311Z" fill="#FF5528"/>
<path d="M18.4352 19.0975L18.3896 19.1411L18.2979 19.2283C18.3089 19.2401 18.3206 19.2524 18.3324 19.2648L18.4333 19.1841L18.4834 19.1431L18.5316 19.1007C18.596 19.0434 18.6605 18.9862 18.7249 18.9289C18.7021 18.9087 18.6787 18.8892 18.6553 18.8696C18.5967 18.9302 18.5381 18.9914 18.4795 19.0519L18.4352 19.0975Z" fill="#FF5528"/>
<path d="M19.4696 18.0244C19.4286 18.0817 19.3883 18.1396 19.3459 18.195C19.3609 18.2086 19.3759 18.223 19.3902 18.2366C19.4312 18.1761 19.4696 18.113 19.5093 18.0511C19.4963 18.0426 19.4833 18.0335 19.4696 18.0244Z" fill="#FF5528"/>
</g>
<defs>
<clipPath id="clip0_1679_627">
<rect width="24.056" height="24" fill="white"/>
</clipPath>
</defs>
</svg>
