<svg width="25" height="24" viewBox="0 0 25 24" fill="none" xmlns="http://www.w3.org/2000/svg">
<g clip-path="url(#clip0_1751_113)">
<path d="M5.44845 11.3643C5.44776 11.3559 5.44636 11.3482 5.44636 11.3398C5.44497 11.3524 5.44636 11.3601 5.44845 11.3643Z" fill="#FFAC00"/>
<path d="M22.6666 13.694C22.6582 13.7278 22.6491 13.7623 22.6406 13.7968C22.6321 13.8313 22.6237 13.8665 22.6133 13.901C22.5749 14.0396 22.5384 14.1803 22.5045 14.3202C22.4961 14.3554 22.4883 14.3899 22.4798 14.425C22.4707 14.4595 22.4616 14.494 22.4531 14.5279C22.4355 14.5963 22.4186 14.6633 22.403 14.7297C22.3874 14.7961 22.3724 14.8612 22.3594 14.9244C22.3529 14.9563 22.3463 14.9875 22.3398 15.0181C22.3327 15.0487 22.3262 15.0787 22.319 15.1079C22.293 15.2258 22.2728 15.3345 22.2591 15.4315C22.2461 15.5285 22.2402 15.6131 22.2402 15.6802C22.2734 15.6248 22.3034 15.5656 22.3333 15.5057C22.3633 15.4458 22.3932 15.3846 22.4225 15.3221C22.4811 15.1971 22.5403 15.0682 22.5885 14.9341C22.6387 14.8007 22.6862 14.6653 22.7304 14.5305C22.7708 14.3944 22.806 14.2577 22.8385 14.1249C22.8548 14.0585 22.8698 13.9921 22.8834 13.9277C22.8951 13.8626 22.9056 13.7981 22.9153 13.735C22.9349 13.6087 22.9492 13.4882 22.9596 13.3763C22.9655 13.3203 22.9668 13.2656 22.9681 13.2129C22.9694 13.1608 22.9687 13.1107 22.9674 13.0631C22.9648 12.9681 22.9576 12.8841 22.9459 12.8125C22.9062 12.903 22.8685 13.0085 22.832 13.1237C22.8138 13.181 22.7968 13.2415 22.778 13.3034C22.7584 13.3652 22.7389 13.429 22.7207 13.4941C22.7024 13.5586 22.6842 13.6256 22.6666 13.694Z" fill="#FFAC00"/>
<path d="M0.409421 9.64404C0.398353 9.62125 0.388588 9.59977 0.378172 9.57764C0.369058 9.58935 0.358642 9.60107 0.348877 9.61279C0.354736 9.62711 0.356689 9.64795 0.367105 9.6538C0.376219 9.65901 0.394447 9.6486 0.409421 9.64404Z" fill="#FFAC00"/>
<path d="M15.4673 0.708984C15.4165 0.732421 15.3651 0.758461 15.3149 0.78385C15.3709 0.784501 15.4269 0.78385 15.4823 0.787756C15.477 0.761065 15.4725 0.735025 15.4673 0.708984Z" fill="#FFAC00"/>
<path d="M0.10351 12.0394C0.104161 12.0023 0.106114 11.9652 0.107416 11.9287C0.110671 11.8551 0.113926 11.7816 0.11653 11.7074C0.0794228 11.7021 0.0410134 11.6976 0.00325503 11.6924C0.00260403 11.7686 0.00130201 11.8454 0.000651006 11.9222L0 12.0374L0.00390604 12.152C0.0364564 12.1513 0.0716107 12.1507 0.104161 12.1507C0.104161 12.1136 0.104161 12.0765 0.10351 12.0394Z" fill="#FFAC00"/>
<path d="M0.264893 14.3882C0.290282 14.4858 0.315671 14.5828 0.340409 14.6798C0.369705 14.672 0.398349 14.6642 0.426993 14.6557C0.402255 14.56 0.376866 14.463 0.352127 14.3667C0.323483 14.3745 0.294188 14.3817 0.264893 14.3882Z" fill="#FFAC00"/>
<path d="M0.0754395 13.2944C0.0812985 13.3472 0.0806475 13.4018 0.0969227 13.4513C0.102782 13.4689 0.150305 13.4696 0.192621 13.4813C0.190668 13.4266 0.201735 13.3706 0.184157 13.327C0.174392 13.3048 0.113849 13.3042 0.0754395 13.2944Z" fill="#FFAC00"/>
<path d="M4.87808 20.5088C4.83056 20.4769 4.78499 20.4424 4.73812 20.4092C4.73551 20.4255 4.73291 20.4404 4.73096 20.4561C4.77653 20.488 4.8208 20.5225 4.86767 20.5524L5.00763 20.6442C5.10138 20.7047 5.19447 20.7659 5.28822 20.8265C5.29473 20.8141 5.30189 20.8024 5.3097 20.7894L5.02196 20.6025L4.87808 20.5088Z" fill="#FFAC00"/>
<path d="M15.824 21.3247C15.8546 21.3879 15.9151 21.4354 16.0102 21.5363C16.0414 21.3169 16.0623 21.2342 16.0492 21.2284C15.99 21.2036 15.921 21.1906 15.8578 21.1939C15.8435 21.1952 15.8084 21.2935 15.824 21.3247Z" fill="#FFAC00"/>
<path d="M21.6675 16.8136L21.6349 16.7974L21.6343 16.8371L21.6675 16.8136Z" fill="#FFAC00"/>
<path d="M6.56346 0.920081C6.555 0.896645 6.54589 0.872557 6.53742 0.849121C6.4593 0.892088 6.38313 0.939611 6.30566 0.985181C6.31543 1.00211 6.32519 1.01968 6.33496 1.03726C6.41113 0.997551 6.48664 0.957188 6.56346 0.920081Z" fill="#FFAC00"/>
<path d="M7.97752 0.472648L8.05043 0.44791L8.12465 0.426427L8.27308 0.38346C8.26722 0.36393 8.26136 0.343749 8.2555 0.324219L8.10121 0.355467L8.02439 0.371742L7.94692 0.390621C7.84537 0.416662 7.74381 0.442702 7.6416 0.468742C7.65527 0.503245 7.6709 0.5384 7.68587 0.572903C7.78352 0.539702 7.88052 0.506501 7.97752 0.472648Z" fill="#FFAC00"/>
<path d="M3.24917 3.41096L3.3032 3.35497L3.35919 3.30159L3.47181 3.19482C3.45814 3.17985 3.44382 3.16488 3.4295 3.1499L3.30581 3.24886L3.24396 3.29898L3.18472 3.35106C3.10595 3.42137 3.02653 3.49168 2.94775 3.56134C2.97575 3.58608 3.00439 3.60951 3.03304 3.63425C3.10595 3.56004 3.17756 3.48517 3.24917 3.41096Z" fill="#FFAC00"/>
<path d="M22.6855 11.674L22.7031 11.7098L22.722 11.6733L22.6855 11.674Z" fill="#FFAC00"/>
<path d="M4.7861 2.33996C4.87463 2.29439 4.96577 2.24557 5.05887 2.19414C5.15326 2.14466 5.25222 2.09714 5.35117 2.04571C5.40065 2.02032 5.45077 1.99428 5.50155 1.96824C5.52694 1.95522 5.55168 1.94155 5.57772 1.92918C5.60376 1.91681 5.62915 1.90444 5.65519 1.89272C5.7587 1.84324 5.86286 1.79312 5.96702 1.74234L6.04514 1.70393C6.07118 1.69156 6.09787 1.68049 6.12457 1.66812C6.1773 1.64469 6.23003 1.6206 6.28211 1.59716C6.33419 1.57308 6.38627 1.54964 6.43835 1.5262C6.49043 1.50277 6.54056 1.47803 6.59329 1.4572C6.6968 1.41423 6.79836 1.37126 6.89731 1.32895C6.94679 1.30746 6.99496 1.28663 7.04313 1.26645C7.09131 1.24757 7.13948 1.22869 7.1857 1.21046C7.2788 1.17336 7.36799 1.1369 7.45262 1.1011C7.79309 0.967639 8.05675 0.852411 8.17654 0.769733C8.09191 0.683801 8.01183 0.611539 7.92199 0.589405C7.83281 0.569223 7.73385 0.598519 7.61407 0.711794C7.56915 0.754109 7.51967 0.791868 7.46694 0.82572C7.41421 0.860223 7.35952 0.894076 7.30224 0.924022C7.18831 0.983915 7.06657 1.03274 6.95069 1.07701C6.83677 1.12518 6.72219 1.1714 6.60696 1.21567C6.54967 1.23846 6.49108 1.25929 6.43444 1.28273L6.26388 1.35564C6.15061 1.40446 6.03538 1.45134 5.9234 1.50342C5.81208 1.5581 5.70141 1.61344 5.59204 1.67203C5.06928 1.95717 4.57712 2.3009 4.11035 2.67653C4.23144 2.6264 4.37596 2.55675 4.53416 2.47212C4.61163 2.4272 4.69821 2.38618 4.7861 2.33996Z" fill="#FFAC00"/>
<path d="M2.18684 4.4611C2.16861 4.44417 2.15038 4.42659 2.13215 4.40967C2.08138 4.48388 2.0345 4.56135 1.98633 4.63752C2.0026 4.64859 2.01888 4.659 2.0358 4.67007C2.08593 4.60041 2.13541 4.52945 2.18684 4.4611Z" fill="#FFAC00"/>
<path d="M22.1518 8.03025C22.1615 8.09404 22.1733 8.16045 22.1856 8.22685C22.198 8.29325 22.2117 8.36226 22.226 8.43127C22.2331 8.46577 22.241 8.50027 22.2481 8.53543C22.2559 8.56993 22.2637 8.60508 22.2703 8.64024C22.2976 8.78151 22.3275 8.92408 22.3601 9.06404C22.3686 9.0992 22.3764 9.1337 22.3848 9.16886C22.392 9.20401 22.3992 9.23851 22.4063 9.27302C22.4206 9.34202 22.4363 9.40973 22.4512 9.47613C22.4669 9.54253 22.4825 9.60698 22.4988 9.67013C22.5066 9.70138 22.515 9.73263 22.5228 9.76257C22.53 9.79317 22.5372 9.82312 22.5443 9.85176C22.5736 9.96829 22.6036 10.0751 22.6348 10.1675C22.6661 10.2599 22.6986 10.3381 22.7279 10.398C22.7331 10.3329 22.7331 10.2671 22.7338 10.1994C22.7338 10.1323 22.7331 10.0633 22.7318 9.99433C22.7286 9.85567 22.724 9.71375 22.7071 9.57183C22.6928 9.42991 22.6745 9.28734 22.6537 9.14607C22.6296 9.0061 22.6003 8.86809 22.5697 8.73463C22.5541 8.66758 22.5385 8.60183 22.5222 8.53803C22.504 8.47423 22.4844 8.41174 22.4649 8.35119C22.4258 8.2301 22.3855 8.11553 22.3451 8.01072C22.3256 7.95798 22.3022 7.90851 22.28 7.86163C22.2579 7.81476 22.2351 7.76984 22.213 7.72818C22.1687 7.64485 22.1251 7.57324 22.0828 7.51465C22.088 7.6136 22.1003 7.72492 22.1192 7.84406C22.129 7.90525 22.1414 7.96645 22.1518 8.03025Z" fill="#FFAC00"/>
<path d="M2.55908 19.3722C2.62483 19.4477 2.69059 19.5226 2.75634 19.5975C2.77847 19.5773 2.80126 19.5565 2.82274 19.5363C2.75829 19.4621 2.69254 19.3872 2.62809 19.313C2.6053 19.3332 2.58187 19.3534 2.55908 19.3722Z" fill="#FFAC00"/>
<path d="M9.39338 22.7052C9.33674 22.6987 9.28076 22.689 9.22412 22.6812C9.22933 22.6968 9.23324 22.7118 9.23844 22.7267C9.29313 22.7345 9.34781 22.7443 9.40315 22.7495L9.5685 22.7671C9.67852 22.7782 9.78919 22.7892 9.89987 22.8003C9.89987 22.7866 9.90117 22.7723 9.90247 22.758L9.56264 22.7241L9.39338 22.7052Z" fill="#FFAC00"/>
<path d="M24.0371 10.8468C24.0248 10.7602 24.0098 10.6743 23.9981 10.5884C23.9538 10.5949 23.9102 10.6014 23.8653 10.6079V10.7863C23.8653 10.8455 23.8653 10.9054 23.862 10.9647L23.8464 11.3208C23.8379 11.5577 23.8106 11.7934 23.7865 12.0278C23.7793 12.0883 23.7735 12.1495 23.7644 12.21L23.7364 12.391C23.7175 12.5115 23.6973 12.6319 23.6771 12.7523C23.668 12.8122 23.6544 12.8721 23.642 12.9314L23.6042 13.1097C23.5782 13.2282 23.5541 13.3473 23.5261 13.4652L23.4356 13.8174C23.405 13.9346 23.3764 14.0517 23.3406 14.167C23.2709 14.3981 23.2078 14.6311 23.1296 14.859L23.006 15.2346C22.961 15.3583 22.9142 15.4813 22.8679 15.6044L22.7976 15.7886C22.7748 15.8505 22.7475 15.9097 22.7221 15.9709L22.5665 16.3329C22.5411 16.3934 22.5125 16.4526 22.4838 16.5119L22.3986 16.689L22.3126 16.866L22.269 16.9546C22.254 16.9839 22.2384 17.0125 22.2228 17.0412C22.0978 17.2716 21.9767 17.504 21.838 17.726C21.7703 17.838 21.7026 17.95 21.633 18.0606L21.4142 18.3861L21.3036 18.5482C21.2658 18.6016 21.2261 18.6537 21.1877 18.7064C21.1096 18.8112 21.0314 18.9154 20.9527 19.0196C20.9143 19.0723 20.8713 19.1218 20.8303 19.1719L20.7053 19.3229L20.5796 19.4727L20.5165 19.5475L20.4508 19.6198C20.2743 19.8112 20.1012 20.0058 19.913 20.1849C19.8323 20.2643 19.7503 20.3424 19.6676 20.4192C19.5843 20.4954 19.497 20.567 19.4104 20.6399C19.3239 20.7122 19.2366 20.7831 19.1494 20.8534C19.0595 20.9212 18.9691 20.9876 18.8786 21.0533C18.7874 21.1191 18.6976 21.1855 18.6051 21.2486L18.3252 21.4322L18.1852 21.5233L18.1156 21.5689C18.0922 21.5839 18.0681 21.5975 18.0446 21.6125L17.7595 21.7844C17.5674 21.9048 17.3611 22.0044 17.1632 22.1151C17.0649 22.1711 16.9666 22.2264 16.8689 22.2818C16.7719 22.3384 16.6782 22.3976 16.5877 22.4627C16.5356 22.4992 16.4848 22.537 16.4314 22.5708C16.3781 22.604 16.3247 22.6366 16.2706 22.6685C16.1626 22.7316 16.0532 22.7908 15.9432 22.8462C15.8885 22.8748 15.8312 22.8983 15.7746 22.9217C15.7179 22.9451 15.6606 22.9679 15.604 22.9894C15.4894 23.0317 15.3749 23.0721 15.2577 23.1033C15.1398 23.1333 15.0214 23.1587 14.9029 23.1782C14.7837 23.1977 14.6659 23.2153 14.5442 23.2192C14.4237 23.2251 14.3026 23.2257 14.1816 23.2205C14.121 23.2179 14.0611 23.2146 14.0006 23.2081C13.94 23.201 13.8788 23.1919 13.8183 23.1821C13.718 23.1652 13.6119 23.1554 13.5104 23.1665C13.3971 23.1801 13.2825 23.186 13.1692 23.1925C13.0553 23.199 12.942 23.2042 12.8288 23.2094C12.7155 23.2133 12.6016 23.2114 12.4889 23.212C12.3757 23.2114 12.2637 23.2133 12.1511 23.2094L11.8145 23.1958L11.6472 23.1893C11.5912 23.188 11.5359 23.1821 11.4799 23.1788C11.2572 23.1619 11.0359 23.1528 10.8146 23.1307C10.0093 23.0662 9.21698 22.9302 8.44945 22.7186C8.08358 22.6177 7.72358 22.4998 7.37138 22.3651C7.2848 22.3202 7.19756 22.2759 7.11228 22.2284L6.81803 22.0611L6.67155 21.9784C6.62272 21.9517 6.5752 21.9204 6.52703 21.8918C6.33563 21.774 6.14228 21.6639 5.95544 21.5422C5.26603 21.1138 4.62023 20.6269 4.02976 20.0853C3.4393 19.5436 2.90483 18.946 2.44131 18.3015C2.36124 18.1902 2.27986 18.0593 2.16854 17.9949C2.11255 17.9617 2.05917 17.9259 2.00904 17.8881C1.96022 17.8484 1.91399 17.8067 1.87038 17.7625C1.78249 17.6746 1.70372 17.5782 1.63146 17.4773C1.56245 17.3738 1.49995 17.2651 1.44136 17.1544C1.41207 17.0991 1.38277 17.0431 1.35478 16.9871C1.32744 16.9305 1.30205 16.8725 1.27601 16.8146C1.22067 16.6909 1.15362 16.5731 1.08071 16.4416C1.0104 16.3081 0.931625 16.1629 0.845692 15.9898C0.842437 16.1629 0.826813 16.2222 0.84439 16.2671C0.951155 16.536 1.06703 16.8022 1.19268 17.0652C1.17185 17.0731 1.15101 17.0802 1.13018 17.088C1.16338 17.1564 1.19658 17.2254 1.22979 17.2937L1.27991 17.3966L1.33395 17.4975C1.35283 17.4871 1.37301 17.4767 1.39254 17.4663C1.57222 17.8074 1.77077 18.1401 1.99016 18.459C1.96542 18.463 1.93222 18.4773 1.90553 18.4831C1.93418 18.5274 1.95826 18.5762 1.99472 18.6127C2.00709 18.6251 2.0468 18.6062 2.08781 18.5964C2.11255 18.6309 2.13599 18.6654 2.16073 18.6993C2.65679 19.377 3.22317 20.0065 3.84944 20.5781C3.82925 20.5631 3.80972 20.5488 3.78889 20.5338C3.86246 20.6894 3.87548 20.7499 3.91128 20.7818C4.59093 21.3866 5.34024 21.9309 6.16702 22.3443C6.53354 22.5291 6.91047 22.6958 7.29586 22.8442C8.01783 23.1736 8.77365 23.4451 9.5542 23.6521C10.3549 23.865 11.1837 23.9796 12.0222 23.9965C12.862 24.0134 13.7148 23.9308 14.5526 23.7517C15.3905 23.5727 16.2134 23.298 16.9998 22.9386C17.7862 22.5793 18.5368 22.1353 19.2379 21.6216C20.0582 21.0182 20.801 20.3046 21.4507 19.5124C21.4924 19.4642 21.5308 19.4128 21.5705 19.362L21.6883 19.2097L21.8055 19.0567C21.8446 19.0059 21.8836 18.9551 21.9201 18.9017L22.1401 18.586L22.2488 18.4271L22.3523 18.2644L22.5568 17.9376C22.5913 17.8836 22.6225 17.8269 22.6544 17.7709L22.7495 17.603L22.8438 17.4344C22.8744 17.3777 22.9076 17.3224 22.9363 17.2644L23.1108 16.9194C23.1492 16.8413 23.1824 16.7619 23.2097 16.6785C23.2371 16.5959 23.2618 16.5125 23.2898 16.4299C23.2475 16.4155 23.2058 16.4012 23.1628 16.3862L23.0834 16.5451C23.0567 16.5978 23.0307 16.6512 23.0014 16.7026L22.8289 17.0125C22.7163 17.2202 22.5867 17.4174 22.4611 17.6153C22.4279 17.6661 22.3953 17.7182 22.3608 17.7677L22.2553 17.9161C22.202 17.991 22.1479 18.0645 22.0939 18.1388C22.31 17.795 22.5112 17.4415 22.6954 17.0789C23.1583 16.1629 23.5033 15.1845 23.7312 14.1787C23.7468 14.1162 23.7585 14.0524 23.7715 13.9892L23.8086 13.7991L23.8451 13.609C23.8568 13.5459 23.8698 13.4821 23.8783 13.4183L23.9343 13.0349L23.961 12.8428L23.9805 12.6501L24.017 12.2641C24.0235 12.1996 24.0267 12.1352 24.03 12.0707L24.0404 11.8774L24.0495 11.6834C24.0521 11.6189 24.0567 11.5545 24.0567 11.4894L24.0593 11.1014C24.0554 11.02 24.0495 10.9328 24.0371 10.8468ZM10.6538 23.6521C10.5926 23.6521 10.5307 23.6469 10.4702 23.6424C10.409 23.6372 10.3484 23.6313 10.2879 23.6241C10.1668 23.6092 10.047 23.5922 9.92853 23.5662C9.85302 23.5486 9.77815 23.5284 9.70394 23.5069C9.93569 23.5467 10.1681 23.5805 10.4025 23.6072C10.5542 23.6248 10.7065 23.6385 10.8588 23.6508C10.7905 23.6521 10.7221 23.6528 10.6538 23.6521Z" fill="#FFAC00"/>
<path d="M1.33986 8.06811C1.32945 8.12149 1.31773 8.17422 1.30406 8.2263C1.27802 8.33111 1.24482 8.43332 1.21292 8.53683C1.18297 8.64034 1.14977 8.74385 1.11592 8.84671C1.09964 8.89879 1.08076 8.94957 1.06644 9.0023L1.02347 9.15984C0.996132 9.26531 0.967487 9.37012 0.948608 9.47753C0.931031 9.58495 0.918011 9.69237 0.911501 9.80108C0.908897 9.85512 0.905642 9.90915 0.908897 9.96384C0.911501 10.0185 0.916709 10.0732 0.92387 10.1279C0.938843 10.2373 0.960326 10.3466 0.998736 10.4547C1.03324 10.3395 1.071 10.2255 1.1042 10.1123L1.15368 9.94235C1.1719 9.88572 1.18948 9.82973 1.20706 9.77374C1.22463 9.71776 1.24091 9.66112 1.25719 9.60513C1.27346 9.54914 1.28843 9.49251 1.30731 9.43717C1.34247 9.32585 1.37567 9.21388 1.40627 9.10256C1.42059 9.04527 1.44077 8.98928 1.45835 8.93264L1.51238 8.76403L1.56641 8.59607L1.62696 8.43007L1.6875 8.26471L1.7181 8.18203C1.72786 8.15469 1.74023 8.12735 1.7513 8.10066L1.88736 7.77645C2.07941 7.34939 2.29619 6.93666 2.54618 6.5467C2.79942 6.15936 3.07935 5.79284 3.38988 5.45952C3.468 5.37685 3.55003 5.29742 3.63075 5.21735C3.67177 5.17829 3.71083 5.13728 3.75314 5.09952L3.88074 4.98754L4.00899 4.87752L4.07344 4.82284C4.0793 4.81763 4.08581 4.81307 4.09232 4.80852C4.07604 4.82544 4.05912 4.84172 4.04284 4.85864L3.84754 5.07478L3.74989 5.1835L3.65679 5.29612L3.46996 5.52202L3.29288 5.75638L3.20435 5.87421C3.1744 5.91327 3.14836 5.95494 3.11971 5.9953L2.95175 6.23943C2.92311 6.27979 2.89772 6.32211 2.87103 6.36377L2.79226 6.48942L2.71284 6.61571L2.67312 6.67886L2.63602 6.74331C2.53771 6.91648 2.43486 7.08834 2.34567 7.26737C2.03188 7.86629 1.74674 8.49386 1.5254 9.15854C1.30471 9.82257 1.14912 10.5217 1.09769 11.2379C1.08141 11.4026 1.07621 11.5692 1.071 11.7378L1.06839 11.8641L1.06774 11.9273L1.07035 11.9904C1.0749 12.0744 1.08076 12.159 1.08988 12.243C1.09443 12.2847 1.09964 12.327 1.1055 12.3687C1.11201 12.4103 1.11722 12.452 1.12763 12.493C1.14651 12.5757 1.16865 12.657 1.19599 12.7371C1.21357 12.7879 1.23245 12.8387 1.25328 12.8882C1.265 13.2312 1.28908 13.5756 1.3314 13.922C1.32554 13.9513 1.32098 13.9805 1.31968 14.0098C1.31903 14.045 1.32229 14.0788 1.3288 14.1107C1.35353 14.2175 1.37892 14.3243 1.40627 14.431C1.50912 15.0241 1.66862 15.6146 1.90168 16.1809C1.96027 16.3352 2.02993 16.4863 2.10024 16.6386L2.15427 16.7525L2.18227 16.8092L2.21286 16.8645C2.25388 16.9374 2.29684 17.0097 2.34241 17.0806C2.3652 17.1158 2.38863 17.1509 2.41207 17.1854C2.43616 17.22 2.45959 17.2545 2.48694 17.2864C2.54032 17.3508 2.59696 17.4133 2.6562 17.4732C2.71609 17.5324 2.77794 17.5891 2.84629 17.6405C2.86712 17.6555 2.88861 17.6691 2.91009 17.6835C3.02922 17.8573 3.15226 18.0285 3.28116 18.1958C3.28116 18.2082 3.28116 18.2192 3.28051 18.2323C3.2753 18.3006 3.28116 18.3761 3.29809 18.4484C3.30655 18.4842 3.31762 18.5194 3.33194 18.5519C3.34692 18.5838 3.36449 18.6125 3.38532 18.6372C3.48363 18.755 3.58193 18.8748 3.68544 18.9894C3.7909 19.1014 3.89832 19.2127 4.00704 19.3234C4.11901 19.4301 4.23293 19.5343 4.34751 19.6391C4.40415 19.6925 4.46469 19.74 4.52393 19.7901L4.70296 19.9386C4.74072 19.9685 4.78304 19.9939 4.83447 20.016C4.88589 20.0382 4.94383 20.0616 5.01024 20.0928C4.99266 20.0206 4.95816 19.9626 4.91714 19.9106C5.01675 19.9952 5.117 20.0785 5.22051 20.1599C5.21921 20.1573 5.21791 20.154 5.21661 20.1514C5.21465 20.1501 5.21335 20.1495 5.2114 20.1488C5.2127 20.1488 5.214 20.1482 5.2153 20.1475C5.16518 20.018 5.12221 19.8793 5.06818 19.7114C5.19903 19.6684 5.30059 19.5981 5.38522 19.6131C5.39173 19.6144 5.39889 19.617 5.40605 19.6189C5.45618 19.6723 5.49589 19.7322 5.52453 19.8005C5.54211 19.8396 5.55513 19.8826 5.56489 19.9268C5.53625 19.9718 5.49979 20.0154 5.46594 20.0466C5.4041 20.1046 5.30124 20.1169 5.21465 20.1475C5.2153 20.1488 5.2153 20.1501 5.2153 20.1514C5.34616 20.2087 5.4731 20.2907 5.6033 20.3363C5.60656 20.3519 5.60786 20.3682 5.61177 20.3832C5.63325 20.4633 5.6645 20.5368 5.70812 20.5987C5.79405 20.7243 5.91644 20.8259 6.06682 20.917C6.58111 21.2197 7.12145 21.4821 7.68327 21.7002C7.69889 21.708 7.71387 21.7158 7.72949 21.7236C7.78027 21.749 7.83235 21.775 7.88573 21.8017C7.93911 21.8271 7.99445 21.8506 8.04979 21.8759C8.16176 21.9254 8.27764 21.9756 8.39677 22.027C8.51721 22.0745 8.6422 22.1201 8.7698 22.1676C8.8336 22.191 8.8987 22.2151 8.96445 22.2373C9.03085 22.2581 9.09791 22.2789 9.16496 22.2998C9.23266 22.3206 9.30102 22.3414 9.37003 22.3622C9.43903 22.3831 9.50869 22.4046 9.57965 22.4215C9.72092 22.4573 9.86479 22.4925 10.0106 22.527L10.0653 22.54L10.1206 22.551C10.1577 22.5582 10.1942 22.5654 10.2313 22.5725C10.3055 22.5862 10.3804 22.6005 10.4546 22.6142C10.5295 22.6272 10.605 22.6428 10.6805 22.6532C10.756 22.663 10.8322 22.6734 10.9084 22.6832C10.9845 22.693 11.0607 22.7021 11.1375 22.7118C11.1759 22.7164 11.2143 22.7216 11.2527 22.7249L11.368 22.7333C11.5216 22.745 11.6759 22.7548 11.8295 22.7639C11.9832 22.7678 12.1375 22.7691 12.2904 22.7704C12.4434 22.7737 12.5951 22.7639 12.7461 22.7574C12.8965 22.7496 13.0463 22.7431 13.1927 22.7255C13.3392 22.7099 13.4844 22.6936 13.6263 22.676C13.7676 22.6532 13.9062 22.6298 14.0416 22.6057C14.1094 22.5927 14.1764 22.5823 14.2422 22.5673C14.3079 22.5523 14.3724 22.5367 14.4362 22.5224C14.5638 22.4918 14.6874 22.4625 14.8066 22.4293C14.9244 22.3941 15.0383 22.3583 15.1471 22.3232C15.2011 22.305 15.2545 22.2874 15.3066 22.2705C15.3586 22.2535 15.4081 22.232 15.4569 22.2138C15.5539 22.1754 15.6464 22.1377 15.7323 22.1005C15.7753 22.0817 15.8169 22.0634 15.8567 22.0459C15.8964 22.0276 15.9341 22.0075 15.9706 21.9886C16.1158 21.9131 16.2355 21.8421 16.326 21.7789C16.3716 21.7477 16.4087 21.7165 16.4387 21.6865C16.4686 21.6572 16.4907 21.6305 16.5044 21.6058C16.4432 21.6149 16.384 21.6253 16.3254 21.6331C16.4152 21.5941 16.5051 21.5557 16.5949 21.5159C16.7342 21.4489 16.8716 21.3786 17.0083 21.3089C17.1463 21.2412 17.2771 21.1624 17.4087 21.0869C17.5395 21.0108 17.6697 20.9359 17.7927 20.8526C17.9164 20.7712 18.0388 20.6898 18.1573 20.6091C18.1762 20.5948 18.1944 20.5811 18.2133 20.5674C18.1938 20.5941 18.1736 20.6221 18.1547 20.6521C18.2309 20.641 18.3031 20.6254 18.3708 20.6058C18.4379 20.5857 18.4997 20.5603 18.559 20.5336C18.6768 20.4789 18.7797 20.4125 18.8728 20.3396C18.9646 20.2647 19.0433 20.1801 19.1175 20.0941C19.1546 20.0512 19.1905 20.0069 19.2256 19.9626C19.2608 19.9184 19.2946 19.8741 19.3272 19.8272C19.3024 19.8389 19.2777 19.8513 19.2523 19.8624L19.1755 19.8949C19.1247 19.9164 19.0733 19.9379 19.0212 19.96C18.9854 19.9757 18.9502 19.9919 18.9151 20.0082C18.9782 19.9535 19.0407 19.8988 19.1 19.8442C19.1898 19.7582 19.2751 19.6742 19.3565 19.5922C19.3968 19.5512 19.4365 19.5108 19.4756 19.4718C19.5147 19.4327 19.5492 19.3911 19.5843 19.352C19.654 19.2732 19.7191 19.1971 19.7796 19.1241C19.8096 19.0877 19.8382 19.0519 19.8662 19.018C19.8935 18.9835 19.9183 18.9484 19.9424 18.9145C20.0381 18.7798 20.1136 18.6619 20.1663 18.5636C20.193 18.5148 20.2125 18.4692 20.2256 18.4295C20.2392 18.3898 20.247 18.3553 20.2483 18.3273C20.1858 18.3729 20.1266 18.4185 20.0648 18.4595C20.0036 18.5005 19.9437 18.5408 19.8844 18.5806C19.8258 18.6196 19.7679 18.6574 19.7113 18.6951C19.6546 18.7322 19.5993 18.7693 19.542 18.8025C19.3141 18.938 19.1052 19.0669 18.8864 19.1808C18.8428 19.2036 18.8044 19.2771 18.7999 19.3286C18.7823 19.5278 18.6833 19.6742 18.5648 19.8051C18.5049 19.8702 18.4411 19.9327 18.3754 19.9932C18.3083 20.0525 18.2419 20.1117 18.1814 20.1762C18.0974 20.2647 18.0141 20.3298 17.9216 20.3539C17.8279 20.3773 17.7276 20.3637 17.6131 20.3005C17.5252 20.2517 17.4366 20.223 17.3488 20.2081C17.3045 20.2009 17.2609 20.197 17.2173 20.1964C17.1736 20.1957 17.13 20.1983 17.0858 20.2016C17.061 20.2035 17.0369 20.2081 17.0128 20.2113C17.2785 20.0401 17.5356 19.8546 17.7823 19.6554C17.6834 19.6964 17.5655 19.753 17.4366 19.822C17.3728 19.8578 17.3019 19.8917 17.2303 19.9288C17.158 19.9659 17.0838 20.0056 17.0076 20.0473C16.9308 20.0876 16.8501 20.1267 16.7694 20.1684C16.729 20.1892 16.688 20.2107 16.647 20.2315C16.6261 20.2419 16.606 20.253 16.5851 20.2634C16.5643 20.2732 16.5428 20.2836 16.522 20.2934C16.4374 20.3337 16.3527 20.3747 16.2674 20.4164L16.2036 20.4476C16.1822 20.4581 16.1607 20.4672 16.1392 20.4769C16.0962 20.4965 16.0533 20.5153 16.0103 20.5349C15.968 20.5544 15.925 20.5739 15.8827 20.5928C15.8404 20.6117 15.7994 20.6325 15.7564 20.6488C15.6718 20.684 15.5891 20.7191 15.5084 20.7536C15.468 20.7712 15.4283 20.7881 15.3899 20.805C15.3502 20.8207 15.3118 20.8356 15.2734 20.8506C15.1972 20.8812 15.1243 20.9105 15.0559 20.9398C14.7786 21.0492 14.5631 21.1429 14.4655 21.21C14.5345 21.2803 14.6002 21.3389 14.6731 21.3571C14.7454 21.3734 14.8268 21.3493 14.9244 21.2575C14.9589 21.2249 14.9967 21.1963 15.037 21.1696C14.998 21.2002 14.9596 21.2458 14.9238 21.3089C14.9075 21.3369 14.8906 21.363 14.873 21.3877C14.8704 21.3812 14.8678 21.3753 14.8652 21.3688C14.7857 21.3962 14.707 21.4235 14.6276 21.4502L14.5683 21.4704L14.5078 21.4879L14.3867 21.5231C14.3912 21.5394 14.3964 21.555 14.401 21.5713L14.5266 21.5459L14.5898 21.5329L14.6516 21.5172C14.6998 21.5049 14.748 21.4925 14.7968 21.4801C14.7317 21.5485 14.6595 21.5986 14.5794 21.6312C14.5117 21.6598 14.4401 21.678 14.3639 21.6898C14.3255 21.6956 14.2864 21.6995 14.2467 21.7021C14.2064 21.7054 14.1653 21.706 14.1224 21.7047C14.0377 21.7021 13.9479 21.7217 13.8607 21.7542C13.8171 21.7705 13.7741 21.79 13.7331 21.8121C13.6921 21.8336 13.653 21.859 13.6165 21.8818C13.5208 21.9437 13.4297 21.9918 13.3366 22.0088C13.2904 22.0172 13.2435 22.0179 13.1953 22.0081C13.1778 22.0042 13.1595 21.999 13.1413 21.9925C13.1224 21.9756 13.1035 21.9599 13.0834 21.945C13.0476 21.9183 13.0098 21.8948 12.9714 21.874C12.933 21.8532 12.8933 21.8356 12.8523 21.818C12.8379 21.8122 12.8236 21.8076 12.8093 21.8024C13.1198 21.7724 13.4291 21.7249 13.735 21.6618C13.6289 21.6527 13.4987 21.6487 13.3522 21.6514C13.2793 21.654 13.2012 21.6514 13.1205 21.652C13.0756 21.652 13.03 21.6527 12.9831 21.6533C13 21.6305 13.017 21.6084 13.0339 21.5863C12.9929 21.6071 12.9525 21.6286 12.9109 21.6461C12.9128 21.6487 12.9148 21.6514 12.9174 21.6546C12.9011 21.6546 12.8855 21.6553 12.8692 21.6553C12.7826 21.6559 12.6934 21.6533 12.6023 21.6533C12.5567 21.6533 12.5111 21.6533 12.4649 21.6533C12.4421 21.6533 12.4187 21.654 12.3953 21.6533C12.3718 21.6527 12.349 21.652 12.3256 21.6507C12.2325 21.6474 12.1381 21.6448 12.0444 21.6429L11.9741 21.6416C11.9506 21.6409 11.9272 21.639 11.9037 21.6377C11.8569 21.6351 11.81 21.6325 11.7631 21.6299C11.754 21.6292 11.7449 21.6292 11.7358 21.6286C11.7351 21.6279 11.7351 21.6279 11.7345 21.6273C11.6902 21.583 11.6453 21.5491 11.601 21.5244C11.657 21.5172 11.7123 21.5114 11.7677 21.5049C11.8386 21.4984 11.909 21.4951 11.9799 21.4951C12.0151 21.4951 12.0502 21.4958 12.0854 21.4971C12.1205 21.4984 12.1557 21.4977 12.1908 21.4997C12.2611 21.5016 12.3315 21.5062 12.4024 21.5127C12.4376 21.5159 12.4727 21.5192 12.5085 21.5231C12.5437 21.527 12.5795 21.529 12.6146 21.5322C12.6856 21.5381 12.7572 21.5452 12.8288 21.553L12.9362 21.5648C12.972 21.5687 13.0078 21.57 13.0443 21.5732C13.0411 21.5771 13.0384 21.5817 13.0345 21.5863C13.0424 21.5823 13.0502 21.5778 13.0586 21.5739L13.0495 21.5654C13.1381 21.5335 13.2409 21.5368 13.3438 21.5107C13.446 21.4827 13.5475 21.4209 13.6257 21.2686C13.5658 21.2705 13.5104 21.2712 13.4583 21.2712C13.4323 21.2712 13.4069 21.2712 13.3828 21.2712C13.3587 21.2712 13.3347 21.2712 13.3112 21.2699C13.2181 21.2666 13.1348 21.266 13.0521 21.2725C13.0111 21.2757 12.9694 21.2803 12.9278 21.2855C12.8861 21.2894 12.8444 21.2933 12.8028 21.2979C12.7195 21.307 12.6355 21.318 12.5521 21.3265C12.4688 21.3343 12.3855 21.335 12.3035 21.3324C12.2624 21.3311 12.2214 21.3278 12.1811 21.3232C12.1407 21.3187 12.101 21.3115 12.0613 21.3005C11.756 21.2204 11.4676 21.152 11.1753 21.1345C11.1024 21.1299 11.0281 21.1299 10.9533 21.1345C10.9155 21.1377 10.8784 21.1397 10.8406 21.1429C10.8029 21.1462 10.7651 21.1514 10.7261 21.1572C10.6493 21.1696 10.5705 21.1872 10.4898 21.2113C10.409 21.2334 10.327 21.2601 10.2411 21.2946C10.2613 21.1358 10.2254 21.0479 10.161 20.9951C10.1291 20.9697 10.0907 20.9509 10.0484 20.9352C10.1376 20.947 10.2268 20.9587 10.3153 20.973C10.3465 20.9782 10.3784 20.9815 10.4103 20.9847L10.5054 20.9951L10.6948 21.0166C10.758 21.0257 10.8211 21.0283 10.8843 21.0355C10.9474 21.042 11.0099 21.0492 11.0724 21.0583C11.3237 21.0895 11.5717 21.1377 11.8237 21.2243C11.8523 21.2347 11.8823 21.2412 11.9129 21.2451C11.9435 21.249 11.9747 21.2503 12.0066 21.249C12.0697 21.2464 12.1342 21.2393 12.1967 21.2373C12.5313 21.2308 12.864 21.1839 13.1947 21.1332L13.4414 21.0863C13.5234 21.0707 13.6061 21.057 13.6875 21.0375C13.7689 21.0192 13.8509 21.0023 13.9329 20.9854L13.9948 20.973L14.056 20.9587L14.1784 20.9307L14.3092 20.9014L14.375 20.8864C14.3971 20.8812 14.4179 20.8747 14.4401 20.8695L14.6992 20.7992L14.7643 20.7816C14.7857 20.7757 14.8072 20.7679 14.8287 20.7614L14.957 20.7204L15.0852 20.6794L15.1497 20.6586C15.1711 20.6514 15.192 20.6429 15.2128 20.6351L15.4667 20.5407L15.5305 20.5166L15.593 20.49L15.718 20.4366L15.843 20.3832C15.8638 20.3741 15.8846 20.3656 15.9055 20.3558L15.9667 20.3266L16.2128 20.2074C16.5363 20.0401 16.8559 19.8578 17.1574 19.6456L17.2713 19.5668C17.3097 19.5408 17.3455 19.5115 17.3826 19.4842L17.6033 19.3155C17.6756 19.257 17.7452 19.1964 17.8162 19.1365L17.9223 19.046C17.9568 19.0148 17.9907 18.9829 18.0245 18.951C18.0961 18.8833 18.1684 18.8156 18.2393 18.7466L18.4451 18.5324C18.5147 18.4614 18.5785 18.3853 18.6443 18.3104C18.7094 18.2349 18.7771 18.1613 18.8376 18.0819L19.0238 17.8469C19.0843 17.7674 19.1423 17.6854 19.2015 17.604C19.2308 17.563 19.2608 17.5227 19.2894 17.4817L19.3727 17.356L19.4561 17.2297C19.4834 17.1874 19.5127 17.1464 19.5381 17.1021L19.695 16.8424L19.7347 16.7773L19.7718 16.7109L19.8454 16.5774C19.9469 16.401 20.0348 16.2168 20.1286 16.0338C20.1728 15.9414 20.2145 15.8476 20.2581 15.7539L20.3226 15.6133L20.3824 15.47C20.4222 15.3743 20.4638 15.2793 20.5022 15.1823C20.5393 15.0847 20.5764 14.987 20.6136 14.8893C20.6552 14.7871 20.6585 14.6732 20.6787 14.5632C20.6337 14.6726 20.5914 14.7813 20.5413 14.888C20.5302 14.9121 20.5198 14.9362 20.5087 14.9603L20.5914 14.6914C20.6227 14.5964 20.6448 14.4987 20.6708 14.4017C20.6949 14.3047 20.7229 14.2077 20.7418 14.1094L20.8036 13.8139C20.8219 13.7149 20.8368 13.6153 20.8538 13.5157C20.8616 13.4656 20.8707 13.4161 20.8779 13.366L20.8961 13.2156L20.9143 13.0646C20.9202 13.0145 20.928 12.9637 20.9312 12.9135L20.956 12.6095L20.9618 12.5334L20.9651 12.4572L20.9716 12.3042C20.984 12.0998 20.9801 11.8954 20.982 11.689C20.9801 11.5861 20.9755 11.4833 20.9729 11.3798L20.9684 11.2242L20.9579 11.0692C20.9508 10.9657 20.9456 10.8616 20.9365 10.7574C20.926 10.6533 20.9156 10.5491 20.9052 10.4449C20.8967 10.3343 20.8492 10.2314 20.818 10.124C20.8264 10.2425 20.8369 10.359 20.8401 10.4775C20.8447 10.5953 20.8505 10.7118 20.8544 10.8277C20.8557 10.9436 20.8564 11.0595 20.8577 11.1754C20.8577 11.204 20.859 11.2326 20.8583 11.2619V11.273C20.8538 11.204 20.8466 11.135 20.8375 11.066C20.8017 10.859 20.7522 10.6461 20.7099 10.3955L20.7789 10.4527C20.8128 10.2711 20.6845 10.4189 20.6787 10.2106L20.7496 10.1871C20.7145 10.1435 20.6975 10.1064 20.6904 10.0726C20.7626 9.94105 20.831 9.81866 20.801 9.71776C20.7822 9.65005 20.7691 9.583 20.76 9.51529C20.7594 9.50878 20.7587 9.50227 20.7581 9.49576C20.7587 9.49641 20.76 9.49641 20.7613 9.49706C20.76 9.49576 20.7594 9.49446 20.7581 9.49316C20.7509 9.43327 20.747 9.37272 20.7412 9.31348C20.7307 9.17937 20.7327 9.04396 20.7385 8.9079C20.7392 8.63774 20.7548 8.35976 20.6956 8.09284C20.609 7.6775 20.4931 7.26737 20.3492 6.86505C20.3903 6.85788 20.4313 6.84226 20.4697 6.81882C20.5166 6.79018 20.5491 6.74005 20.5823 6.67495C20.596 6.72833 20.6103 6.78172 20.624 6.83575C20.7184 7.24393 20.8186 7.6417 20.9573 8.03881C20.9762 8.09024 20.9931 8.14297 21.0094 8.19505C21.0256 8.24778 21.0413 8.30052 21.0523 8.35455C21.0758 8.46262 21.096 8.57133 21.1142 8.68005C21.1344 8.78877 21.1448 8.89944 21.1571 9.00946C21.1689 9.11948 21.1832 9.22885 21.1962 9.33822C21.2112 9.49121 21.2431 9.63508 21.3075 9.76268C21.3414 9.82647 21.3765 9.88637 21.4247 9.9417C21.4729 9.99704 21.5308 10.0472 21.6011 10.0921C21.6643 10.0784 21.7033 10.0758 21.7365 10.0615C21.7704 10.0472 21.8023 10.0244 21.8309 10.0003C21.8609 9.97425 21.8889 9.94756 21.9156 9.92087C21.926 10.0146 21.9351 10.1084 21.9423 10.2028L21.9533 10.3623C21.9559 10.4156 21.9566 10.469 21.9579 10.5224C21.9598 10.6292 21.9618 10.7359 21.9637 10.842L21.965 10.9182C21.926 10.8831 21.8941 10.8629 21.8687 10.87C21.7339 10.9071 21.5601 11.0282 21.523 11.1441C21.4931 11.2366 21.5211 11.3134 21.5796 11.3668C21.6389 11.4201 21.7261 11.4494 21.8192 11.4423C21.8635 11.439 21.9058 11.4195 21.9514 11.3889C21.9481 11.4651 21.9442 11.5406 21.9371 11.6167C21.9266 11.7456 21.9156 11.8739 21.9052 12.0028C21.8921 12.131 21.8752 12.2593 21.8609 12.3875C21.8544 12.4468 21.9227 12.5171 21.9559 12.5835C21.9742 12.5848 21.993 12.5867 22.0119 12.588C22.0119 12.59 22.0119 12.5919 22.0119 12.5933C22.0041 12.7625 22.0191 12.9357 22.0139 13.1075C21.9833 13.5808 21.9553 14.0678 21.8329 14.5359C21.8199 14.5873 21.8062 14.6387 21.7919 14.6895C21.7769 14.7403 21.7626 14.7917 21.7437 14.8412C21.7079 14.9408 21.6695 15.0404 21.6291 15.1387L21.5679 15.2865C21.5471 15.3353 21.523 15.3828 21.5009 15.431C21.4553 15.5267 21.4097 15.623 21.3642 15.7187L21.3225 15.806L21.2769 15.8912L21.1851 16.0612C21.1233 16.1738 21.0634 16.2877 20.995 16.3971C20.928 16.5071 20.8616 16.6165 20.7945 16.7265C20.7255 16.8352 20.6539 16.9413 20.5843 17.0487C20.5517 17.0989 20.5817 17.1926 20.5817 17.2675C20.6246 17.2942 20.6689 17.3215 20.7119 17.3482C20.8746 17.1399 21.0614 16.9452 21.1903 16.7115C21.2353 16.634 21.2789 16.5553 21.3212 16.4759C21.3362 16.4472 21.3505 16.4186 21.3648 16.3893C21.3557 16.4218 21.3472 16.4557 21.3394 16.4902C21.3225 16.5592 21.3088 16.6327 21.3004 16.7128C21.3635 16.6672 21.4208 16.6204 21.4729 16.5722C21.5237 16.5234 21.5679 16.4726 21.6083 16.4212C21.689 16.3183 21.7515 16.2115 21.8016 16.1035C21.8498 15.9948 21.883 15.8828 21.911 15.7721C21.9247 15.7168 21.9371 15.6608 21.9488 15.6055C21.9605 15.5501 21.9709 15.4941 21.9794 15.4381C21.9624 15.4603 21.9462 15.4824 21.9286 15.5039L21.8746 15.5683C21.8388 15.6113 21.8023 15.6543 21.7658 15.6972C21.6936 15.7838 21.6246 15.8737 21.5621 15.9713C21.5614 15.972 21.5614 15.9726 21.5614 15.9726L21.5823 15.9271L21.6083 15.8646L21.6604 15.7396C21.7287 15.5729 21.8023 15.4095 21.8667 15.2415C21.9006 15.1582 21.9344 15.0755 21.9703 14.9935L22.0243 14.8705C22.0412 14.8288 22.0588 14.7878 22.0764 14.7468C22.1226 14.64 22.161 14.5319 22.1929 14.4239C22.2007 14.3965 22.2085 14.3698 22.2157 14.3425C22.2222 14.3152 22.2281 14.2878 22.2333 14.2598C22.2443 14.2051 22.2541 14.1498 22.2626 14.0945C22.2795 13.9845 22.2918 13.8744 22.3003 13.7651C22.3049 13.6544 22.3062 13.5444 22.3049 13.435C22.3042 13.3803 22.3029 13.3256 22.3016 13.2716L22.299 13.1902C22.2977 13.1629 22.2951 13.1355 22.2932 13.1088C22.284 13.0008 22.2756 12.8927 22.2665 12.7846C22.2619 12.7313 22.258 12.6779 22.2534 12.6238C22.2502 12.5705 22.2424 12.5171 22.2378 12.4637C22.2274 12.3569 22.2183 12.2508 22.2124 12.1447C22.2124 12.1428 22.2105 12.1415 22.2085 12.1402C22.2307 12.0301 22.2476 11.9188 22.2521 11.8062C22.2573 11.7163 22.2613 11.6259 22.2645 11.536C22.2671 11.4455 22.2639 11.355 22.2626 11.2652L22.2554 10.9944L22.2534 10.9267L22.2489 10.859L22.2398 10.7236C22.2267 10.5432 22.2196 10.3636 22.202 10.1845C22.1949 10.0947 22.189 10.0055 22.1844 9.91566L22.1779 9.7809C22.1747 9.73598 22.1714 9.69172 22.1695 9.6468C22.1675 9.60643 22.163 9.56672 22.159 9.52701C22.189 9.43717 22.2079 9.34473 22.2157 9.24968C22.2183 9.21518 22.2202 9.18068 22.2202 9.14617C22.2189 9.11167 22.217 9.07717 22.2137 9.04201C22.2072 8.97235 22.1962 8.90139 22.1818 8.83109C22.1675 8.76013 22.1499 8.68917 22.1291 8.61755C22.1083 8.5466 22.0809 8.47564 22.0542 8.40468C22.0243 8.32656 21.9878 8.24388 21.9611 8.1625C21.9475 8.12149 21.9377 8.08047 21.9292 8.04011C21.9208 8.0004 21.9169 7.96069 21.9195 7.92163C21.9253 7.83244 21.926 7.74325 21.9234 7.65407C21.9201 7.56553 21.9143 7.47699 21.8993 7.39041C21.8856 7.30382 21.8687 7.21724 21.8492 7.13131C21.8394 7.08834 21.829 7.04537 21.8179 7.00306L21.801 6.93926C21.7951 6.91843 21.788 6.8976 21.7815 6.87611C21.7268 6.7088 21.6669 6.5428 21.6011 6.37874C21.5315 6.21664 21.4605 6.05454 21.3922 5.89179C21.288 5.66589 21.1474 5.57085 20.9267 5.67305C20.9078 5.63464 20.8896 5.59623 20.8714 5.55717C20.8525 5.51876 20.8336 5.48101 20.8147 5.4426C20.7776 5.36643 20.7418 5.28961 20.7066 5.21279C20.6383 5.05785 20.5602 4.91007 20.4808 4.76425C20.4606 4.72779 20.4404 4.69199 20.4196 4.65618C20.3987 4.62038 20.3772 4.58522 20.3538 4.55137C20.3076 4.48367 20.2588 4.41726 20.2073 4.35346C20.1559 4.28967 20.1012 4.22847 20.0426 4.17053C19.9821 4.11454 19.9176 4.06181 19.8486 4.01364C19.8258 4.10608 19.8284 4.1829 19.8649 4.23433C19.8961 4.2773 19.9261 4.32222 19.956 4.36714C19.986 4.41205 20.0153 4.45632 20.0439 4.50124C20.0726 4.54616 20.0999 4.59173 20.1253 4.6373C20.1507 4.68352 20.1748 4.72909 20.193 4.77857C20.2308 4.87557 20.2555 4.97648 20.2607 5.08194C20.2653 5.18805 20.2522 5.29677 20.2047 5.41591C20.1826 5.47189 20.2249 5.55978 20.2529 5.62553C20.2737 5.67436 20.2933 5.72318 20.3128 5.77266L20.3414 5.84622L20.3668 5.92174C20.4 6.02199 20.4319 6.1229 20.4625 6.2238C20.4729 6.2557 20.4821 6.28891 20.4912 6.32146C20.3792 6.27979 20.2939 6.25115 20.2607 6.28174C20.2288 6.31104 20.1969 6.3501 20.1689 6.39242C20.0569 6.1242 19.932 5.86119 19.7946 5.6047C19.8128 5.57996 19.8278 5.55197 19.8402 5.52332C19.8727 5.44585 19.8961 5.37034 19.9118 5.29612C19.9196 5.25901 19.9254 5.22256 19.9293 5.1861C19.9326 5.1503 19.9333 5.11514 19.9326 5.07999C19.9313 4.9934 19.9176 4.90942 19.8961 4.8274C19.9241 4.84237 19.9528 4.85864 19.984 4.87817C19.9652 4.75644 19.9339 4.64642 19.8961 4.54616C19.8577 4.44591 19.8148 4.35346 19.7607 4.27209C19.7087 4.18941 19.652 4.11389 19.5934 4.04033C19.5641 4.00387 19.5348 3.96807 19.5055 3.93226C19.4743 3.89776 19.4437 3.86391 19.4131 3.8294C19.3565 3.76626 19.2933 3.70506 19.2341 3.64257C19.2041 3.61132 19.1761 3.57877 19.1488 3.54622C19.1208 3.51432 19.0954 3.48177 19.0739 3.44726C18.986 3.30925 18.9528 3.14455 19.0511 2.91344C19.0681 2.87308 19.042 2.793 19.0075 2.75459C18.9288 2.66606 18.8519 2.57231 18.7732 2.48117C18.6924 2.39198 18.6065 2.3093 18.5154 2.23639C18.3344 2.08861 18.1137 2.00268 17.8448 2.03458C17.8006 2.04044 17.7582 2.04434 17.7179 2.045C17.6769 2.0463 17.6378 2.04369 17.6007 2.03458C17.5851 2.03067 17.5701 2.02547 17.5551 2.01896C17.5349 2.00594 17.5148 1.99487 17.4946 1.9851C17.4627 1.96102 17.4327 1.92847 17.4047 1.8855C17.3598 1.81649 17.2609 1.76767 17.1749 1.75074C17.0831 1.73056 16.9959 1.70647 16.9106 1.67848C16.826 1.65049 16.7446 1.61728 16.6626 1.58539C16.5812 1.55218 16.5025 1.51573 16.4256 1.47667C16.3872 1.45714 16.3488 1.4363 16.3111 1.41482C16.2733 1.39334 16.2349 1.37446 16.1971 1.35298C16.1216 1.31066 16.0467 1.26639 15.9732 1.21952C15.9361 1.19608 15.8996 1.17265 15.8632 1.14791C15.8267 1.12382 15.7889 1.10169 15.7518 1.07825C15.6776 1.03138 15.6034 0.983205 15.5292 0.934379L15.4179 0.860815C15.3808 0.836728 15.3424 0.813943 15.3046 0.790507C15.3105 0.787903 15.3163 0.784648 15.3222 0.781393C15.3111 0.781393 15.3007 0.781393 15.2896 0.781393L15.2948 0.795715C15.1809 0.780091 15.0702 0.718896 14.9439 0.689601C14.817 0.66291 14.6725 0.672675 14.5039 0.795064C14.5703 0.826963 14.6315 0.85756 14.6881 0.886856C14.7167 0.901178 14.7441 0.9155 14.7708 0.929171C14.7975 0.942842 14.8235 0.956513 14.8482 0.970835C14.9478 1.02682 15.0383 1.075 15.1327 1.11406C15.1796 1.13359 15.2271 1.15182 15.2753 1.17004C15.3228 1.18957 15.3704 1.20845 15.4185 1.22668C15.4361 1.23319 15.4543 1.24035 15.4719 1.24686C15.4869 1.26574 15.5032 1.28202 15.5227 1.29243C15.5702 1.31652 15.6164 1.34256 15.6627 1.36925C15.7089 1.39529 15.7551 1.42133 15.8007 1.44867C15.8462 1.47537 15.8912 1.50336 15.9341 1.53265C15.9771 1.5626 16.0194 1.5919 16.0572 1.62705C16.134 1.69671 16.201 1.77483 16.2525 1.86662C16.2857 1.92651 16.3117 1.99226 16.3299 2.06518C16.1835 1.97599 16.0357 1.89071 15.8846 1.80998C15.8951 1.81063 15.9048 1.81063 15.9159 1.81194C15.8443 1.71168 15.7681 1.62835 15.69 1.55609C15.6112 1.48448 15.5318 1.42198 15.4478 1.37381C15.3645 1.32433 15.2799 1.28267 15.1959 1.24426C15.1536 1.22538 15.1113 1.2065 15.0696 1.18827C15.0266 1.172 14.9837 1.15572 14.9413 1.13945C14.8626 1.1095 14.7792 1.08411 14.6985 1.05482C14.6582 1.04049 14.6184 1.02487 14.58 1.00794C14.541 0.992319 14.5039 0.974741 14.4687 0.953909C14.3287 0.871231 14.2265 0.739728 14.2109 0.48844C14.2083 0.444171 14.1491 0.38493 14.1015 0.366702C13.9915 0.323735 13.8822 0.275561 13.7708 0.231292C13.6595 0.188977 13.5462 0.154474 13.4323 0.131688C13.431 0.131688 13.4297 0.131037 13.4284 0.131037C13.4212 0.123225 13.4147 0.11346 13.4063 0.106299C13.336 0.0477086 13.2344 0.0281784 13.0769 0.0730978C13.0183 0.090024 12.9571 0.101091 12.8952 0.10695C12.8327 0.11346 12.7689 0.118668 12.7051 0.118668C12.5769 0.11997 12.4467 0.10695 12.323 0.093279C12.2 0.0841649 12.0776 0.0717958 11.9552 0.0587757C11.894 0.0529166 11.8328 0.0444536 11.7709 0.0392455L11.5867 0.0255744C11.4637 0.0171113 11.3406 0.00604418 11.2169 0.000185123C11.0939 -0.0024189 10.9702 -0.00372091 10.8465 -0.0024189C10.2534 0.0112522 9.66168 0.090675 9.07837 0.21046C9.20858 0.221527 9.36807 0.226084 9.54775 0.22348C9.63694 0.220225 9.73264 0.22348 9.83159 0.222829C9.88627 0.222829 9.94291 0.222178 9.99955 0.221527C9.97872 0.24887 9.95788 0.276212 9.9377 0.304205C9.98783 0.278816 10.038 0.252776 10.0881 0.230641C10.0855 0.227386 10.0829 0.224131 10.0803 0.220225C10.0998 0.219574 10.1193 0.219574 10.1395 0.218923C10.2456 0.218272 10.355 0.221527 10.4663 0.220876C10.5217 0.220876 10.5783 0.220876 10.6349 0.220876C10.6629 0.220876 10.6916 0.220225 10.7202 0.220876C10.7489 0.222178 10.7769 0.222829 10.8055 0.224131C10.9201 0.228037 11.0353 0.231292 11.1505 0.233245L11.2371 0.235198C11.2658 0.235849 11.2951 0.238453 11.3237 0.239755C11.381 0.24301 11.4389 0.246265 11.4962 0.249521C11.5535 0.252125 11.6101 0.25538 11.6668 0.257984C11.7234 0.261239 11.7794 0.26189 11.8354 0.267749C11.9467 0.276863 12.0567 0.285977 12.1635 0.293138C12.2169 0.297044 12.2696 0.300299 12.321 0.304205C12.3725 0.309413 12.4232 0.314621 12.4734 0.319829C12.5235 0.325037 12.573 0.329594 12.6212 0.3335C12.5899 0.349775 12.5587 0.363447 12.5268 0.371259C12.4532 0.389487 12.3757 0.381024 12.2859 0.328292C12.2149 0.287279 12.1049 0.289232 12.0209 0.314621C11.9304 0.338708 11.8412 0.357588 11.7534 0.37191C11.6655 0.385581 11.5782 0.393393 11.491 0.403158C11.4038 0.41097 11.3172 0.414876 11.2313 0.415527C11.1883 0.415527 11.1453 0.414876 11.1017 0.413574C11.0587 0.411621 11.0158 0.412272 10.9722 0.41097C10.8862 0.408366 10.7996 0.403158 10.7131 0.395346C10.6701 0.39144 10.6265 0.387534 10.5829 0.382326C10.5392 0.377769 10.4963 0.375165 10.4527 0.371259C10.3654 0.364098 10.2782 0.354984 10.1903 0.345218L10.0581 0.330896C10.0139 0.326339 9.97025 0.324386 9.92599 0.32048C9.93054 0.315272 9.9338 0.310064 9.9377 0.304205C9.92794 0.309413 9.91817 0.31397 9.90841 0.319178L9.91948 0.329594C9.81076 0.368655 9.68511 0.364098 9.55882 0.396648C9.43382 0.431151 9.30948 0.506668 9.21313 0.693507C9.2867 0.691554 9.3544 0.690903 9.4182 0.690252C9.4501 0.690252 9.4807 0.690252 9.51064 0.689601C9.54059 0.68895 9.56988 0.689601 9.59788 0.690903C9.7118 0.694809 9.81401 0.696111 9.91557 0.687648C9.96635 0.683742 10.0171 0.677883 10.0679 0.671373C10.1187 0.666816 10.1701 0.661607 10.2209 0.655748C10.3231 0.64403 10.426 0.63101 10.5282 0.620594C10.6304 0.61148 10.7326 0.610178 10.8335 0.613433C10.8836 0.615386 10.9337 0.619292 10.9832 0.625151C11.0327 0.63101 11.0815 0.638822 11.1297 0.653144C11.5034 0.751446 11.8575 0.835426 12.2162 0.856909C12.3061 0.862117 12.3966 0.862768 12.4883 0.856909C12.5346 0.853003 12.5801 0.850399 12.6264 0.846493C12.6726 0.842587 12.7195 0.836728 12.7663 0.828916C12.8607 0.813943 12.9571 0.791809 13.056 0.762513C13.155 0.735171 13.2559 0.702621 13.3607 0.660956C13.3353 0.855607 13.3796 0.963023 13.459 1.02747C13.4981 1.05872 13.5456 1.08216 13.597 1.10104C13.4876 1.08606 13.3783 1.07174 13.2696 1.05482C13.2311 1.04831 13.1921 1.0444 13.153 1.04049L13.0365 1.02812L12.8041 1.00208C12.7273 0.991017 12.6491 0.987762 12.5717 0.978647C12.4942 0.970835 12.4174 0.961721 12.3406 0.950654C12.0326 0.912896 11.7286 0.853654 11.4194 0.74754C11.3842 0.735171 11.3471 0.727359 11.3094 0.722151C11.2716 0.716943 11.2332 0.715641 11.1941 0.717594C11.1167 0.720849 11.0373 0.729963 10.9604 0.731916C10.5503 0.740379 10.1421 0.797668 9.73719 0.860164L9.43448 0.917453C9.33357 0.936332 9.23266 0.953258 9.13306 0.976694C9.0328 0.998829 8.93255 1.02031 8.83229 1.04049L8.75678 1.05547L8.68191 1.07369L8.53153 1.1082L8.37138 1.144L8.29131 1.16223C8.26462 1.16809 8.23858 1.17655 8.21189 1.18306L7.89419 1.26965L7.81477 1.29113C7.78808 1.29829 7.76204 1.30741 7.736 1.31587L7.57846 1.366L7.42091 1.41677L7.34214 1.44216C7.3161 1.45128 7.29006 1.46104 7.26467 1.47081L6.95349 1.58669L6.87537 1.61598L6.79855 1.64853L6.64556 1.71363L6.49193 1.77939C6.46654 1.79045 6.4405 1.80087 6.41511 1.81259L6.34024 1.84904L6.03883 1.99487C5.64236 2.19994 5.25046 2.42323 4.88134 2.68363L4.74137 2.77998C4.6945 2.81188 4.65088 2.84769 4.60531 2.88089L4.33449 3.08791C4.24596 3.15952 4.16002 3.23373 4.07344 3.3073L3.94324 3.41862C3.90092 3.45703 3.85991 3.49609 3.81824 3.53515C3.73036 3.61848 3.64117 3.70116 3.55524 3.78579L3.30265 4.04879C3.21671 4.13538 3.13924 4.22912 3.05852 4.32091C2.9791 4.41336 2.89577 4.50385 2.82155 4.60085L2.59305 4.88859C2.51884 4.98624 2.44788 5.0865 2.37561 5.1861C2.33981 5.23623 2.30335 5.2857 2.26755 5.33648L2.16534 5.49077L2.06313 5.64506C2.02928 5.69714 1.99347 5.74727 1.96222 5.8013L1.76953 6.11964L1.72135 6.19972L1.67643 6.28109L1.58594 6.4445C1.46095 6.66128 1.35419 6.88718 1.23896 7.11113C1.18492 7.2244 1.13349 7.33963 1.08011 7.45421L1.00069 7.62672L0.927776 7.80184C0.879601 7.91902 0.828172 8.03621 0.7813 8.15469C0.735729 8.27447 0.690159 8.39361 0.645239 8.51339C0.594461 8.63904 0.589904 8.77835 0.565816 8.91311C0.621152 8.77901 0.673232 8.64555 0.734427 8.5147C0.748098 8.48475 0.761118 8.45545 0.774138 8.42551L0.672581 8.75492C0.634823 8.87145 0.60683 8.99123 0.575582 9.10972C0.545635 9.22885 0.511783 9.34733 0.488998 9.46842L0.413481 9.83038C0.390696 9.95147 0.372468 10.0739 0.351635 10.1962C0.34187 10.2574 0.331454 10.3186 0.32234 10.3798L0.299555 10.5647L0.27677 10.7496C0.269609 10.8114 0.260494 10.8733 0.256588 10.9351L0.226642 11.3082L0.21883 11.4019L0.214924 11.4957L0.207112 11.6831C0.192139 11.9338 0.196696 12.1844 0.194092 12.4377C0.196045 12.564 0.201904 12.6896 0.205159 12.8165L0.211018 13.0073L0.224038 13.1974C0.233152 13.3243 0.239011 13.4519 0.250078 13.5795C0.262447 13.7071 0.275468 13.8347 0.287837 13.9623C0.298253 14.0977 0.356843 14.224 0.394602 14.3555C0.384186 14.2104 0.371166 14.0671 0.36791 13.9226C0.362702 13.7781 0.35489 13.6355 0.350984 13.4929C0.349682 13.351 0.34838 13.2085 0.347078 13.0665C0.347078 13.0314 0.345776 12.9962 0.346427 12.9604L0.349031 12.8543L0.354239 12.6434L0.359447 12.4338L0.371817 12.2241L0.384186 12.0158L0.390045 11.9123L0.39981 11.8088L0.43887 11.3967L0.493555 10.9885C0.573628 10.4475 0.684951 9.91696 0.828823 9.40072C0.976601 8.88512 1.16019 8.38515 1.37697 7.906C1.36265 7.96264 1.35028 8.01472 1.33986 8.06811ZM15.1737 21.0817C15.2668 21.0329 15.3658 20.9932 15.4608 20.9567C15.5533 20.917 15.647 20.8799 15.7408 20.8435C15.7876 20.8246 15.8352 20.8076 15.882 20.7888L16.0214 20.7295C16.0767 20.7054 16.1327 20.682 16.1887 20.6579C16.1639 20.6957 16.1405 20.7328 16.1203 20.7686C16.0715 20.8545 16.2225 21.057 16.2785 21.2087C16.2902 21.2432 16.2844 21.2835 16.287 21.3213C16.1737 21.4228 16.0858 21.499 16.0122 21.5498C15.9758 21.5758 15.9419 21.5934 15.9107 21.6051C15.8794 21.6168 15.8508 21.6221 15.8228 21.6214C15.7115 21.6175 15.6164 21.5146 15.4478 21.3063C15.3508 21.1872 15.2558 21.1221 15.1679 21.1201C15.136 21.1201 15.1041 21.1266 15.0728 21.1423C15.1047 21.1201 15.1386 21.0999 15.1737 21.0817ZM11.5821 22.4443C11.601 22.4456 11.6212 22.4469 11.6401 22.4482C11.6401 22.4488 11.6394 22.4495 11.6388 22.4501C11.493 22.4885 11.3803 22.5159 11.2918 22.5276C11.2475 22.5341 11.2098 22.5341 11.1766 22.5302C11.1434 22.5263 11.1154 22.5178 11.0913 22.5042C11.0438 22.4775 11.0099 22.4313 10.9813 22.3603C10.9884 22.3616 10.9943 22.3636 11.0014 22.3649C11.0464 22.374 11.0978 22.3818 11.1557 22.3909C11.2736 22.4078 11.4161 22.4274 11.5821 22.4443ZM10.9181 21.5283C10.978 21.5133 11.0412 21.5205 11.1147 21.5635C11.129 21.5719 11.1453 21.5778 11.1629 21.5823C11.1609 21.5843 11.1596 21.5863 11.1583 21.5882C11.1343 21.5863 11.1102 21.5849 11.0861 21.583C11.0438 21.5784 11.0028 21.5745 10.9617 21.57C10.9207 21.5661 10.881 21.5622 10.8413 21.5589C10.8667 21.5459 10.8921 21.5348 10.9181 21.5283ZM10.7729 21.7347C10.8686 21.734 10.965 21.7431 11.0574 21.7529C11.0496 21.7705 11.0425 21.7881 11.036 21.8069C10.9923 21.9306 10.9617 22.0576 10.9292 22.1858C10.9188 22.1448 10.9084 22.1005 10.8979 22.0498C10.8641 21.8987 10.8088 21.7965 10.7306 21.7549C10.717 21.7477 10.702 21.7425 10.687 21.7386C10.7157 21.736 10.7443 21.7347 10.7729 21.7347ZM5.60851 16.3443C5.60461 16.3216 5.6007 16.2994 5.59614 16.2766C5.59875 16.276 5.6007 16.2747 5.6033 16.274C5.63065 16.3085 5.65799 16.343 5.68533 16.3776C5.67296 16.3841 5.66059 16.3906 5.64887 16.3977L5.60851 16.3443ZM5.46334 8.81286L5.4718 8.82067L5.46073 8.81937C5.46203 8.81741 5.46269 8.81481 5.46334 8.81286ZM5.21075 10.0127C5.28691 10.0114 5.34876 10.0055 5.39824 9.99508C5.44771 9.98467 5.48482 9.97035 5.51477 9.95277C5.57336 9.91696 5.59354 9.86619 5.59484 9.80434C5.59484 9.73664 5.5662 9.65786 5.60135 9.60188C5.62088 9.57258 5.63846 9.54263 5.65603 9.51269C5.64627 9.54459 5.6365 9.57649 5.62739 9.60839L5.67426 9.56868C5.65473 9.63833 5.63781 9.7132 5.62088 9.78937C5.60721 9.86619 5.59419 9.94431 5.58052 10.0198C5.54992 10.1702 5.52909 10.3134 5.48352 10.4176C5.43665 10.5224 5.44836 10.6461 5.46789 10.7522C5.48677 10.8583 5.51672 10.9469 5.51867 10.9892C5.54276 11.1103 5.52063 11.2222 5.49524 11.2932C5.47766 11.3479 5.45618 11.3765 5.44901 11.3635C5.46789 11.6141 5.58442 11.8452 5.55969 12.1883C5.53299 12.2209 5.53169 12.297 5.54341 12.3927C5.55773 12.4884 5.58833 12.6024 5.61632 12.713C5.66124 12.8745 5.70877 13.0249 5.70551 13.1017C5.69119 13.0997 5.67687 13.0984 5.66189 13.0965C5.55838 13.0802 5.46789 13.0789 5.38717 13.0893C5.36178 13.0034 5.33834 12.9175 5.31621 12.8315C5.29473 12.741 5.27389 12.6505 5.25241 12.56C5.23548 12.4683 5.21921 12.3771 5.20228 12.286C5.1834 12.1948 5.17494 12.1024 5.16192 12.0099L5.14369 11.8719C5.13979 11.8492 5.13848 11.8257 5.13653 11.8023L5.13132 11.7326C5.12026 11.6578 5.10919 11.5842 5.09682 11.5119C5.08966 11.4761 5.08771 11.4403 5.0825 11.4045C5.07794 11.3694 5.07338 11.3342 5.06883 11.2997C5.05971 11.2307 5.04799 11.163 5.03888 11.0966C5.03107 11.0308 5.02326 10.9664 5.01349 10.9032C5.02391 10.8525 5.03302 10.7971 5.04214 10.7385C5.05385 10.6799 5.06492 10.6181 5.07599 10.553C5.0812 10.5204 5.0864 10.4866 5.09161 10.4527C5.09747 10.4189 5.10008 10.3831 5.10789 10.3479C5.12156 10.277 5.13393 10.2028 5.14695 10.1266C5.15346 10.0882 5.15867 10.0498 5.16583 10.0101C5.17364 9.971 5.1821 9.93128 5.19057 9.89092C5.19382 9.87465 5.19707 9.85772 5.20033 9.84145C5.20228 9.89418 5.20163 9.94951 5.21075 10.0127ZM5.32272 15.2454C5.33899 15.2936 5.35592 15.3451 5.3748 15.4017C5.35071 15.39 5.32988 15.3783 5.311 15.3652L5.28496 15.3242L5.2127 15.1992L5.14044 15.0742C5.13914 15.0723 5.13783 15.0697 5.13653 15.0677C5.13653 15.0671 5.13588 15.0658 5.13588 15.0651C5.12872 15.0261 5.12156 14.9883 5.10789 14.9525C5.12286 14.9473 5.13718 14.9414 5.15216 14.9362C5.20749 15.0404 5.26348 15.1439 5.32272 15.2454ZM4.18476 10.1051C4.18346 10.1578 4.17369 10.2099 4.15481 10.2633C4.16263 10.1813 4.17109 10.0992 4.17955 10.0166C4.18346 10.0459 4.18541 10.0752 4.18476 10.1051ZM4.15416 11.2665C4.16002 11.2645 4.16718 11.2626 4.17304 11.2606C4.17955 11.8999 4.26028 12.5386 4.40545 13.1622C4.36509 12.9376 4.33189 12.7293 4.32798 12.5425C4.39308 12.9025 4.48357 13.2579 4.59555 13.6069C4.55909 13.5899 4.52133 13.5724 4.48357 13.5535C4.37746 13.215 4.29218 12.868 4.23033 12.5158C4.16067 12.0978 4.13919 11.6792 4.15416 11.2665ZM2.74929 12.9194C2.75059 12.8471 2.7519 12.7749 2.7519 12.7039C2.75255 12.6323 2.75059 12.562 2.7545 12.4904C2.75775 12.3934 2.7571 12.2977 2.7571 12.202C2.7558 12.1545 2.75971 12.1069 2.76296 12.0594C2.76622 12.0119 2.77077 11.9644 2.77598 11.9175C2.78184 11.8706 2.78835 11.8238 2.79747 11.7769C2.80593 11.7307 2.8209 11.6838 2.83653 11.6382C2.86843 11.5464 2.91009 11.4566 2.96673 11.37C2.96803 11.3674 2.96933 11.3655 2.97063 11.3628C2.97194 11.3765 2.97259 11.3908 2.97389 11.4045C2.97714 11.4481 2.98105 11.4917 2.9843 11.5354C2.98691 11.579 2.99342 11.6226 2.99733 11.6662C3.00579 11.7535 3.01295 11.84 3.01816 11.9266C3.01816 11.9279 3.01946 11.9292 3.02141 11.9305C3.00384 12.0204 2.98951 12.1109 2.98561 12.2026C2.98105 12.2762 2.97779 12.3498 2.97584 12.4233C2.97389 12.4969 2.97649 12.5705 2.97779 12.6447L2.98365 12.8654L2.98561 12.9207L2.98951 12.976L2.99667 13.0861C3.00709 13.2332 3.0136 13.3797 3.02727 13.5255C3.03313 13.5984 3.03769 13.6713 3.04159 13.7449L3.0468 13.8542C3.04941 13.8907 3.05201 13.9272 3.05396 13.9636C3.05592 13.9962 3.05917 14.0287 3.06243 14.0613C3.03769 14.1348 3.02271 14.2104 3.0162 14.2872C3.01425 14.3152 3.0123 14.3432 3.0123 14.3718C3.01295 14.3998 3.0149 14.4284 3.01751 14.4571C3.02141 14.4955 3.02662 14.5346 3.03378 14.5736C3.03183 14.5717 3.02922 14.5697 3.02727 14.5678C2.9843 14.5209 2.94264 14.4688 2.90814 14.4128C2.89186 14.3861 2.87754 14.3581 2.86517 14.3301C2.86061 14.31 2.85671 14.2898 2.85215 14.2696C2.84304 14.2279 2.83392 14.1876 2.82481 14.1466C2.8183 14.1029 2.81244 14.0587 2.80658 14.0157L2.79226 13.9057L2.7851 13.851C2.78314 13.8328 2.78249 13.8139 2.78054 13.7957L2.76557 13.575L2.75841 13.4656L2.75515 13.4109L2.7545 13.3556L2.75059 13.1368L2.74799 13.0288C2.74799 13.0105 2.74669 12.993 2.74669 12.9747L2.74929 12.9194ZM3.52073 16.6555C3.43741 16.5729 3.36254 16.4817 3.302 16.3841C3.2701 16.3346 3.24275 16.2819 3.21346 16.2304L3.12753 16.0755L3.04224 15.9205L2.96412 15.7617L2.88665 15.6029C2.86126 15.5501 2.83457 15.4974 2.81244 15.4427L2.67443 15.1179C2.67247 15.1133 2.67117 15.1087 2.66922 15.1042C2.71284 15.0697 2.76036 15.0488 2.80788 15.0345C2.83783 15.1276 2.86908 15.2168 2.90098 15.2982C2.91725 15.3411 2.93613 15.3815 2.95436 15.4199C2.97259 15.4583 2.99082 15.4948 3.00904 15.5286C3.0455 15.5963 3.08065 15.6556 3.11516 15.7031C3.11125 15.6224 3.10084 15.5319 3.08521 15.4342C3.07805 15.3854 3.06828 15.3353 3.05917 15.2832C3.05071 15.2311 3.04159 15.1771 3.03183 15.1224C3.02402 15.0814 3.01555 15.0397 3.00709 14.9981C3.0162 14.9968 3.02597 14.9955 3.03443 14.9935C3.07219 14.987 3.108 14.9779 3.14185 14.9642C3.14315 14.9681 3.1451 14.9727 3.14641 14.9766C3.17114 15.0404 3.20044 15.1074 3.22257 15.1745C3.23364 15.2077 3.2421 15.2415 3.24861 15.2741C3.25512 15.3066 3.25838 15.3392 3.25643 15.3704C3.25187 15.4434 3.25057 15.5163 3.25317 15.5885C3.25577 15.6608 3.26098 15.7331 3.2727 15.8034C3.28377 15.8743 3.29744 15.9446 3.31371 16.0143C3.32153 16.0494 3.32999 16.0839 3.3391 16.1191L3.35277 16.1712C3.35798 16.1881 3.36319 16.2057 3.36905 16.2226C3.41332 16.3587 3.46279 16.4947 3.51618 16.6282C3.52204 16.6412 3.52724 16.6542 3.5331 16.6672C3.52985 16.6633 3.52529 16.6594 3.52073 16.6555ZM4.34751 16.3899C4.33644 16.3463 4.32473 16.3027 4.31366 16.2591C4.23684 15.9258 4.15481 15.6016 4.04154 15.2773C4.02657 15.235 4.01224 15.1927 3.99922 15.1498C3.9862 15.1068 3.97318 15.0638 3.96472 15.0196C3.94519 14.9317 3.92957 14.8431 3.91459 14.7539C3.89832 14.6654 3.88985 14.5749 3.87944 14.4851C3.86967 14.3952 3.85796 14.306 3.84754 14.2169C3.83517 14.0919 3.80913 13.9747 3.7564 13.8712C3.72906 13.8191 3.70041 13.7703 3.6607 13.7254C3.62164 13.6804 3.57412 13.6394 3.51683 13.6023C3.4654 13.6134 3.4335 13.616 3.40616 13.627C3.37881 13.6388 3.35277 13.657 3.32934 13.6772C3.3046 13.698 3.28182 13.7201 3.26033 13.7423C3.25187 13.6661 3.24406 13.5893 3.2382 13.5125L3.22908 13.3823C3.22648 13.3387 3.22648 13.295 3.22583 13.2514C3.22453 13.1642 3.22257 13.0776 3.22127 12.9904L3.21997 12.9279C3.25187 12.9565 3.27791 12.9728 3.29874 12.9669C3.40876 12.937 3.55003 12.838 3.58063 12.743C3.60537 12.6675 3.58258 12.605 3.53441 12.5614C3.48623 12.5177 3.41527 12.4943 3.3391 12.4995C3.3033 12.5021 3.26879 12.5184 3.23169 12.5431C3.23429 12.4813 3.23755 12.4194 3.24341 12.3576C3.25187 12.2528 3.26098 12.148 3.26945 12.0425C3.27986 11.9377 3.29418 11.8335 3.30525 11.7287C3.31046 11.6805 3.25512 11.6226 3.22778 11.5686C3.21281 11.5673 3.19718 11.566 3.18221 11.5647C3.18221 11.5634 3.18221 11.5614 3.18221 11.5601C3.18872 11.4221 3.17635 11.2808 3.18091 11.1409C3.20565 10.7548 3.22843 10.3577 3.32869 9.97555C3.3391 9.93389 3.35017 9.89157 3.36254 9.85056C3.37426 9.8089 3.38663 9.76723 3.4016 9.72687C3.40746 9.71125 3.41397 9.69562 3.41983 9.67935C3.42699 9.67479 3.43415 9.66893 3.44131 9.66437C3.52008 9.6162 3.61057 9.58039 3.71473 9.55891C3.74728 9.5524 3.78179 9.54784 3.81629 9.54394C3.81043 9.57128 3.80392 9.59862 3.79806 9.62596C3.78634 9.6787 3.77463 9.73143 3.76226 9.78416C3.75184 9.83689 3.74338 9.89027 3.73361 9.94366C3.7245 9.99704 3.71473 10.0498 3.70562 10.1032L3.69195 10.1826C3.68739 10.2093 3.68283 10.236 3.67958 10.2626C3.66591 10.3694 3.65289 10.4762 3.63922 10.5829L3.62945 10.663L3.62294 10.7431C3.61904 10.7965 3.61448 10.8499 3.61057 10.9032C3.60276 11.01 3.59234 11.1168 3.59169 11.2235C3.58844 11.3303 3.58583 11.4371 3.58258 11.5438C3.58323 11.6506 3.58649 11.7567 3.58779 11.8635C3.58909 11.9169 3.58909 11.9702 3.59234 12.023C3.5956 12.0764 3.59951 12.1291 3.60276 12.1818C3.60667 12.2352 3.60992 12.2879 3.61383 12.3407C3.61773 12.3934 3.62034 12.4468 3.6275 12.4995C3.63987 12.605 3.65224 12.7104 3.66461 12.8152C3.66981 12.868 3.67893 12.9201 3.68739 12.9721C3.69585 13.0242 3.70497 13.0763 3.71343 13.1284C3.7219 13.1805 3.73101 13.2325 3.73947 13.2846C3.74859 13.3367 3.76096 13.3881 3.77137 13.4396C3.79351 13.5424 3.81499 13.6459 3.83908 13.7481C3.89376 13.9506 3.94324 14.1557 4.01029 14.3536C4.02331 14.3907 4.03763 14.4317 4.05261 14.4753C4.06823 14.5189 4.08385 14.5658 4.10469 14.6133C4.13919 14.6953 4.1776 14.7865 4.21926 14.8815C4.22187 14.9987 4.23033 15.1159 4.25572 15.2305C4.32603 15.569 4.42108 15.9043 4.53826 16.2317C4.50506 16.2376 4.47185 16.25 4.43995 16.2695C4.40089 16.2962 4.3742 16.3365 4.34751 16.3899ZM5.45357 18.9061C5.20814 18.6502 4.97053 18.3879 4.75765 18.1105C4.74528 18.0897 4.73226 18.0695 4.72054 18.0487C4.70036 18.0109 4.68018 17.9738 4.6652 17.9335C4.63461 17.854 4.61377 17.772 4.60987 17.6861C4.60596 17.5995 4.61703 17.5103 4.65544 17.4133C4.67367 17.3677 4.63916 17.2961 4.61638 17.2427C4.59945 17.203 4.58318 17.1627 4.56755 17.123L4.54412 17.0631L4.52328 17.0019C4.49594 16.9198 4.4699 16.8378 4.44516 16.7558C4.4367 16.7297 4.42954 16.7031 4.42173 16.6764C4.51287 16.7102 4.58253 16.7337 4.60922 16.7089C4.63526 16.6848 4.6613 16.6529 4.68408 16.6184C4.77587 16.8372 4.87743 17.0513 4.9894 17.261C4.97443 17.2811 4.96206 17.3039 4.9523 17.3274C4.92626 17.3905 4.90673 17.4524 4.89436 17.5129C4.88785 17.5429 4.88329 17.5728 4.88003 17.6027C4.87743 17.632 4.87678 17.6607 4.87743 17.6893C4.87873 17.7603 4.8898 17.8286 4.90673 17.895C4.88394 17.8827 4.8605 17.8697 4.83512 17.8534C4.85074 17.953 4.87613 18.0422 4.90673 18.1242C4.93797 18.2056 4.97313 18.2811 5.01675 18.3475C5.05971 18.4145 5.10593 18.477 5.15281 18.5363C5.17624 18.5662 5.20033 18.5955 5.22442 18.6242C5.24981 18.6522 5.27455 18.6802 5.29993 18.7082C5.34616 18.7596 5.39759 18.8097 5.44576 18.8605C5.46985 18.8859 5.49328 18.9126 5.51542 18.9386C5.5382 18.9646 5.55903 18.9913 5.57661 19.0193C5.58117 19.0265 5.58507 19.0343 5.58898 19.0415C5.54471 18.9965 5.49849 18.9516 5.45357 18.9061ZM9.19491 21.0108C8.83099 20.8851 8.47229 20.7478 8.13246 20.5791C8.09926 20.5564 8.06736 20.5336 8.03807 20.5062C7.97557 20.4496 7.92089 20.3858 7.87857 20.3109C7.85123 20.2621 7.8304 20.2087 7.81542 20.1488C7.93456 20.2217 8.05564 20.2914 8.17868 20.3572C8.17022 20.3565 8.16241 20.3565 8.15329 20.3558C8.21123 20.4372 8.27373 20.5056 8.33753 20.5642C8.40133 20.6228 8.46643 20.6735 8.53544 20.7126C8.60314 20.753 8.67215 20.7868 8.74115 20.8181C8.77566 20.8337 8.81016 20.8487 8.84466 20.8636C8.87982 20.8773 8.91432 20.8903 8.94948 20.9033C9.01328 20.9281 9.08163 20.9489 9.14738 20.9724C9.18058 20.9841 9.21248 20.9971 9.24438 21.0101C9.27628 21.0231 9.30623 21.0375 9.33487 21.0544C9.33552 21.055 9.33682 21.0557 9.33748 21.0563C9.28995 21.0407 9.24178 21.0264 9.19491 21.0108ZM9.74305 21.8838C9.71115 21.8727 9.6799 21.861 9.64801 21.8467C9.6109 21.831 9.57379 21.8128 9.53603 21.7913C9.48395 21.7627 9.42406 21.7425 9.36156 21.7288C9.38825 21.7021 9.41495 21.6813 9.44489 21.6722C9.48721 21.6598 9.54385 21.6559 9.59658 21.6637C9.64931 21.6715 9.69748 21.6904 9.72222 21.7204C9.74826 21.7536 9.75152 21.818 9.74305 21.8838ZM19.5036 16.5169C19.4762 16.5006 19.4509 16.485 19.4242 16.4687C19.4457 16.4316 19.4671 16.3938 19.4886 16.3567L19.5049 16.3287L19.5199 16.3001L19.5498 16.2428C19.5895 16.166 19.6292 16.0892 19.6683 16.0123C19.7008 16.0293 19.7327 16.0462 19.7659 16.0631C19.6794 16.2155 19.598 16.3704 19.5036 16.5169ZM20.012 15.3828C20.0192 15.3385 20.029 15.2956 20.0374 15.2526C20.0452 15.2122 20.0543 15.1725 20.0641 15.1328L20.0661 15.1315C20.1683 14.9955 20.1976 14.8991 20.2282 14.7845C20.2308 14.7748 20.2327 14.7644 20.2353 14.7546C20.2933 14.6218 20.3492 14.4877 20.4013 14.351C20.4013 14.3503 20.402 14.3497 20.402 14.3484C20.292 14.7038 20.1624 15.0501 20.012 15.3828ZM20.7001 12.7449C20.7047 12.6629 20.7132 12.5822 20.7132 12.5002L20.7678 12.4917C20.7737 12.3745 20.7835 12.2586 20.7861 12.1415L20.7685 12.1883C20.7678 12.1473 20.7665 12.0588 20.7698 11.9624C20.7718 11.9143 20.7744 11.8635 20.7796 11.8159C20.7828 11.7678 20.7867 11.7222 20.7945 11.6838L20.8238 11.6903C20.8323 11.6493 20.8395 11.6096 20.8453 11.5692L20.8421 11.6897L20.8316 11.8602L20.8219 12.0301L20.8167 12.1148L20.8082 12.1994L20.7763 12.5353L20.732 12.868C20.7066 13.0405 20.6761 13.2117 20.6422 13.3816C20.6383 13.3771 20.6337 13.3719 20.6305 13.3673C20.6305 13.3614 20.6311 13.3549 20.6318 13.3497C20.6318 13.3204 20.6298 13.2963 20.6272 13.2775C20.6214 13.2404 20.6096 13.226 20.5908 13.241C20.5836 13.2469 20.5751 13.2592 20.5654 13.2749C20.568 13.2019 20.5712 13.1271 20.5836 13.0522C20.6012 12.9474 20.6233 12.8393 20.6604 12.7293L20.7001 12.7449ZM1.99478 6.51806C2.02798 6.53824 2.05922 6.55712 2.09243 6.5773C2.06573 6.62287 2.03969 6.66909 2.013 6.71466L1.99347 6.74917L1.97525 6.78432L1.93879 6.85463C1.88996 6.94903 1.84179 7.04342 1.79296 7.13717C1.75325 7.11633 1.71354 7.09615 1.67383 7.07532C1.77864 6.88783 1.87825 6.69839 1.99478 6.51806Z" fill="#FFAC00"/>
<path d="M0.510986 15.0762C0.522704 15.0859 0.533121 15.1035 0.54549 15.1042C0.555906 15.1042 0.567624 15.0866 0.578691 15.0762C0.559161 15.0605 0.540282 15.0462 0.521402 15.0312C0.518147 15.0456 0.514892 15.0612 0.510986 15.0762Z" fill="#FFAC00"/>
<path d="M19.7775 18.4912C19.7079 18.2816 19.6897 18.1976 19.6753 18.1982C19.6115 18.2035 19.5438 18.2236 19.4898 18.2555C19.4768 18.2633 19.4891 18.3669 19.5178 18.3877C19.5725 18.4307 19.648 18.445 19.7775 18.4912Z" fill="#FFAC00"/>
<path d="M20.8302 13.959C20.823 13.9551 20.808 13.9636 20.7957 13.9668C20.8041 13.9857 20.8126 14.0026 20.821 14.0209C20.8289 14.0117 20.8367 14.0013 20.8445 13.9922C20.8406 13.9805 20.8386 13.9636 20.8302 13.959Z" fill="#FFAC00"/>
<path d="M21.0347 12.284C21.0646 12.2879 21.0959 12.2925 21.1271 12.2964C21.1278 12.2339 21.1284 12.1714 21.1297 12.1089L21.1304 12.0151L21.1271 11.9214C21.1004 11.922 21.0724 11.922 21.0451 11.9227C21.0451 11.9526 21.0451 11.9832 21.0457 12.0132C21.0451 12.0431 21.0438 12.0737 21.0425 12.1037C21.0399 12.1636 21.0373 12.2235 21.0347 12.284Z" fill="#FFAC00"/>
<path d="M20.8427 10.1141C20.8661 10.1082 20.8909 10.103 20.9143 10.0972C20.8935 10.0171 20.8733 9.93831 20.8525 9.85889C20.829 9.8654 20.8049 9.87191 20.7815 9.87842C20.8017 9.95654 20.8225 10.036 20.8427 10.1141Z" fill="#FFAC00"/>
<path d="M20.9728 10.8374C20.9741 10.8823 20.9649 10.9279 20.9799 10.963C20.9877 10.9813 21.0379 10.9813 21.0685 10.9897C21.0639 10.9468 21.0639 10.9019 21.0509 10.8621C21.0463 10.8478 21.0073 10.8465 20.9728 10.8374Z" fill="#FFAC00"/>
<path d="M15.9862 21.0311C15.9783 21.0174 15.9705 21.0031 15.9621 20.9888C15.9002 21.0207 15.8384 21.0539 15.7759 21.0845C15.783 21.104 15.7902 21.1235 15.7974 21.1424C15.8612 21.1066 15.9237 21.0682 15.9862 21.0311Z" fill="#FFAC00"/>
<path d="M18.4352 19.0975L18.3896 19.1411L18.2979 19.2283C18.3089 19.2401 18.3206 19.2524 18.3324 19.2648L18.4333 19.1841L18.4834 19.1431L18.5316 19.1007C18.596 19.0434 18.6605 18.9862 18.7249 18.9289C18.7021 18.9087 18.6787 18.8892 18.6553 18.8696C18.5967 18.9302 18.5381 18.9914 18.4795 19.0519L18.4352 19.0975Z" fill="#FFAC00"/>
<path d="M19.4696 18.0244C19.4286 18.0817 19.3883 18.1396 19.3459 18.195C19.3609 18.2086 19.3759 18.223 19.3902 18.2366C19.4312 18.1761 19.4696 18.113 19.5093 18.0511C19.4963 18.0426 19.4833 18.0335 19.4696 18.0244Z" fill="#FFAC00"/>
</g>
<defs>
<clipPath id="clip0_1751_113">
<rect width="24.056" height="24" fill="white"/>
</clipPath>
</defs>
</svg>
